<?xml version="1.0" encoding="UTF-8"?>
<svg id="Layer_1" xmlns="http://www.w3.org/2000/svg" version="1.1" viewBox="0 0 72 20.7936">
  <!-- Generator: Adobe Illustrator 29.5.1, SVG Export Plug-In . SVG Version: 2.1.0 Build 141)  -->
  <defs>
    <style>
      .st0 {
        fill: #fff;
      }
    </style>
  </defs>
  <path class="st0" d="M13.36408,0C5.99531,0,0,5.99841,0,13.36594c0,4.09315,3.32893,7.42766,7.42394,7.42766,4.09314,0,7.42456-3.33451,7.42456-7.42766,0-.81875-.66442-1.4838-1.48442-1.4838-.81937,0-1.48628.66504-1.48628,1.4838,0,2.4575-1.99575,4.45511-4.45387,4.45511-2.45688,0-4.45511-1.99761-4.45511-4.45511C2.96883,7.63467,7.63095,2.96945,13.36408,2.96945s10.39401,4.66522,10.39401,10.39649c0,.82185.66566,1.4838,1.4869,1.4838.81999,0,1.48441-.66194,1.48441-1.4838C26.7294,5.99841,20.73286,0,13.36408,0"/>
  <path class="st0" d="M13.36408,5.94051c-4.09315,0-7.42456,3.33204-7.42456,7.42518,0,.82185.66504,1.48442,1.48442,1.48442.82123,0,1.48442-.66256,1.48442-1.48442,0-2.4575,1.99885-4.45387,4.45573-4.45387,2.4575,0,4.45573,1.99637,4.45573,4.45387,0,.82185.66442,1.48442,1.48442,1.48442.82061,0,1.48565-.66256,1.48565-1.48442,0-4.09314-3.33141-7.42518-7.4258-7.42518"/>
  <polygon class="st0" points="31.59067 4.77133 34.31716 4.77133 34.31716 5.36881 32.28236 5.36881 32.28236 6.40326 34.06862 6.40326 34.06862 6.96727 32.28236 6.96727 32.28236 8.72068 31.59067 8.72068 31.59067 4.77133"/>
  <path class="st0" d="M34.53787,7.28814c0-.87391.52559-1.50425,1.44413-1.50425.91792,0,1.44351.63033,1.44351,1.50425,0,.87949-.52559,1.50983-1.44351,1.50983-.91854,0-1.44413-.63033-1.44413-1.50983M36.79455,7.28814c0-.49212-.24854-1.00717-.81256-1.00717s-.81379.51505-.81379,1.00717c0,.49708.24978,1.01213.81379,1.01213s.81256-.51505.81256-1.01213"/>
  <path class="st0" d="M37.83941,5.86099h.59686v.42022l.01116.01116c.18842-.31486.51443-.50886.89065-.50886.6198,0,1.01213.33221,1.01213.9737v1.96352h-.63095v-1.79741c-.01054-.44811-.1878-.64211-.55844-.64211-.4196,0-.69108.33221-.69108.75244v1.68709h-.63033v-2.85975Z"/>
  <path class="st0" d="M43.59652,8.72043h-.5981v-.38675h-.01054c-.16673.32601-.52559.46423-.88569.46423-.90119,0-1.33753-.66938-1.33753-1.52594,0-1.03444.6136-1.48814,1.23898-1.48814.35886,0,.75739.13202.95077.44749h.01115v-1.46024h.63095v3.94935ZM42.18586,8.30021c.56401,0,.80202-.51443.80202-1.01213,0-.63033-.30432-1.00655-.79086-1.00655-.59191,0-.80202.52497-.80202,1.04002,0,.49212.24358.97866.79086.97866"/>
  <path class="st0" d="M46.56616,8.08458c0,.15495.03285.21569.14875.21569.03905,0,.08863,0,.15495-.01116v.43696c-.09359.03285-.29254.07189-.39791.07189-.25474,0-.43696-.08863-.48716-.34833-.24854.24358-.65202.34833-.98982.34833-.51443,0-.97928-.27643-.97928-.83549,0-.71339.56959-.82929,1.10076-.89065.45369-.08243.85718-.03285.85718-.40349,0-.32601-.33717-.38737-.59129-.38737-.35452,0-.60306.14441-.63095.45431h-.63033c.04401-.7357.66938-.95139,1.29972-.95139.55844,0,1.14539.22623,1.14539.82929v1.4714ZM45.93521,7.28814c-.19338.12706-.4977.12148-.77413.17168-.27147.04401-.51443.14318-.51443.47539,0,.28201.35948.36506.58075.36506.27643,0,.70781-.14379.70781-.54232v-.46981Z"/>
  <path class="st0" d="M46.84712,5.86099h.476v-.85718h.62971v.85718h.57021v.47043h-.57021v1.52594c0,.26032.02231.39357.30494.39357.08801,0,.17664,0,.26527-.02293v.48716c-.13821.01115-.27085.03347-.40968.03347-.65823,0-.77909-.25474-.79024-.73074v-1.68647h-.476v-.47043Z"/>
  <path class="st0" d="M48.88203,4.7712h.63033v.59749h-.63033v-.59749ZM48.88203,5.86081h.63033v2.85975h-.63033v-2.85975Z"/>
  <path class="st0" d="M49.95478,7.28814c0-.87391.52559-1.50425,1.44351-1.50425s1.44351.63033,1.44351,1.50425c0,.87949-.52559,1.50983-1.44351,1.50983s-1.44351-.63033-1.44351-1.50983M52.21147,7.28814c0-.49212-.24916-1.00717-.81318-1.00717-.56464,0-.81317.51505-.81317,1.00717,0,.49708.24853,1.01213.81317,1.01213.56402,0,.81318-.51505.81318-1.01213"/>
  <path class="st0" d="M53.25564,5.86099h.59686v.42022l.01177.01116c.18842-.31486.51381-.50886.89065-.50886.61918,0,1.01151.33221,1.01151.9737v1.96352h-.62971v-1.79741c-.01115-.44811-.18842-.64211-.55906-.64211-.42022,0-.69107.33221-.69107.75244v1.68709h-.63095v-2.85975Z"/>
  <path class="st0" d="M31.60331,10.00038h2.34594c.86524,0,1.43297.39233,1.43297,1.19683,0,.48716-.24978.83859-.68983,1.02762v.01364c.58881.12892.90615.58819.90615,1.24393,0,.75677-.52683,1.34558-1.7782,1.34558h-2.21702v-4.8276ZM32.44809,12.02216h1.37905c.40597,0,.71029-.23676.71029-.66938,0-.48716-.2504-.66256-.71029-.66256h-1.37905v1.33195ZM32.44809,14.13815h1.49433c.51381,0,.81131-.27705.81131-.76421,0-.4729-.2975-.74314-.81131-.74314h-1.49433v1.50735Z"/>
  <path class="st0" d="M36.11767,11.33251h.7233v.67558h.01364c.08801-.37126.5479-.77041,1.02081-.77041.17602,0,.22375.01364.29131.02045v.74376c-.10847-.01364-.22313-.03409-.33159-.03409-.52745,0-.94643.42642-.94643,1.19683v1.66292h-.77103v-3.49504Z"/>
  <path class="st0" d="M41.2892,14.04983c0,.18966.04029.26403.18222.26403.04711,0,.10847,0,.18966-.01364v.53427c-.11528.04029-.35824.08801-.48716.08801-.31052,0-.53365-.10846-.59501-.42642-.3037.29812-.79768.42642-1.21047.42642-.62848,0-1.19621-.33841-1.19621-1.02081,0-.87206.69665-1.01461,1.34558-1.08837.5541-.10165,1.04746-.04091,1.04746-.49398,0-.39915-.41217-.47291-.7233-.47291-.432,0-.73694.17602-.77041.5541h-.77103c.05454-.89871.81813-1.16274,1.58854-1.16274.68302,0,1.40013.27767,1.40013,1.01399v1.79803ZM40.51817,13.07674c-.23615.15557-.60802.14875-.94643.20949-.33097.05392-.62848.17602-.62848.58137,0,.34461.43882.44625.70967.44625.33779,0,.86524-.1754.86524-.66256v-.57455Z"/>
  <path class="st0" d="M42.00476,10.00044h.77041v.73012h-.77041v-.73012ZM42.00476,11.33238h.77041v3.49504h-.77041v-3.49504Z"/>
  <path class="st0" d="M43.47808,11.33251h.73012v.51381l.01364.01364c.22933-.38552.62848-.62228,1.08836-.62228.75739,0,1.2365.40535,1.2365,1.19001v2.39986h-.77041v-2.19656c-.01301-.5479-.22932-.78466-.68302-.78466-.51319,0-.84478.40535-.84478.91916v2.06207h-.77041v-3.49504Z"/>
  <path class="st0" d="M52.33276,11.53524c-.14194-.5541-.50018-.96007-1.20365-.96007-1.03444,0-1.46706.91296-1.46706,1.83894,0,.9266.43262,1.83894,1.46706,1.83894.75057,0,1.16274-.56092,1.23092-1.26439h.82433c-.06755,1.15592-.88569,1.9536-2.05525,1.9536-1.44723,0-2.31247-1.14911-2.31247-2.52816s.86524-2.52815,2.31247-2.52815c1.08836.0062,1.9474.60802,2.04781,1.64928h-.84416Z"/>
  <path class="st0" d="M56.6375,14.04983c0,.18966.04029.26403.18222.26403.04711,0,.10847,0,.18966-.01364v.53427c-.11528.04029-.35824.08801-.48716.08801-.31052,0-.53365-.10846-.59501-.42642-.3037.29812-.79768.42642-1.21047.42642-.62848,0-1.19621-.33841-1.19621-1.02081,0-.87206.69665-1.01461,1.34558-1.08837.5541-.10165,1.04746-.04091,1.04746-.49398,0-.39915-.41217-.47291-.7233-.47291-.432,0-.73694.17602-.77041.5541h-.77103c.05454-.89871.81813-1.16274,1.58854-1.16274.68302,0,1.40013.27767,1.40013,1.01399v1.79803ZM55.86648,13.07674c-.23615.15557-.60802.14875-.94643.20949-.33097.05392-.62848.17602-.62848.58137,0,.34461.43882.44625.70967.44625.33779,0,.86524-.1754.86524-.66256v-.57455Z"/>
  <path class="st0" d="M57.33267,11.33251h.73012v.51381l.01364.01364c.22933-.38552.62848-.62228,1.08836-.62228.75739,0,1.2365.40535,1.2365,1.19001v2.39986h-.77041v-2.19656c-.01301-.5479-.22932-.78466-.6824-.78466-.51381,0-.8454.40535-.8454.91916v2.06207h-.77041v-3.49504Z"/>
  <path class="st0" d="M64.00393,14.04983c0,.18966.04029.26403.18222.26403.04711,0,.10909,0,.18966-.01364v.53427c-.11528.04029-.35824.08801-.48716.08801-.3099,0-.53365-.10846-.59439-.42642-.30432.29812-.7983.42642-1.21047.42642-.62909,0-1.19621-.33841-1.19621-1.02081,0-.87206.69603-1.01461,1.34558-1.08837.5541-.10165,1.04746-.04091,1.04746-.49398,0-.39915-.41279-.47291-.7233-.47291-.43262,0-.73756.17602-.77103.5541h-.77041c.05392-.89871.81751-1.16274,1.58854-1.16274.68302,0,1.39951.27767,1.39951,1.01399v1.79803ZM63.23352,13.07674c-.23677.15557-.60864.14875-.94706.20949-.33097.05392-.62848.17602-.62848.58137,0,.34461.43944.44625.71029.44625.33779,0,.86524-.1754.86524-.66256v-.57455Z"/>
  <path class="st0" d="M67.99177,14.82767h-.73012v-.4729h-.01364c-.20267.39853-.64273.56711-1.08154.56711-1.10262,0-1.63627-.81751-1.63627-1.86559,0-1.26439.74995-1.81849,1.51417-1.81849.43944,0,.92598.16177,1.16336.5479h.01301v-1.78502h.77103v4.82699ZM66.26749,14.31386c.68983,0,.98052-.62848.98052-1.23712,0-.77041-.37188-1.2303-.96688-1.2303-.7233,0-.9799.64211-.9799,1.27059,0,.60182.29689,1.19683.96627,1.19683"/>
  <path class="st0" d="M71.62081,14.04983c0,.18966.04029.26403.18222.26403.04711,0,.10909,0,.18966-.01364v.53427c-.11528.04029-.35824.08801-.48716.08801-.3099,0-.53365-.10846-.59439-.42642-.30432.29812-.7983.42642-1.21047.42642-.62909,0-1.19621-.33841-1.19621-1.02081,0-.87206.69603-1.01461,1.34558-1.08837.5541-.10165,1.04746-.04091,1.04746-.49398,0-.39915-.41279-.47291-.7233-.47291-.43262,0-.73756.17602-.77103.5541h-.77041c.05392-.89871.81751-1.16274,1.58854-1.16274.68302,0,1.39951.27767,1.39951,1.01399v1.79803ZM70.8504,13.07674c-.23677.15557-.60864.14875-.94706.20949-.33097.05392-.62848.17602-.62848.58137,0,.34461.43944.44625.71029.44625.33779,0,.86524-.1754.86524-.66256v-.57455Z"/>
  <polygon class="st0" points="31.59067 16.13495 34.31716 16.13495 34.31716 16.73244 32.28236 16.73244 32.28236 17.76688 34.06862 17.76688 34.06862 18.33089 32.28236 18.33089 32.28236 20.0843 31.59067 20.0843 31.59067 16.13495"/>
  <path class="st0" d="M34.53787,18.65176c0-.87391.52559-1.50425,1.44413-1.50425.91792,0,1.44351.63033,1.44351,1.50425,0,.87949-.52559,1.50983-1.44351,1.50983-.91854,0-1.44413-.63033-1.44413-1.50983M36.79455,18.65176c0-.49212-.24854-1.00655-.81256-1.00655s-.81379.51443-.81379,1.00655c0,.4977.24978,1.01213.81379,1.01213s.81256-.51443.81256-1.01213"/>
  <path class="st0" d="M40.35039,20.08424h-.6198v-.39853h-.01116c-.15495.28759-.4977.476-.81255.476-.74686,0-1.06729-.37622-1.06729-1.12307v-1.81353h.62971v1.75279c0,.50328.20453.68612.5479.68612.52559,0,.70223-.33779.70223-.78032v-1.65858h.63096v2.85913Z"/>
  <path class="st0" d="M40.90282,17.2248h.59686v.42022l.01115.01116c.18842-.31548.51443-.50885.89065-.50885.6198,0,1.01213.33221,1.01213.97308v1.96352h-.63095v-1.79679c-.01054-.44811-.1878-.64211-.55844-.64211-.4196,0-.69107.33159-.69107.75243v1.68647h-.63033v-2.85913Z"/>
  <path class="st0" d="M46.65993,20.08406h-.5981v-.38675h-.01054c-.16673.32601-.52559.46423-.88569.46423-.90119,0-1.33753-.66938-1.33753-1.52594,0-1.03444.6136-1.48814,1.23898-1.48814.35886,0,.75739.13264.95077.44749h.01115v-1.46024h.63095v3.94935ZM45.24928,19.66383c.56401,0,.80202-.51443.80202-1.01213,0-.63033-.30432-1.00655-.79086-1.00655-.59191,0-.80202.52497-.80202,1.04002,0,.49212.24358.97866.79086.97866"/>
  <path class="st0" d="M49.62895,19.44821c0,.15495.03285.21569.14937.21569.03843,0,.08801,0,.15495-.01116v.43696c-.09421.03285-.29316.0719-.39791.0719-.25536,0-.43758-.08863-.48716-.34833-.24916.24358-.65265.34833-.99044.34833-.51443,0-.97866-.27643-.97866-.83549,0-.71339.56959-.82929,1.10076-.89003.45369-.08305.85718-.03347.85718-.40411,0-.32601-.33717-.38675-.59191-.38675-.35452,0-.60306.14379-.63033.45369h-.63095c.04462-.7357.66938-.95139,1.30034-.95139.55844,0,1.14477.22623,1.14477.82929v1.4714ZM48.99862,18.65176c-.194.12706-.4977.12148-.77475.17168-.27085.04401-.51443.14317-.51443.47539,0,.28201.35948.36506.58137.36506.27581,0,.70781-.14379.70781-.54232v-.46981Z"/>
  <path class="st0" d="M49.91053,17.2248h.476v-.85718h.62971v.85718h.57021v.46981h-.57021v1.52656c0,.26032.02231.39295.30494.39295.08801,0,.17664,0,.26527-.02231v.48716c-.13821.01116-.27085.03285-.40968.03285-.65823,0-.77909-.25412-.79024-.73012v-1.68709h-.476v-.46981Z"/>
  <path class="st0" d="M51.9457,16.1352h.63033v.59749h-.63033v-.59749ZM51.9457,17.2248h.63033v2.85913h-.63033v-2.85913Z"/>
  <path class="st0" d="M53.01819,18.65176c0-.87391.52559-1.50425,1.44351-1.50425s1.44351.63033,1.44351,1.50425c0,.87949-.52559,1.50983-1.44351,1.50983s-1.44351-.63033-1.44351-1.50983M55.27488,18.65176c0-.49212-.24916-1.00655-.81318-1.00655-.56464,0-.81317.51443-.81317,1.00655,0,.4977.24853,1.01213.81317,1.01213.56402,0,.81318-.51443.81318-1.01213"/>
  <path class="st0" d="M56.31912,17.2248h.59686v.42022l.01177.01116c.18842-.31548.51381-.50885.89065-.50885.61918,0,1.01151.33221,1.01151.97308v1.96352h-.62971v-1.79679c-.01115-.44811-.18842-.64211-.55906-.64211-.42022,0-.69107.33159-.69107.75243v1.68647h-.63095v-2.85913Z"/>
</svg>