<?xml version="1.0" encoding="UTF-8"?>
<svg id="Layer_1" xmlns="http://www.w3.org/2000/svg" version="1.1" viewBox="0 0 72 20.7936">
  <!-- Generator: Adobe Illustrator 29.7.1, SVG Export Plug-In . SVG Version: 2.1.1 Build 8)  -->
  <defs>
    <style>
      .st0 {
        fill: #fff;
      }
    </style>
  </defs>
  <path class="st0" d="M13.3641,0C5.9953,0,0,5.9984,0,13.3659c0,4.0932,3.3289,7.4277,7.4239,7.4277s7.4246-3.3345,7.4246-7.4277c0-.8188-.6644-1.4838-1.4844-1.4838-.8194,0-1.4863.665-1.4863,1.4838,0,2.4575-1.9958,4.4551-4.4539,4.4551-2.4569,0-4.4551-1.9976-4.4551-4.4551,0-5.7313,4.6621-10.3965,10.3953-10.3965s10.394,4.6652,10.394,10.3965c0,.8218.6657,1.4838,1.4869,1.4838.82,0,1.4844-.6619,1.4844-1.4838C26.7294,5.9984,20.7329,0,13.3641,0"/>
  <path class="st0" d="M13.3641,5.9405c-4.0932,0-7.4246,3.332-7.4246,7.4252,0,.8218.665,1.4844,1.4844,1.4844.8212,0,1.4844-.6626,1.4844-1.4844,0-2.4575,1.9988-4.4539,4.4557-4.4539s4.4557,1.9964,4.4557,4.4539c0,.8218.6644,1.4844,1.4844,1.4844.8206,0,1.4856-.6626,1.4856-1.4844,0-4.0931-3.3314-7.4252-7.4258-7.4252"/>
  <polygon class="st0" points="31.5907 4.7713 34.3172 4.7713 34.3172 5.3688 32.2824 5.3688 32.2824 6.4033 34.0686 6.4033 34.0686 6.9673 32.2824 6.9673 32.2824 8.7207 31.5907 8.7207 31.5907 4.7713"/>
  <path class="st0" d="M34.5379,7.2881c0-.8739.5256-1.5043,1.4441-1.5043.9179,0,1.4435.6303,1.4435,1.5043,0,.8795-.5256,1.5098-1.4435,1.5098-.9185,0-1.4441-.6303-1.4441-1.5098M36.7946,7.2881c0-.4921-.2485-1.0072-.8126-1.0072s-.8138.515-.8138,1.0072c0,.4971.2498,1.0121.8138,1.0121s.8126-.515.8126-1.0121"/>
  <path class="st0" d="M37.8394,5.861h.5969v.4202l.0112.0112c.1884-.3149.5144-.5089.8907-.5089.6198,0,1.0121.3322,1.0121.9737v1.9635h-.631v-1.7974c-.0105-.4481-.1878-.6421-.5584-.6421-.4196,0-.6911.3322-.6911.7524v1.6871h-.6303s0-2.8597,0-2.8598Z"/>
  <path class="st0" d="M43.5965,8.7204h-.5981v-.3868h-.0105c-.1667.326-.5256.4642-.8857.4642-.9012,0-1.3375-.6694-1.3375-1.5259,0-1.0344.6136-1.4881,1.239-1.4881.3589,0,.7574.132.9508.4475h.0112v-1.4602h.631s0,3.9494,0,3.9494ZM42.1859,8.3002c.564,0,.802-.5144.802-1.0121,0-.6303-.3043-1.0065-.7909-1.0065-.5919,0-.802.525-.802,1.04,0,.4921.2436.9787.7909.9787"/>
  <path class="st0" d="M46.5662,8.0846c0,.155.0328.2157.1488.2157.0391,0,.0886,0,.1549-.0112v.437c-.0936.0329-.2925.0719-.3979.0719-.2547,0-.437-.0886-.4872-.3483-.2485.2436-.652.3483-.9898.3483-.5144,0-.9793-.2764-.9793-.8355,0-.7134.5696-.8293,1.1008-.8906.4537-.0824.8572-.0328.8572-.4035,0-.326-.3372-.3874-.5913-.3874-.3545,0-.6031.1444-.631.4543h-.6303c.044-.7357.6694-.9514,1.2997-.9514.5584,0,1.1454.2262,1.1454.8293v1.4714h0ZM45.9352,7.2881c-.1934.1271-.4977.1215-.7741.1717-.2715.044-.5144.1432-.5144.4754,0,.282.3595.3651.5807.3651.2764,0,.7078-.1438.7078-.5423,0,0,0-.4698,0-.4698Z"/>
  <path class="st0" d="M46.8471,5.861h.476v-.8572h.6297v.8572h.5702v.4704h-.5702v1.5259c0,.2603.0223.3936.3049.3936.088,0,.1766,0,.2653-.0229v.4872c-.1382.0112-.2709.0335-.4097.0335-.6582,0-.7791-.2547-.7902-.7307v-1.6865h-.476v-.4704Z"/>
  <path class="st0" d="M48.882,4.7712h.6303v.5975h-.6303v-.5975ZM48.882,5.8608h.6303v2.8598h-.6303v-2.8598Z"/>
  <path class="st0" d="M49.9548,7.2881c0-.8739.5256-1.5043,1.4435-1.5043s1.4435.6303,1.4435,1.5043c0,.8795-.5256,1.5098-1.4435,1.5098s-1.4435-.6303-1.4435-1.5098M52.2115,7.2881c0-.4921-.2492-1.0072-.8132-1.0072-.5646,0-.8132.515-.8132,1.0072,0,.4971.2485,1.0121.8132,1.0121.564,0,.8132-.515.8132-1.0121"/>
  <path class="st0" d="M53.2556,5.861h.5969v.4202l.0118.0112c.1884-.3149.5138-.5089.8907-.5089.6192,0,1.0115.3322,1.0115.9737v1.9635h-.6297v-1.7974c-.0112-.4481-.1884-.6421-.5591-.6421-.4202,0-.6911.3322-.6911.7524v1.6871h-.631s0-2.8597,0-2.8598Z"/>
  <path class="st0" d="M31.6033,10.0004h2.3459c.8652,0,1.433.3923,1.433,1.1968,0,.4872-.2498.8386-.6898,1.0276v.0136c.5888.1289.9062.5882.9062,1.2439,0,.7568-.5268,1.3456-1.7782,1.3456h-2.217s0-4.8276,0-4.8276ZM32.4481,12.0222h1.3791c.406,0,.7103-.2368.7103-.6694,0-.4872-.2504-.6626-.7103-.6626h-1.3791v1.332h0ZM32.4481,14.1382h1.4943c.5138,0,.8113-.2771.8113-.7642,0-.4729-.2975-.7431-.8113-.7431h-1.4943v1.5073Z"/>
  <path class="st0" d="M36.1177,11.3325h.7233v.6756h.0136c.088-.3713.5479-.7704,1.0208-.7704.176,0,.2238.0136.2913.0204v.7438c-.1085-.0136-.2231-.0341-.3316-.0341-.5275,0-.9464.4264-.9464,1.1968v1.6629h-.771v-3.495h0Z"/>
  <path class="st0" d="M41.2892,14.0498c0,.1897.0403.264.1822.264.0471,0,.1085,0,.1897-.0136v.5343c-.1153.0403-.3582.088-.4872.088-.3105,0-.5336-.1085-.595-.4264-.3037.2981-.7977.4264-1.2105.4264-.6285,0-1.1962-.3384-1.1962-1.0208,0-.8721.6967-1.0146,1.3456-1.0884.5541-.1017,1.0475-.0409,1.0475-.494,0-.3991-.4122-.4729-.7233-.4729-.432,0-.7369.176-.7704.5541h-.771c.0545-.8987.8181-1.1627,1.5885-1.1627.683,0,1.4001.2777,1.4001,1.014v1.798h0ZM40.5182,13.0767c-.2361.1556-.608.1488-.9464.2095-.331.0539-.6285.176-.6285.5814,0,.3446.4388.4462.7097.4462.3378,0,.8652-.1754.8652-.6626v-.5746Z"/>
  <path class="st0" d="M42.0048,10.0004h.7704v.7301h-.7704v-.7301ZM42.0048,11.3324h.7704v3.495h-.7704v-3.495Z"/>
  <path class="st0" d="M43.4781,11.3325h.7301v.5138l.0136.0136c.2293-.3855.6285-.6223,1.0884-.6223.7574,0,1.2365.4053,1.2365,1.19v2.3999h-.7704v-2.1966c-.013-.5479-.2293-.7847-.683-.7847-.5132,0-.8448.4053-.8448.9192v2.0621h-.7704v-3.495h0Z"/>
  <path class="st0" d="M52.3328,11.5352c-.1419-.5541-.5002-.9601-1.2037-.9601-1.0344,0-1.4671.913-1.4671,1.8389,0,.9266.4326,1.8389,1.4671,1.8389.7506,0,1.1627-.5609,1.2309-1.2644h.8243c-.0676,1.1559-.8857,1.9536-2.0552,1.9536-1.4472,0-2.3125-1.1491-2.3125-2.5282s.8652-2.5281,2.3125-2.5281c1.0884.0062,1.9474.608,2.0478,1.6493h-.8442Z"/>
  <path class="st0" d="M56.6375,14.0498c0,.1897.0403.264.1822.264.0471,0,.1085,0,.1897-.0136v.5343c-.1153.0403-.3582.088-.4872.088-.3105,0-.5336-.1085-.595-.4264-.3037.2981-.7977.4264-1.2105.4264-.6285,0-1.1962-.3384-1.1962-1.0208,0-.8721.6967-1.0146,1.3456-1.0884.5541-.1017,1.0475-.0409,1.0475-.494,0-.3991-.4122-.4729-.7233-.4729-.432,0-.7369.176-.7704.5541h-.771c.0545-.8987.8181-1.1627,1.5885-1.1627.683,0,1.4001.2777,1.4001,1.014v1.798h0ZM55.8665,13.0767c-.2361.1556-.608.1488-.9464.2095-.331.0539-.6285.176-.6285.5814,0,.3446.4388.4462.7097.4462.3378,0,.8652-.1754.8652-.6626v-.5746Z"/>
  <path class="st0" d="M57.3327,11.3325h.7301v.5138l.0136.0136c.2293-.3855.6285-.6223,1.0884-.6223.7574,0,1.2365.4053,1.2365,1.19v2.3999h-.7704v-2.1966c-.013-.5479-.2293-.7847-.6824-.7847-.5138,0-.8454.4053-.8454.9192v2.0621h-.7704v-3.495h0Z"/>
  <path class="st0" d="M64.0039,14.0498c0,.1897.0403.264.1822.264.0471,0,.1091,0,.1897-.0136v.5343c-.1153.0403-.3582.088-.4872.088-.3099,0-.5336-.1085-.5944-.4264-.3043.2981-.7983.4264-1.2105.4264-.6291,0-1.1962-.3384-1.1962-1.0208,0-.8721.696-1.0146,1.3456-1.0884.5541-.1017,1.0475-.0409,1.0475-.494,0-.3991-.4128-.4729-.7233-.4729-.4326,0-.7376.176-.771.5541h-.7704c.0539-.8987.8175-1.1627,1.5885-1.1627.683,0,1.3995.2777,1.3995,1.014v1.798h0ZM63.2335,13.0767c-.2368.1556-.6086.1488-.9471.2095-.331.0539-.6285.176-.6285.5814,0,.3446.4394.4462.7103.4462.3378,0,.8652-.1754.8652-.6626v-.5745h0Z"/>
  <path class="st0" d="M67.9918,14.8277h-.7301v-.4729h-.0136c-.2027.3985-.6427.5671-1.0815.5671-1.1026,0-1.6363-.8175-1.6363-1.8656,0-1.2644.7499-1.8185,1.5142-1.8185.4394,0,.926.1618,1.1634.5479h.013v-1.785h.771s0,4.827,0,4.827ZM66.2675,14.3139c.6898,0,.9805-.6285.9805-1.2371,0-.7704-.3719-1.2303-.9669-1.2303-.7233,0-.9799.6421-.9799,1.2706,0,.6018.2969,1.1968.9663,1.1968"/>
  <path class="st0" d="M71.6208,14.0498c0,.1897.0403.264.1822.264.0471,0,.1091,0,.1897-.0136v.5343c-.1153.0403-.3582.088-.4872.088-.3099,0-.5337-.1085-.5944-.4264-.3043.2981-.7983.4264-1.2105.4264-.6291,0-1.1962-.3384-1.1962-1.0208,0-.8721.696-1.0146,1.3456-1.0884.5541-.1017,1.0475-.0409,1.0475-.494,0-.3991-.4128-.4729-.7233-.4729-.4326,0-.7376.176-.771.5541h-.7704c.0539-.8987.8175-1.1627,1.5885-1.1627.683,0,1.3995.2777,1.3995,1.014v1.798h0ZM70.8504,13.0767c-.2368.1556-.6086.1488-.9471.2095-.331.0539-.6285.176-.6285.5814,0,.3446.4394.4462.7103.4462.3378,0,.8652-.1754.8652-.6626,0,0,0-.5745,0-.5746Z"/>
  <polygon class="st0" points="31.5907 16.135 34.3172 16.135 34.3172 16.7324 32.2824 16.7324 32.2824 17.7669 34.0686 17.7669 34.0686 18.3309 32.2824 18.3309 32.2824 20.0843 31.5907 20.0843 31.5907 16.135"/>
  <path class="st0" d="M34.5379,18.6518c0-.8739.5256-1.5042,1.4441-1.5042.9179,0,1.4435.6303,1.4435,1.5042,0,.8795-.5256,1.5098-1.4435,1.5098-.9185,0-1.4441-.6303-1.4441-1.5098M36.7946,18.6518c0-.4921-.2485-1.0065-.8126-1.0065s-.8138.5144-.8138,1.0065c0,.4977.2498,1.0121.8138,1.0121s.8126-.5144.8126-1.0121"/>
  <path class="st0" d="M40.3504,20.0842h-.6198v-.3985h-.0112c-.1549.2876-.4977.476-.8125.476-.7469,0-1.0673-.3762-1.0673-1.1231v-1.8135h.6297v1.7528c0,.5033.2045.6861.5479.6861.5256,0,.7022-.3378.7022-.7803v-1.6586h.631v2.8591h0Z"/>
  <path class="st0" d="M40.9028,17.2248h.5969v.4202l.0112.0112c.1884-.3155.5144-.5089.8907-.5089.6198,0,1.0121.3322,1.0121.9731v1.9635h-.631v-1.7968c-.0105-.4481-.1878-.6421-.5584-.6421-.4196,0-.6911.3316-.6911.7524v1.6865h-.6303v-2.8591Z"/>
  <path class="st0" d="M46.6599,20.0841h-.5981v-.3867h-.0105c-.1667.326-.5256.4642-.8857.4642-.9012,0-1.3375-.6694-1.3375-1.5259,0-1.0344.6136-1.4881,1.239-1.4881.3589,0,.7574.1326.9508.4475h.0112v-1.4602h.631s0,3.9494,0,3.9493ZM45.2493,19.6638c.564,0,.802-.5144.802-1.0121,0-.6303-.3043-1.0065-.7909-1.0065-.5919,0-.802.525-.802,1.04,0,.4921.2436.9787.7909.9787"/>
  <path class="st0" d="M49.6289,19.4482c0,.1549.0328.2157.1494.2157.0384,0,.088,0,.1549-.0112v.437c-.0942.0329-.2932.0719-.3979.0719-.2554,0-.4376-.0886-.4872-.3483-.2492.2436-.6526.3483-.9904.3483-.5144,0-.9787-.2764-.9787-.8355,0-.7134.5696-.8293,1.1008-.89.4537-.083.8572-.0335.8572-.4041,0-.326-.3372-.3867-.5919-.3867-.3545,0-.6031.1438-.6303.4537h-.631c.0446-.7357.6694-.9514,1.3003-.9514.5584,0,1.1448.2262,1.1448.8293,0,0,0,1.4714,0,1.4714ZM48.9986,18.6518c-.194.1271-.4977.1215-.7747.1717-.2709.044-.5144.1432-.5144.4754,0,.282.3595.3651.5814.3651.2758,0,.7078-.1438.7078-.5423v-.4698Z"/>
  <path class="st0" d="M49.9105,17.2248h.476v-.8572h.6297v.8572h.5702v.4698h-.5702v1.5266c0,.2603.0223.393.3049.393.088,0,.1766,0,.2653-.0223v.4872c-.1382.0112-.2709.0329-.4097.0329-.6582,0-.7791-.2541-.7902-.7301v-1.6871h-.476v-.4698Z"/>
  <path class="st0" d="M51.9457,16.1352h.6303v.5975h-.6303v-.5975ZM51.9457,17.2248h.6303v2.8591h-.6303v-2.8591Z"/>
  <path class="st0" d="M53.0182,18.6518c0-.8739.5256-1.5042,1.4435-1.5042s1.4435.6303,1.4435,1.5042c0,.8795-.5256,1.5098-1.4435,1.5098s-1.4435-.6303-1.4435-1.5098M55.2749,18.6518c0-.4921-.2492-1.0065-.8132-1.0065-.5646,0-.8132.5144-.8132,1.0065,0,.4977.2485,1.0121.8132,1.0121.564,0,.8132-.5144.8132-1.0121"/>
  <path class="st0" d="M56.3191,17.2248h.5969v.4202l.0118.0112c.1884-.3155.5138-.5089.8907-.5089.6192,0,1.0115.3322,1.0115.9731v1.9635h-.6297v-1.7968c-.0112-.4481-.1884-.6421-.5591-.6421-.4202,0-.6911.3316-.6911.7524v1.6865h-.631s0-2.8591,0-2.8591Z"/>
</svg>