<?xml version="1.0" encoding="UTF-8"?>
<svg xmlns="http://www.w3.org/2000/svg" xmlns:svg="http://www.w3.org/2000/svg" xmlns:sodipodi="http://sodipodi.sourceforge.net/DTD/sodipodi-0.dtd" xmlns:inkscape="http://www.inkscape.org/namespaces/inkscape" version="1.1" viewBox="0 0 216.9 27.8">
  <defs>
    <style>
      .cls-1 {
        fill: #e82434;
      }

      .cls-2 {
        fill: #fff;
      }
    </style>
  </defs>
  <!-- Generator: Adobe Illustrator 28.6.0, SVG Export Plug-In . SVG Version: 1.2.0 Build 709)  -->
  <g>
    <g id="svg2">
      <sodipodi:namedview id="namedview4" bordercolor="#000000" borderopacity="0.25" inkscape:deskcolor="#d1d1d1" inkscape:pagecheckerboard="0" inkscape:pageopacity="0.0" inkscape:showpageshadow="2" pagecolor="#ffffff"/>
      <g id="g8" inkscape:groupmode="layer" inkscape:label="ink_ext_XXXXXX">
        <g id="g10">
          <path id="path12" class="cls-1" d="M0,0h13.6v27.8H0V0"/>
          <path id="path14" class="cls-1" d="M43.9,0h13.6v27.8h-13.6V0"/>
          <path id="path16" class="cls-1" d="M26.9,5.8l1.9-4,1.9,3.8c.2.4.4.4.8.2l1.7-.8-1.1,5.3c-.2,1,.4,1.4,1,.6l2.4-2.5.6,1.4c.2.4.5.4,1,.3l2.4-.5-.8,3.1h0c0,.5-.3.8.2,1l.9.4-5,4.3c-.5.5-.3.7-.1,1.3l.5,1.4-4.7-.9c-.6-.1-1-.1-1,.3l.2,5.4h-1.4l.2-5.4c0-.5-.4-.5-1.4-.3l-4.3.8.6-1.4c.2-.5.2-.9-.2-1.3l-5.2-4.2,1-.6c.3-.2.3-.4.1-.9l-1-3.1,2.5.5c.7.2.9,0,1.1-.4l.7-1.4,2.4,2.8c.4.5,1,.2.9-.6l-1.2-5.8,1.8,1c.3.2.6.2.8-.1"/>
          <path id="path18" class="cls-2" d="M161.8,8.6c0,.7.2,1.2.4,1.6.5.8,1.4,1.1,2.6,1.1s1.1,0,1.5-.3c.9-.3,1.3-.9,1.3-1.7s-.2-1.1-.6-1.3c-.4-.3-1-.5-1.8-.7l-1.5-.4c-1-.2-1.7-.5-2.1-.8-.7-.5-1.1-1.2-1.1-2.1s.3-1.9,1-2.5c.7-.7,1.7-1,2.9-1s2.2.3,3,.9c.8.6,1.2,1.5,1.2,2.8h-1.5c0-.6-.2-1.1-.5-1.4-.5-.6-1.2-.9-2.3-.9s-1.5.2-1.9.6c-.4.4-.6.8-.6,1.3s.2,1,.7,1.2c.3.2,1,.4,2,.6l1.6.4c.8.2,1.3.4,1.7.7.7.5,1.1,1.3,1.1,2.3s-.5,2.2-1.4,2.7c-.9.5-1.9.8-3.1.8s-2.5-.4-3.3-1.1c-.8-.7-1.2-1.7-1.2-2.9h1.5"/>
          <path id="path20" class="cls-2" d="M173.3,11c.3.2.6.4,1.1.4s1-.1,1.4-.3c.8-.4,1.2-1,1.2-1.9v-1.1c-.2.1-.4.2-.7.3-.3,0-.5.1-.8.2h-.8c-.5.2-.9.3-1.1.4-.4.2-.7.6-.7,1.2s.1.7.4,1h0ZM176.2,7.2c.3,0,.5-.2.6-.4,0-.1,0-.3,0-.5,0-.5-.2-.8-.5-1-.3-.2-.8-.3-1.5-.3s-1.3.2-1.6.6c-.2.2-.3.5-.3,1h-1.3c0-1,.4-1.8,1-2.2.6-.4,1.4-.6,2.2-.6s1.8.2,2.4.6c.6.4.9,1,.9,1.7v4.8c0,.1,0,.3,0,.4,0,0,.2.1.4.1s.1,0,.2,0c0,0,.2,0,.3,0v1c-.2,0-.4.1-.5.1-.1,0-.3,0-.5,0-.5,0-.8-.2-1.1-.5-.1-.2-.2-.4-.2-.8-.3.4-.7.7-1.2,1s-1.1.4-1.8.4-1.4-.2-1.9-.7c-.5-.5-.7-1.1-.7-1.8s.2-1.4.7-1.8,1.1-.7,1.9-.8l2.2-.3"/>
          <path id="path22" class="cls-2" d="M181,3.9h1.3v1.2c.4-.5.8-.8,1.3-1.1.4-.2.9-.3,1.5-.3,1.2,0,2,.4,2.4,1.2.2.5.3,1.1.3,1.9v5.4h-1.4v-5.3c0-.5,0-.9-.2-1.2-.3-.5-.7-.8-1.4-.8s-.6,0-.8.1c-.4.1-.7.3-1,.7-.2.3-.4.6-.5.9,0,.3-.1.7-.1,1.3v4.4h-1.4V3.9h0"/>
          <path id="path24" class="cls-2" d="M190.6,1.6h1.4v2.3h1.3v1.1h-1.3v5.5c0,.3,0,.5.3.6.1,0,.3,0,.5,0s.1,0,.2,0c0,0,.2,0,.3,0v1.1c-.2,0-.3,0-.5.1-.2,0-.4,0-.6,0-.7,0-1.1-.2-1.3-.5-.2-.3-.4-.8-.4-1.3v-5.5h-1.1v-1.1h1.1V1.6h0"/>
          <path id="path26" class="cls-2" d="M200.3.5l-2.1,2.3h-1.1l1.4-2.3h1.7ZM200.9,7.4c0-.6-.2-1.1-.4-1.5-.4-.7-1-1-1.9-1s-1.2.2-1.6.7c-.4.5-.7,1.1-.7,1.8h4.6ZM200.4,4.1c.6.3,1,.6,1.3,1.1.3.4.5.9.6,1.5,0,.4.1,1,.1,1.8h-6.1c0,.9.2,1.5.6,2,.4.5.9.8,1.7.8s1.3-.2,1.7-.7c.2-.3.4-.6.5-1h1.4c0,.3-.2.6-.4,1-.2.4-.4.7-.7.9-.4.4-.9.7-1.6.8-.3,0-.7.1-1.1.1-1,0-1.9-.4-2.6-1.1-.7-.8-1.1-1.8-1.1-3.2s.4-2.4,1.1-3.3c.7-.8,1.7-1.3,2.8-1.3.6,0,1.2.1,1.7.4"/>
          <path id="path28" class="cls-2" d="M88.2,16.3c.8.8,1.2,1.6,1.3,2.6h-1.5c-.2-.7-.5-1.3-1-1.8-.5-.4-1.2-.6-2.1-.6s-2,.4-2.7,1.2c-.7.8-1,2-1,3.7s.3,2.4.9,3.3c.6.8,1.5,1.3,2.8,1.3s2-.4,2.6-1.3c.3-.5.5-1.1.7-1.8h1.5c-.1,1.2-.6,2.2-1.3,3-.9,1-2.1,1.5-3.6,1.5s-2.4-.4-3.3-1.2c-1.2-1.1-1.8-2.7-1.8-4.9s.4-3.1,1.3-4.2c1-1.2,2.3-1.8,4-1.8,1.4,0,2.6.4,3.3,1.1"/>
          <path id="path30" class="cls-2" d="M93.4,25.7c.3.2.6.4,1.1.4s1-.1,1.4-.3c.8-.4,1.2-1,1.2-1.9v-1.1c-.2.1-.4.2-.7.3-.3,0-.5.1-.8.2h-.8c-.5.2-.9.3-1.1.4-.4.2-.7.6-.7,1.2s.1.7.4,1ZM96.3,21.9c.3,0,.5-.2.6-.4,0-.1,0-.3,0-.5,0-.5-.2-.8-.5-1-.3-.2-.8-.3-1.5-.3s-1.3.2-1.6.6c-.2.2-.3.5-.3,1h-1.3c0-1,.4-1.8,1-2.2.6-.4,1.4-.6,2.2-.6s1.8.2,2.4.6c.6.4.9,1,.9,1.7v4.8c0,.1,0,.3,0,.4,0,0,.2.1.4.1s.1,0,.2,0c0,0,.2,0,.3,0v1c-.2,0-.4.1-.5.1-.1,0-.3,0-.5,0-.5,0-.8-.2-1.1-.5-.1-.2-.2-.4-.2-.8-.3.4-.7.7-1.2,1-.5.3-1.1.4-1.8.4s-1.4-.2-1.9-.7c-.5-.5-.7-1.1-.7-1.8s.2-1.4.7-1.8c.5-.4,1.1-.7,1.9-.8l2.2-.3"/>
          <path id="path32" class="cls-2" d="M101.2,18.6h1.3v1.2c.4-.5.8-.8,1.3-1.1.4-.2.9-.3,1.5-.3,1.2,0,2,.4,2.4,1.2.2.5.3,1.1.3,1.9v5.4h-1.4v-5.3c0-.5,0-.9-.2-1.2-.3-.5-.7-.8-1.4-.8s-.6,0-.8.1c-.4.1-.7.3-1,.7-.2.3-.4.6-.5.9,0,.3-.1.7-.1,1.3v4.4h-1.4v-8.4h0"/>
          <path id="path34" class="cls-2" d="M112,25.7c.3.2.6.4,1.1.4s1-.1,1.4-.3c.8-.4,1.2-1,1.2-1.9v-1.1c-.2.1-.4.2-.7.3-.3,0-.5.1-.8.2h-.8c-.5.2-.9.3-1.1.4-.4.2-.7.6-.7,1.2s.1.7.4,1ZM115,21.9c.3,0,.5-.2.6-.4,0-.1,0-.3,0-.5,0-.5-.2-.8-.5-1-.3-.2-.8-.3-1.5-.3s-1.3.2-1.6.6c-.2.2-.3.5-.3,1h-1.3c0-1,.4-1.8,1-2.2.6-.4,1.4-.6,2.2-.6s1.8.2,2.4.6c.6.4.9,1,.9,1.7v4.8c0,.1,0,.3,0,.4,0,0,.2.1.4.1s.1,0,.2,0c0,0,.2,0,.3,0v1c-.2,0-.4.1-.5.1-.1,0-.3,0-.5,0-.5,0-.8-.2-1.1-.5-.1-.2-.2-.4-.2-.8-.3.4-.7.7-1.2,1-.5.3-1.1.4-1.8.4s-1.4-.2-1.9-.7c-.5-.5-.7-1.1-.7-1.8s.2-1.4.7-1.8c.5-.4,1.1-.7,1.9-.8l2.2-.3"/>
          <path id="path36" class="cls-2" d="M121.2,25.1c.4.6,1,.9,1.8.9s1.2-.3,1.6-.8c.4-.6.6-1.4.6-2.4s-.2-1.8-.6-2.3c-.4-.5-1-.8-1.6-.8s-1.3.3-1.7.8c-.4.5-.7,1.3-.7,2.4,0,.9.2,1.6.6,2.3ZM124.4,18.8c.2.2.5.4.8.8v-4.2h1.4v11.5h-1.3v-1.2c-.3.5-.7.9-1.2,1.1-.4.2-1,.3-1.5.3-.9,0-1.7-.4-2.4-1.2-.7-.8-1-1.8-1-3.1s.3-2.3.9-3.2c.6-.9,1.5-1.3,2.7-1.3s1.2.1,1.6.4"/>
          <path id="path38" class="cls-2" d="M130.6,25.7c.3.2.6.4,1.1.4s1-.1,1.4-.3c.8-.4,1.2-1,1.2-1.9v-1.1c-.2.1-.4.2-.7.3-.3,0-.5.1-.8.2h-.8c-.5.2-.9.3-1.1.4-.4.2-.7.6-.7,1.2s.1.7.4,1ZM133.6,21.9c.3,0,.5-.2.6-.4,0-.1,0-.3,0-.5,0-.5-.2-.8-.5-1-.3-.2-.8-.3-1.5-.3s-1.3.2-1.6.6c-.2.2-.3.5-.3,1h-1.3c0-1,.4-1.8,1-2.2.6-.4,1.4-.6,2.2-.6s1.8.2,2.4.6c.6.4.9,1,.9,1.7v4.8c0,.1,0,.3,0,.4,0,0,.2.1.4.1s.1,0,.2,0c0,0,.2,0,.3,0v1c-.2,0-.4.1-.5.1s-.3,0-.5,0c-.5,0-.8-.2-1.1-.5-.1-.2-.2-.4-.2-.8-.3.4-.7.7-1.2,1-.5.3-1.1.4-1.8.4s-1.4-.2-1.9-.7c-.5-.5-.7-1.1-.7-1.8s.2-1.4.7-1.8c.5-.4,1.1-.7,1.9-.8l2.2-.3"/>
          <path id="path40" class="cls-2" d="M79.5.6h1.6v4.7h5.9V.6h1.6v11.5h-1.6v-5.4h-5.9v5.4h-1.6V.6"/>
          <path id="path42" class="cls-2" d="M97,7.2c0-.6-.2-1.1-.4-1.5-.4-.7-1-1-1.9-1s-1.2.2-1.6.7c-.4.5-.7,1.1-.7,1.8h4.6,0ZM96.5,3.9c.6.3,1,.6,1.3,1.1.3.4.5.9.6,1.5,0,.4.1,1,.1,1.8h-6.1c0,.9.2,1.5.6,2,.4.5.9.8,1.7.8s1.3-.2,1.7-.7c.2-.3.4-.6.5-1h1.4c0,.3-.2.6-.4,1s-.4.7-.7.9c-.4.4-.9.7-1.6.8-.3,0-.7.1-1.1.1-1,0-1.9-.4-2.6-1.1-.7-.8-1.1-1.8-1.1-3.2s.4-2.4,1.1-3.3c.7-.8,1.7-1.3,2.8-1.3.6,0,1.2.1,1.7.4"/>
          <path id="path44" class="cls-2" d="M102.1,10.8c.3.2.6.4,1.1.4s1-.1,1.4-.3c.8-.4,1.2-1,1.2-1.9v-1.1c-.2.1-.4.2-.7.3-.3,0-.5.1-.8.2h-.8c-.5.2-.9.3-1.1.4-.4.2-.7.6-.7,1.2s.1.7.4,1ZM105.1,7c.3,0,.5-.2.6-.4,0-.1,0-.3,0-.5,0-.5-.2-.8-.5-1-.3-.2-.8-.3-1.5-.3s-1.3.2-1.6.6c-.2.2-.3.5-.3,1h-1.3c0-1,.4-1.8,1-2.2.6-.4,1.4-.6,2.2-.6s1.8.2,2.4.6c.6.4.9,1,.9,1.7v4.8c0,.1,0,.3,0,.4,0,0,.2.1.4.1s.1,0,.2,0c0,0,.2,0,.3,0v1c-.2,0-.4.1-.5.1-.1,0-.3,0-.5,0-.5,0-.8-.2-1.1-.5-.1-.2-.2-.4-.2-.8-.3.4-.7.7-1.2,1-.5.3-1.1.4-1.8.4s-1.4-.2-1.9-.7c-.5-.5-.7-1.1-.7-1.8s.2-1.4.7-1.8c.5-.4,1.1-.7,1.9-.8l2.2-.3"/>
          <path id="path46" class="cls-2" d="M110,.6h1.4v11.5h-1.4V.6"/>
          <path id="path48" class="cls-2" d="M114.2,1.3h1.4v2.3h1.3v1.1h-1.3v5.5c0,.3,0,.5.3.6.1,0,.3,0,.5,0s.1,0,.2,0c0,0,.2,0,.3,0v1.1c-.2,0-.3,0-.5.1-.2,0-.4,0-.6,0-.7,0-1.1-.2-1.3-.5-.2-.3-.4-.8-.4-1.3v-5.5h-1.1v-1.1h1.1V1.3h0"/>
          <path id="path50" class="cls-2" d="M118.8.5h1.4v4.3c.3-.4.6-.7.9-.9.5-.3,1-.4,1.7-.4,1.2,0,2,.4,2.5,1.3.2.5.4,1.1.4,1.9v5.4h-1.4v-5.3c0-.6,0-1.1-.2-1.4-.3-.5-.7-.7-1.4-.7s-1.1.2-1.6.6c-.5.4-.7,1.2-.7,2.3v4.4h-1.4V.5h0"/>
          <path id="path52" class="cls-2" d="M168.5,16.3c.8.8,1.2,1.6,1.3,2.6h-1.5c-.2-.7-.5-1.3-1-1.8-.5-.4-1.2-.6-2.1-.6s-2,.4-2.7,1.2c-.7.8-1,2-1,3.7s.3,2.4.9,3.3c.6.8,1.5,1.3,2.8,1.3s2-.4,2.6-1.3c.3-.5.5-1.1.7-1.8h1.5c-.1,1.2-.6,2.2-1.3,3-.9,1-2.1,1.5-3.6,1.5s-2.4-.4-3.3-1.2c-1.2-1.1-1.8-2.7-1.8-4.9s.4-3.1,1.3-4.2c1-1.2,2.3-1.8,4-1.8s2.6.4,3.3,1.1"/>
          <path id="path54" class="cls-2" d="M173.7,25.7c.3.2.6.4,1.1.4s1-.1,1.4-.3c.8-.4,1.2-1,1.2-1.9v-1.1c-.2.1-.4.2-.7.3-.3,0-.5.1-.8.2h-.8c-.5.2-.9.3-1.1.4-.4.2-.7.6-.7,1.2s.1.7.4,1h0ZM176.6,21.9c.3,0,.5-.2.6-.4,0-.1,0-.3,0-.5,0-.5-.2-.8-.5-1-.3-.2-.8-.3-1.5-.3s-1.3.2-1.6.6c-.2.2-.3.5-.3,1h-1.3c0-1,.4-1.8,1-2.2.6-.4,1.4-.6,2.2-.6s1.8.2,2.4.6c.6.4.9,1,.9,1.7v4.8c0,.1,0,.3,0,.4,0,0,.2.1.4.1s.1,0,.2,0c0,0,.2,0,.3,0v1c-.2,0-.4.1-.5.1-.1,0-.3,0-.5,0-.5,0-.8-.2-1.1-.5-.1-.2-.2-.4-.2-.8-.3.4-.7.7-1.2,1s-1.1.4-1.8.4-1.4-.2-1.9-.7c-.5-.5-.7-1.1-.7-1.8s.2-1.4.7-1.8,1.1-.7,1.9-.8l2.2-.3"/>
          <path id="path56" class="cls-2" d="M181.4,18.6h1.3v1.2c.4-.5.8-.8,1.3-1.1.4-.2.9-.3,1.5-.3,1.2,0,2,.4,2.4,1.2.2.5.3,1.1.3,1.9v5.4h-1.4v-5.3c0-.5,0-.9-.2-1.2-.3-.5-.7-.8-1.4-.8s-.6,0-.8.1c-.4.1-.7.3-1,.7-.2.3-.4.6-.5.9,0,.3-.1.7-.1,1.3v4.4h-1.4v-8.4h0"/>
          <path id="path58" class="cls-2" d="M192.3,25.7c.3.2.6.4,1.1.4s1-.1,1.4-.3c.8-.4,1.2-1,1.2-1.9v-1.1c-.2.1-.4.2-.7.3-.3,0-.5.1-.8.2h-.8c-.5.2-.9.3-1.1.4-.4.2-.7.6-.7,1.2s.1.7.4,1h0ZM195.2,21.9c.3,0,.5-.2.6-.4,0-.1,0-.3,0-.5,0-.5-.2-.8-.5-1-.3-.2-.8-.3-1.5-.3s-1.3.2-1.6.6c-.2.2-.3.5-.3,1h-1.3c0-1,.4-1.8,1-2.2.6-.4,1.4-.6,2.2-.6s1.8.2,2.4.6c.6.4.9,1,.9,1.7v4.8c0,.1,0,.3,0,.4,0,0,.2.1.4.1s.1,0,.2,0c0,0,.2,0,.3,0v1c-.2,0-.4.1-.5.1-.1,0-.3,0-.5,0-.5,0-.8-.2-1.1-.5-.1-.2-.2-.4-.2-.8-.3.4-.7.7-1.2,1s-1.1.4-1.8.4-1.4-.2-1.9-.7c-.5-.5-.7-1.1-.7-1.8s.2-1.4.7-1.8,1.1-.7,1.9-.8l2.2-.3"/>
          <path id="path60" class="cls-2" d="M201.5,25.1c.4.6,1,.9,1.8.9s1.2-.3,1.6-.8c.4-.6.6-1.4.6-2.4s-.2-1.8-.6-2.3c-.4-.5-1-.8-1.6-.8s-1.3.3-1.7.8c-.4.5-.7,1.3-.7,2.4,0,.9.2,1.6.6,2.3ZM204.7,18.8c.2.2.5.4.8.8v-4.2h1.4v11.5h-1.3v-1.2c-.3.5-.7.9-1.2,1.1s-1,.3-1.5.3c-.9,0-1.7-.4-2.4-1.2-.7-.8-1-1.8-1-3.1s.3-2.3.9-3.2c.6-.9,1.5-1.3,2.7-1.3s1.2.1,1.6.4"/>
          <path id="path62" class="cls-2" d="M210.9,25.7c.3.2.6.4,1.1.4s1-.1,1.4-.3c.8-.4,1.2-1,1.2-1.9v-1.1c-.2.1-.4.2-.7.3-.3,0-.5.1-.8.2h-.8c-.5.2-.9.3-1.1.4-.4.2-.7.6-.7,1.2s.1.7.4,1h0ZM213.9,21.9c.3,0,.5-.2.6-.4,0-.1,0-.3,0-.5,0-.5-.2-.8-.5-1-.3-.2-.8-.3-1.5-.3s-1.3.2-1.6.6c-.2.2-.3.5-.3,1h-1.3c0-1,.4-1.8,1-2.2.6-.4,1.4-.6,2.2-.6s1.8.2,2.4.6c.6.4.9,1,.9,1.7v4.8c0,.1,0,.3,0,.4,0,0,.2.1.4.1s.1,0,.2,0c0,0,.2,0,.3,0v1c-.2,0-.4.1-.5.1-.1,0-.3,0-.5,0-.5,0-.8-.2-1.1-.5-.1-.2-.2-.4-.2-.8-.3.4-.7.7-1.2,1s-1.1.4-1.8.4-1.4-.2-1.9-.7c-.5-.5-.7-1.1-.7-1.8s.2-1.4.7-1.8,1.1-.7,1.9-.8l2.2-.3"/>
        </g>
      </g>
    </g>
  </g>
</svg>