<?xml version="1.0" encoding="UTF-8"?>
<svg id="Layer_1" xmlns="http://www.w3.org/2000/svg" version="1.1" viewBox="0 0 419.5695 470.5695">
  <!-- Generator: Adobe Illustrator 29.7.1, SVG Export Plug-In . SVG Version: 2.1.1 Build 8)  -->
  <defs>
    <style>
      .st0 {
        stroke: #8b519f;
      }

      .st0, .st1, .st2, .st3, .st4, .st5, .st6, .st7, .st8, .st9, .st10, .st11 {
        fill: none;
        stroke-miterlimit: 10;
      }

      .st0, .st1, .st2, .st4, .st6, .st7, .st8, .st9, .st10, .st11 {
        stroke-width: 7px;
      }

      .st1 {
        stroke: #8bcfcf;
      }

      .st2 {
        stroke: #2bace2;
      }

      .st3, .st5 {
        stroke: #919495;
        stroke-linecap: round;
      }

      .st4 {
        stroke: #f6cda0;
      }

      .st5 {
        stroke-dasharray: 2.6654 5.3318;
      }

      .st6 {
        stroke: #56174d;
      }

      .st7 {
        stroke: #f3bf1a;
      }

      .st8 {
        stroke: #cec12d;
      }

      .st9 {
        stroke: #9ca0d0;
      }

      .st10 {
        stroke: #3f70b7;
      }

      .st11 {
        stroke: #f04f47;
      }
    </style>
  </defs>
  <g>
    <path class="st3" d="M417.8392,284.6088c0,.4422-.0044.8839-.0132,1.3249"/>
    <path class="st5" d="M417.5051,291.2538c-6.1637,61.1234-96.8276,109.627-207.7673,109.627-112.5405,0-204.2158-49.9135-207.9812-112.2807"/>
    <path class="st3" d="M1.6495,285.9338c-.0088-.441-.0132-.8827-.0132-1.3249"/>
  </g>
  <path class="st4" d="M179.4491,60.1602c0,56.9494,32.4866,111.0505,32.4866,166.6434"/>
  <path class="st9" d="M250.0571,97.6211c-.6521,56.976-38.2753,107.8589-38.2753,165.3721"/>
  <path class="st7" d="M288.2394,139.8573c-2.3528,174.8136-61.9143,114.1662-76.755,198.9671"/>
  <path class="st8" d="M211.64,425.8079c0-106.2123,144.6995-40.2351,151.7969-173.0601"/>
  <path class="st6" d="M211.8322,325.7229c-.2647-91.3521,115.192-73.9678,115.192-126.9243v-16.0463"/>
  <path class="st11" d="M137.6795,96.5491c0,105.3417,73.9209,161.5826,73.9209,259.2524"/>
  <path class="st0" d="M211.7163,352.9047c0-152.5508-111.5467-46.8696-111.5467-187.7203v-6.5638"/>
  <path class="st10" d="M63.1918,191.117c0,163.2393,148.4085,49.2796,148.4085,183.6495"/>
  <path class="st1" d="M24.3708,239.4602c0,126.292,187.8594-28.0717,187.2692,187.6279"/>
  <line class="st2" x1="211.6301" y1="-.5338" x2="211.6301" y2="468.8091"/>
</svg>