<?xml version="1.0" encoding="UTF-8"?>
<svg id="Layer_1" xmlns="http://www.w3.org/2000/svg" version="1.1" viewBox="0 0 779.8415 699.4965">
  <!-- Generator: Adobe Illustrator 29.7.1, SVG Export Plug-In . SVG Version: 2.1.1 Build 8)  -->
  <defs>
    <style>
      .st0 {
        stroke: #cdc02e;
      }

      .st0, .st1, .st2, .st3, .st4, .st5, .st6, .st7, .st8, .st9, .st10, .st11 {
        fill: none;
        stroke-miterlimit: 10;
      }

      .st0, .st1, .st4, .st5, .st6, .st7, .st8, .st9, .st10, .st11 {
        stroke-width: 6.6558px;
      }

      .st1 {
        stroke: #8b519f;
      }

      .st2, .st3 {
        stroke: #929497;
        stroke-linecap: round;
        stroke-width: 1.0167px;
      }

      .st3 {
        stroke-dasharray: 4.443 8.8877;
      }

      .st4 {
        stroke: #f1be1a;
      }

      .st5 {
        stroke: #55164b;
      }

      .st6 {
        stroke: #f6cb9f;
      }

      .st7 {
        stroke: #f04f47;
      }

      .st8 {
        stroke: #3f70b7;
      }

      .st9 {
        stroke: #8bcdcc;
      }

      .st10 {
        stroke: #9b9ecf;
      }

      .st11 {
        stroke: #2da9e1;
      }
    </style>
  </defs>
  <g>
    <path class="st2" d="M439.9347,3.322c.7371,0,1.4733.0076,2.2084.0222"/>
    <path class="st3" d="M451.0111,3.8791c101.8842,10.2744,182.733,161.3987,182.733,346.3198,0,187.5911-83.2004,340.4023-187.1593,346.6763"/>
    <path class="st2" d="M442.1431,697.0535c-.7352.0146-1.4713.0222-2.2084.0222"/>
  </g>
  <path class="st6" d="M259.8105,381.8002c94.9269,0,185.106-61.9813,277.7719-61.9813"/>
  <path class="st10" d="M250.2875,257.4244c95.9822,0,151.0658,73.3446,249.2673,62.3945"/>
  <path class="st4" d="M150.023,193.6746c313.7176,0,206.0049,100.9072,350.2117,126.1443"/>
  <path class="st0" d="M583.3244,319.8189c-181.4924,0-61.4812-251.8186-305.9303-251.8186h-27.7389"/>
  <path class="st5" d="M542.7909,319.8678c-152.2714.4412-123.2523-190.7228-211.5236-190.7228h-18.579"/>
  <path class="st7" d="M122.5846,444.7569c175.5902,0,269.3362-124.9634,432.1383-124.9634"/>
  <path class="st1" d="M636.3653,319.7412c-254.2813,0-78.1252,187.5395-312.9041,187.5395h-10.9409"/>
  <path class="st8" d="M240.3504,568.9177c272.0976,0,82.503-249.0499,306.4793-249.0499"/>
  <path class="st9" d="M375.764,633.627c210.5115,0-46.4798-314.7918,313.0621-313.8081"/>
  <line class="st11" x1="-.9926" y1="319.8244" x2="781.3379" y2="319.8244"/>
</svg>