<?xml version="1.0" encoding="UTF-8"?>
<svg id="Layer_1" xmlns="http://www.w3.org/2000/svg" version="1.1" viewBox="0 0 32 32">
  <!-- Generator: Adobe Illustrator 29.7.1, SVG Export Plug-In . SVG Version: 2.1.1 Build 8)  -->
  <defs>
    <style>
      .st0 {
        fill: #fff;
      }
    </style>
  </defs>
  <g id="Layer_11" data-name="Layer_1">
    <path class="st0" d="M23,10.8c-.3-.8-.9-1.4-1.7-1.7-.5-.2-1.1-.3-1.7-.3h-7.2c-.6,0-1.1.1-1.7.3-.8.3-1.4.9-1.7,1.7-.2.5-.3,1.1-.3,1.7v7.2c0,.6.1,1.1.3,1.7.3.8.9,1.4,1.7,1.7.5.2,1.1.3,1.7.3h7.2c.6,0,1.1-.1,1.7-.3.8-.3,1.4-.9,1.7-1.7.2-.5.3-1.1.3-1.7v-7.2c0-.6-.1-1.1-.3-1.7ZM16,20.7c-2.5,0-4.6-2.1-4.6-4.6s2.1-4.6,4.6-4.6,4.6,2.1,4.6,4.6-2.1,4.6-4.6,4.6ZM20.8,12.4c-.6,0-1.1-.5-1.1-1.1s.5-1.1,1.1-1.1,1.1.5,1.1,1.1-.5,1.1-1.1,1.1Z"/>
    <path class="st0" d="M16,0C7.2,0,0,7.2,0,16s7.2,16,16,16,16-7.2,16-16S24.8,0,16,0ZM25,19.7c0,.7-.2,1.5-.4,2.2-.5,1.2-1.4,2.2-2.6,2.6-.7.3-1.4.4-2.2.4h-7.4c-.7,0-1.5-.2-2.2-.4-1.2-.5-2.2-1.4-2.6-2.6-.3-.7-.4-1.4-.5-2.1v-7.4c0-.7.2-1.5.4-2.2.5-1.2,1.4-2.2,2.6-2.6.7-.3,1.4-.4,2.2-.4h7.4c.7,0,1.5.2,2.2.4,1.2.5,2.2,1.4,2.6,2.6.3.7.4,1.4.4,2.2v7.4l.1-.1Z"/>
    <path class="st0" d="M16,13.1c-1.6,0-3,1.3-3,3s1.3,3,3,3h0c1.6,0,3-1.3,3-3s-1.3-3-3-3Z"/>
  </g>
</svg>