<?xml version="1.0" encoding="UTF-8"?>
<svg id="Layer_1" xmlns="http://www.w3.org/2000/svg" version="1.1" viewBox="0 0 349.3223 261.5868">
  <!-- Generator: Adobe Illustrator 29.7.1, SVG Export Plug-In . SVG Version: 2.1.1 Build 8)  -->
  <defs>
    <style>
      .st0 {
        stroke: #2a7a40;
      }

      .st0, .st1, .st2, .st3, .st4, .st5, .st6, .st7, .st8, .st9 {
        fill: none;
        stroke-linecap: round;
        stroke-miterlimit: 10;
        stroke-width: 7.1601px;
      }

      .st1 {
        stroke: #523686;
      }

      .st2 {
        stroke: #8dd1d0;
      }

      .st10 {
        fill: #cfc22d;
      }

      .st3 {
        stroke: #f4c01c;
      }

      .st4 {
        stroke: #f06825;
      }

      .st5 {
        stroke: #9da1d0;
      }

      .st6 {
        stroke: #f99c22;
      }

      .st7 {
        stroke: #4070b7;
      }

      .st11 {
        display: none;
        fill: #523686;
      }

      .st8 {
        stroke: #8c51a0;
      }

      .st12 {
        fill: #e867a3;
      }

      .st13 {
        fill: #f6cda1;
      }

      .st9 {
        stroke: #3d56a6;
      }
    </style>
  </defs>
  <g id="layer_1-lavender">
    <path class="st5" d="M352.2972,212.7046s-.0045-.0627-.009-.094c-1.8348-16.173-3.7904-27.4412-6.5247-41.2558-3.6159-18.5895-8.8025-33.6706-16.2446-41.1708-4.2469-4.2827-9.1426-6.4173-15.2824-5.9832-1.8706.1074-3.8486.4654-5.9295,1.1053-5.9295,1.7677-12.6018,5.6565-20.1647,11.9888-.0224.0179-.1029.085-.1208.1029s-.1074.0805-.1253.0985c-2.2241,1.6871-4.5064,3.3787-6.8469,5.0927-19.0728,12.4586-41.8107,13.6803-66.0165,10.5612h0c-.631-.0805-1.2664-.1656-1.9019-.2551-25.7586-3.5443-53.0522-11.765-79.1867-17.068"/>
  </g>
  <g id="layer_2-light_orange">
    <path class="st6" d="M147.3785,137.1696h0c76.5198,2.7969,62.0856-119.3983,136.8974-37.9756.0053.0053.0186.0186.0268.0268,24.5985,27.3612,51.2703,48.9231,67.9945,54.5424"/>
  </g>
  <path class="st2" d="M157.6622,137.1763c132.5552-10.2738,100.4751-185.5848,177.9613-61.0782,5.4534,7.7101,11.0289,14.441,16.6737,20.2117"/>
  <path class="st8" d="M352.2972,203.9244c-4.081-3.7317-8.1524-7.1763-12.2384-9.7968-1.5841-1.0203-3.18-1.9174-4.7827-2.6507-3.8609-1.8041-7.6472-2.6384-11.431-2.1384-.4944.0636-.9871.1502-1.4784.2601-4.3566.9887-8.8051,3.8123-13.3978,9.3158-.5129.6874-1.0224,1.3857-1.5285,2.0951-.0153.0241-.0888.1198-.1041.1439-.0154.0242-.0799.1266-.0953.1508-9.0373,14.3329-16.5291,24.3792-22.936,30.934-6.6142,6.7663-12.0939,9.8407-16.9628,10.1092-3.9516.2199-7.511-1.4426-11.1745-4.7814-1.3409-1.1888-2.6566-2.577-3.9524-4.1213-3.012-3.5726-5.995-8.0224-9.1425-13.0357-1.1904-1.8962-2.4058-3.8732-3.6591-5.9147-.0006-.0011-.0035-.0066-.0042-.0076-18.1432-29.5586-43.7992-72.6539-107.7207-77.8116"/>
  <path class="st7" d="M352.2972,262.9352c-17.4289-32.4679-25.0029-90.3077-44.0121-122.3826-30.7523-49.8647-73.0784-16.1161-115.0925,26.41-15.8467,17.2363-34.6195,36.0743-50.7531,34.2002-32.8747-6.9615-34.7909-67.0396-92.1905-65.1612"/>
  <path class="st9" d="M50.3563,137.1919c76.0768,2.6145,62.036-117.2065,135.0287-39.9195,1.9791,2.7739,3.9901,5.6142,6.037,8.5254,43.6961,83.0619,108.2029,195.3806,131.9964,97.3964,7.3714-28.819,11.7887-69.5635,13.7777-107.5154,2.11-40.2735,5.6789-80.0213,15.1012-95.3126"/>
  <path class="st0" d="M50.3474,137.1942c45.3694-12.754,148.2613,22.0027,138.7742-58.7859-20.6562-175.9007,132.741,133.1689,163.1756,148.6971"/>
  <path class="st3" d="M50.3407,137.1919c.0007.0002.0036.0004.0043.0005,26.0154,6.6452,54.6394,10.4445,79.7955,18.0274,23.8915,7.2014,44.5819,17.8059,56.9458,37.5045,1.2753,2.2907,2.5124,4.5482,3.7096,6.7782.0121.0234.0644.1183.0765.1417.0122.0236.0581.1233.0703.1469,4.369,9.1592,8.9427,15.603,13.7207,19.7065,1.5475,1.3495,3.1206,2.4257,4.6893,3.2714,5.4678,2.9479,10.837,3.0708,16.5165.9085,13.1321-4.9987,27.0049-21.9056,41.1798-43.7283,13.7869-21.2243,27.8674-47.1067,41.8365-71.2034.8036-1.3859,1.6106-2.7707,2.4205-4.1524,14.0549-23.9801,27.7365-45.7947,40.9911-58.9169"/>
  <g id="layer_9-orange">
    <path id="Orange_path" class="st4" d="M352.2972,185.42c-17.7616-24.8054-38.7677-35.5322-60.5211-33.326-21.4715,2.1749-43.6948,17.7571-64.2533,47.2659-.4967.7473-.989,1.4902-1.4813,2.2331-.0089.0134-.0358.0537-.0448.0671s-.0358.0537-.0448.0671c-9.0621,14.3785-16.5712,24.4519-22.993,31.0168-5.7997,5.934-10.6194,8.9054-14.7857,9.7109-1.4455.2775-2.8551.264-4.2692.0403-2.4926-.3893-4.8823-1.5215-7.3302-3.3429s-4.6228-4.0321-6.8245-6.7708c-2.3315-2.882-4.6451-6.2472-7.0304-9.9615-1.7766-2.7701-3.6024-5.7326-5.5133-8.8338-18.151-29.4505-43.9275-71.3239-106.8517-76.4032"/>
  </g>
  <g id="layer_10-pink">
    <path id="path6794-9" class="st12" d="M50.0766,133.858l.537,6.6724c67.5738-5.4507,94.044-52.9627,112.1144-82.355,4.5198-7.3481,8.5653-13.5685,12.4005-17.6497s7.0751-5.8579,10.682-5.6565c3.6069.2014,8.4311,2.6403,14.7544,9.1068,6.3233,6.4665,13.9936,16.7726,23.3376,31.706l.0985.1566.1164.1432c5.4193,6.8424,11.1295,10.6686,17.0501,11.7516,5.9205,1.083,11.6576-.631,16.9472-3.6069,10.5702-5.9563,20.2363-17.0098,30.0189-25.6422,4.8913-4.314,9.7646-8.0104,14.4724-10.2166,4.7078-2.2062,9.1113-2.967,13.7161-1.7677,9.2008,2.4076,23.5434,20.9478,35.9752,50.1388v-18.2181c-13.027-25.2037-21.8026-31.7105-34.2926-38.3963-5.7818-3.0923-12.566-.4744-18.2449,2.1838-5.6789,2.6582-10.955,6.7484-16.0656,11.2593-10.2211,9.0218-19.9499,19.8023-28.8733,24.8278-4.4617,2.515-8.4937,3.5801-12.4497,2.8551-3.9381-.7205-8.1984-3.2892-12.942-9.25-9.4156-15.0184-17.2067-25.5796-24.076-32.6055-6.9051-7.0662-13.0404-10.7715-19.1713-11.1116-6.1309-.3401-11.4115,2.9491-15.9313,7.7598s-8.6638,11.3085-13.2239,18.7282c-18.2405,29.6698-42.3075,73.9732-106.9501,79.1867h0Z"/>
  </g>
  <g id="layer_11-dark_purple">
    <path class="st11" d="M337.0774,225.0245c-13.0046,23.2257-42.2985,36.6241-71.23,32.5831-8.3192-1.1635-14.7678-3.5174-19.7172-7.2049-7.9701-5.934-12.1096-15.2377-15.1034-23.5524-6.4307-17.869-9.9973-36.5525-10.5925-55.5314-.443-14.1144.7473-32.2878,6.8335-50.5416-10.2927-15.8284-29.2536-26.7163-49.1588-27.7232-12.0559-.6086-22.8677,2.3628-30.444,8.3639-.716.5683-3.3653,3.0073-6.4352,5.831-27.213,25.0426-37.4162,33.0306-41.9942,32.865l.2416-6.7529c-.1835-.0045-.2864.0179-.2864.0179,4.8018-1.0427,29.3834-23.6643,37.461-31.1019,3.8799-3.5711,5.9474-5.4686,6.82-6.1577,8.8651-7.0214,21.288-10.5075,34.9818-9.8139,20.6615,1.0427,39.8328,11.2101,51.6873,26.7744,3.0923-7.4689,7.0841-14.8528,12.2036-21.8832,17.8914-24.5593,46.9258-38.45,73.9687-35.389,7.3257.8279,20.5496,3.8665,26.7834,14.8662,2.6895,4.7481,3.495,10.1047,3.495,15.1929,0,3.0207-.2819,5.9474-.6265,8.5922-1.2127,9.4066-3.4592,19.2831-6.8603,30.1934-2.7746,8.901-6.8648,20.4064-13.8996,30.4709-7.2049,10.3106-16.7995,17.7482-27.0116,20.9434-6.5918,2.063-14.1547,2.6672-23.1183,1.8482-5.3298-.4878-13.1791-1.6245-19.7978-5.8131-10.9863-6.9588-15.1661-19.2429-19.2071-31.1198-1.3336-3.9202-2.703-7.9522-4.3095-11.7024-4.1216,15.175-4.9405,29.992-4.5691,41.8242.5728,18.2718,4.0052,36.2572,10.1987,53.4549,2.6537,7.3705,6.2472,15.5599,12.7764,20.4198,4.0186,2.9894,9.4514,4.9315,16.616,5.9295,26.2374,3.6651,52.721-8.3371,64.3965-29.191M242.4651,138.803c3.8307,11.2683,7.451,21.9056,16.4236,27.5889,5.3835,3.41,12.1678,4.3677,16.7995,4.7928,8.0552.7384,14.7544.2282,20.478-1.5663,8.7935-2.7522,17.1396-9.2769,23.4942-18.3658,6.5023-9.3037,10.3554-20.1782,12.9867-28.6137,3.2847-10.5344,5.4462-20.035,6.6097-29.0478.8324-6.4352,1.2396-13.7922-2.0451-19.5875-4.757-8.3953-15.6136-10.7984-21.6639-11.4831-24.6712-2.7969-51.2621,10.0197-67.7439,32.6502-5.7639,7.912-10.0108,16.3341-13.0986,24.8054"/>
    <path class="st1" d="M352.4314,188.8747c-23.4718,59.9617-58.2522,70.6303-86.1186,65.3855-7.6793-1.4455-13.6848-3.231-18.1644-6.5694-7.2541-5.4014-11.1161-14.1458-13.9399-21.9861-6.3099-17.5334-9.8094-35.8678-10.3956-54.4931-.4072-12.9733.5997-29.4685,5.7013-46.1829l2.8506-8.3147c.0224-.0537.1029-.2909.1253-.3491,3.0789-7.9164,7.178-15.7613,12.5839-23.1809,16.889-23.1854,44.0393-36.4764,69.5071-34.1404.9129.0805,1.8751.1924,2.8641.3356,6.7842.989,17.605,3.956,22.7066,12.9598,2.4076,4.2469,3.1012,9.1247,3.061,13.8593-.0224,2.7074-.2819,5.3656-.5997,7.8269-1.1904,9.2097-3.3921,18.8983-6.735,29.6206-2.703,8.6682-6.6724,19.8604-13.4432,29.5401-6.5023,9.3037-15.0184,16.1014-24.0804,19.2518-.7518.264-1.5171.5012-2.2912.716-5.4238,1.5215-11.5949,2.0227-18.764,1.526-1.168-.0805-2.4076-.188-3.7009-.3401-4.0679-.4788-9.2187-1.4141-13.8772-3.768-1.6961-.8547-3.2892-1.884-4.7839-3.061-7.2452-5.7281-10.9774-14.4545-14.2755-23.6732-.4923-1.3067-2.4434-6.2696-2.8909-7.5897-.6668-1.9601-3.589-9.4022-4.3901-11.2817l-.3267-.6892-4.3453-7.357c-10.87-15.3809-29.3968-25.7854-49.2439-27.1638-.8189-.0582-1.6334-.0985-2.4479-.1253-12.3736-.3849-23.5032,2.8372-31.4464,9.1292-.7921.6265-3.1505,2.7969-6.6276,5.9966-17.6453,16.2401-35.0399,31.5449-39.7298,31.9834"/>
  </g>
  <g id="layer_12-beige">
    <path class="st13" d="M190.0976,173.1851c1.8572,1.1904,3.7143,2.3942,5.576,3.6069,13.7161,8.9099,27.8977,18.1241,44.2541,21.6997,16.4146,3.589,32.9769,1.1904,51.374-2.0585,18.0391-3.1863,59.5008-11.2459,60.9954-11.5368v-6.9409c-.1522.0313-43.8559,8.5877-62.1724,11.8232-17.6766,3.1191-33.5452,5.4328-48.7561,2.1122-15.1526-3.3116-28.8061-12.1857-42.0121-20.7644-1.8706-1.2172-3.7412-2.43-5.6118-3.6293-14.1055-9.0307-41.9942-25.4543-70.3886-33.6034l-1.9511,6.471c20.4914,5.7639,44.8538,17.5558,68.6971,32.8248l-.0045-.0045Z"/>
  </g>
  <g id="layer_13-pale_green">
    <path class="st10" d="M194.2953,127.7764c.9979-.6757,1.9914-1.3515,2.9804-2.0093,11.237-7.4958,22.6574-13.2373,33.948-17.068,11.8053-4.0097,24.5414-6.3054,36.8613-8.525,19.1668-3.4548,38.9825-7.0214,56.216-17.1217,11.1877-6.556,20.3885-15.3854,27.9961-24.9262v-11.3533c-9.4603,13.6848-19.762,23.6195-31.4151,30.4485-16.1953,9.4917-34.5566,12.7988-53.9964,16.3027-12.5616,2.2644-25.5527,4.6049-37.8369,8.7757-11.8411,4.0231-23.794,10.0242-35.5232,17.8466-1.0024.6668-2.0093,1.3515-3.0207,2.0362-8.5161,5.7684-17.3231,11.7382-26.8595,11.5278l-.1477,6.7574c11.6889.2551,21.4043-6.3233,30.7976-12.6869v-.0045Z"/>
  </g>
</svg>