<?xml version="1.0" encoding="UTF-8"?>
<svg id="Layer_1" xmlns="http://www.w3.org/2000/svg" version="1.1" viewBox="0 0 32 32">
  <!-- Generator: Adobe Illustrator 29.7.1, SVG Export Plug-In . SVG Version: 2.1.1 Build 8)  -->
  <defs>
    <style>
      .st0 {
        fill: #fff;
      }
    </style>
  </defs>
  <g id="Layer_11" data-name="Layer_1">
    <path class="st0" d="M16,0C7.2,0,0,7.2,0,16s7.2,16,16,16,16-7.2,16-16S24.8,0,16,0ZM12.6,22h-3.4v-10.3h3.4v10.3ZM10.9,10.3h0c-1.2,0-1.9-.8-1.9-1.8s.8-1.8,1.9-1.8,1.9.8,1.9,1.8-.7,1.8-1.9,1.8ZM25,22h-3.4v-5.5c0-1.4-.5-2.3-1.7-2.3s-1.5.6-1.8,1.3c0,.2-.1.5-.1.8v5.8h-3.4v-10.3h3.4v1.5c.5-.7,1.3-1.7,3.1-1.7s3.9,1.5,3.9,4.6v5.9-.1Z"/>
  </g>
</svg>