<?xml version="1.0" encoding="UTF-8"?>
<svg id="Layer_1" xmlns="http://www.w3.org/2000/svg" version="1.1" viewBox="0 0 2215.5281 367.868">
  <!-- Generator: Adobe Illustrator 29.7.1, SVG Export Plug-In . SVG Version: 2.1.1 Build 8)  -->
  <defs>
    <style>
      .st0 {
        fill: #ee6925;
      }

      .st1 {
        fill: #cdc02e;
      }

      .st2 {
        fill: #9b9ecf;
      }

      .st3 {
        fill: #3e55a2;
      }

      .st4 {
        fill: #8bcdcc;
      }

      .st5 {
        fill: #f1be1a;
      }

      .st6 {
        fill: #8b519f;
      }

      .st7 {
        fill: #e666a0;
      }

      .st8 {
        fill: #2da9e1;
      }

      .st9 {
        fill: #eaaa70;
      }

      .st10 {
        fill: #55164b;
      }
    </style>
  </defs>
  <path class="st6" d="M1804.3338,197.5169c-110.691,10.4883-217.1232,28.0107-316.3433,52.0811-5.3671,1.3027-10.7386,2.6279-16.1234,3.9561-40.1137,9.8955-78.0018,19.2422-119.569,20.8984-53.903,2.1523-112.8745-8.998-180.2484-34.0781-12.0925-4.502-24.2934-9.291-36.0928-13.9219-43.0649-16.9033-87.5944-34.3828-142.7087-44.623-50.5138-9.3857-105.3173-11.6016-147.4176-12.4844-148.4916-3.1064-267.3339,10.1865-353.2203,39.5264-25.5566,8.7305-48.1035,18.8926-69.908,28.7207-23.8134,10.7344-46.306,20.8721-72.2874,29.252-62.8961,20.2842-124.2657,19.2471-157.1871,9.2207-16.7827-5.1123-29.7258-12.9639-41.5451-20.5674C88.4126,214.793,9.8566,122.6539,9.8566,122.6539c-6.5417-1.7083-13.4555,15.5765-3.045,36.2387,0,0,7.947,22.2516,20.2249,34.0699,21.4903,20.6858,61.6936,53.8497,91.0234,72.7184,13.3624,8.5977,29.5045,18.3438,52.0093,25.1982,22.1906,6.7598,48.7141,10.2158,77.8159,10.2158,9.024,0,18.2958-.332,27.7634-1.002,33.688-2.3809,68.7831-9.0273,98.823-18.7158,28.7015-9.2559,53.4396-20.4072,77.3647-31.1904,21.799-9.8262,42.3901-19.1074,65.7311-27.0811,77.9996-26.6436,187.7979-38.6816,326.3297-35.7803,38.7387.8115,88.924,2.8057,133.5309,11.0938,48.8866,9.084,88.9826,24.8223,131.4325,41.4844,11.9952,4.708,24.3996,9.5771,36.9003,14.2305,76.1302,28.3398,144.9022,40.8438,210.2053,38.2461,50.2129-2.002,93.7203-12.7344,135.7919-23.1133,5.3029-1.3076,10.5903-2.6123,15.8734-3.8936,95.7446-23.2285,198.449-40.1367,305.2596-50.2568l-8.5572-17.5996Z"/>
  <path class="st2" d="M1640.408,238.7853c-12.2567-.0484-23.9882-.4106-35.3238-1.0912-1.7471.2302-3.4823.46-5.2041.6895,10.4853,1.6463,20.5006,2.9872,30.0815,4.0281,7.3627-1.2887,14.581-2.5107,21.6716-3.6693-3.7424.041-7.4838.0582-11.2253.0429Z"/>
  <path class="st2" d="M1490.4945,251.6377c-3.2722.722-6.5684,1.4533-9.89,2.1945-23.4001,5.222-46.1978,5.128-71.7295-.5149-24.4807-.8227-51.2752-2.8084-81.4258-6.0817,11.913,5.1419,23.9735,9.7967,36.3584,13.7785,21.9192,7.0468,42.6913,11.2733,63.5047,12.9207,23.9455,1.8956,47.7446.2556,70.733-4.8743,27.8286-6.2102,53.5872-11.6733,77.7247-16.4797-10.88-1.8559-22.1511-3.9846-33.8495-6.3943-17.3387,2.2192-34.0851,4.1119-51.4259,5.4512Z"/>
  <path class="st2" d="M753.0626,271.5365c-11.8381,3.9542-24.5523,6.8995-38.4728,8.5358-.3487.041-.7028.0756-1.0528.1149-26.5209,2.9817-56.9032,1.2396-92.0913-5.3253-12.6765,3.82-25.207,7.5056-37.599,11.0579,37.8075,8.5235,72.0675,12.7527,103.5115,12.7525,12.8452,0,25.2233-.7053,37.1792-2.1107,10.2107-1.2002,20.1083-2.9216,29.7446-5.1748,12.8743-3.0104,25.2809-6.9728,37.3363-11.9277,8.3073-3.4144,16.4484-7.2984,24.4616-11.6658,7.068-3.8523,13.8622-7.9792,20.4484-12.2837-14.7386-.349-28.8476-1.4442-42.512-2.9936-12.6991,7.5412-26.1393,14.0721-40.9536,19.0205Z"/>
  <path class="st2" d="M817.8255,236.8288c-.2085.1493-.4172.2981-.6257.447.5149.0418,1.0302.0829,1.546.1229-.3071-.1892-.6134-.3801-.9203-.5699Z"/>
  <path class="st2" d="M1053.7977,129.9578c-40.9364,2.0278-77.2292,9.8278-110.404,23.7609,9.7337,3.4708,19.6586,7.1929,29.8503,11.1442,23.8673-9.6239,51.4082-16.2904,84.8654-17.9479,24.5119-1.2128,48.3361,2.2419,71.624,8.6596,13.8819-3.225,27.7009-5.8795,41.5594-7.9948-40.4359-13.7605-78.9618-19.5319-117.4952-17.622Z"/>
  <path class="st2" d="M533.9787,254.9537c-6.1157,1.9444-12.1236,3.8186-18.0315,5.6263,7.6303,4.981,15.366,9.8001,23.2218,14.4269,2.1423.4906,4.2914.9922,6.449,1.5073,12.019-3.3675,24.1626-6.8623,36.4407-10.485-.5804-.15-1.1554-.2949-1.738-.4471-15.543-4.0587-30.9482-7.5924-46.342-10.6284Z"/>
  <path class="st2" d="M885.7323,185.8083c10.033-1.2341,19.9636-2.2022,29.894-2.9051,7.7647-.5496,15.577-.9389,23.4865-1.1707,2.5451-1.4916,5.1278-2.955,7.7536-4.3849-10.1843-3.9408-20.0468-7.6261-29.6549-11.0259-11.2158,6.1062-21.6095,12.6797-31.4792,19.4865Z"/>
  <path class="st2" d="M1233.1215,173.6266c-8.9774-4.3832-18.0729-8.6229-27.307-12.6245-13.7112,1.4307-27.5014,3.4702-41.5359,6.208,11.674,4.5902,23.2262,9.7373,34.6777,15.2117,6.6068,3.1584,13.1801,6.4247,19.7234,9.7576,11.1948-2.6829,22.4524-5.6269,33.771-8.8422-6.3869-3.2871-12.8271-6.5361-19.3292-9.7106Z"/>
  <path class="st2" d="M854.5022,208.9219c-2.3428,1.8147-4.673,3.6275-6.9954,5.4343-1.5851,1.2333-3.1666,2.4633-4.746,3.6897-1.1378.8833-2.2744,1.7643-3.4104,2.6428,8.2013,5.2562,16.4595,10.3216,24.8245,15.1594,5.4792-4.1499,10.8632-8.3331,16.1973-12.4827.2521-.1961.5045-.3925.7565-.5884,6.2589-4.8696,12.548-9.7617,18.9623-14.5888,3.3429-2.5158,6.7211-5.013,10.146-7.4808-11.1781,1.0588-22.5154,2.5146-34.1924,4.3825-7.0435,1.1267-14.2127,2.4047-21.5423,3.8321Z"/>
  <path class="st2" d="M1290.422,203.3383c-2.4925-1.322-4.9929-2.6503-7.5042-3.9847-1.7943-.9535-3.5927-1.9088-5.3938-2.865-10.3621,2.9987-20.7479,5.804-31.1349,8.4084-.7507.1883-1.5046.3701-2.2564.5565,3.0218,1.601,6.0384,3.2037,9.0497,4.8039,2.2153,1.1772,4.4228,2.3501,6.6246,3.5183,6.0165,3.1923,11.9865,6.347,17.9321,9.4419,4.048.5773,8.0252,1.1334,11.9337,1.6687.3897.0533.7796.1068,1.168.1597,3.6483-.3453,7.3166-.714,11.0108-1.1127,7.4162-.8005,14.7858-1.6929,22.1003-2.6651.1942-.0837.389-.1673.5835-.251-2.96-1.4756-5.9264-2.9743-8.9018-4.4956-8.3249-4.2567-16.7172-8.6782-25.2117-13.1834Z"/>
  <path class="st9" d="M1940.0611,217.9624c-.1903.004-.3808.0074-.5712.0115,1.2397-.0045,2.4799-.0092,3.7166-.013.104-.0027.2092-.005.3132-.0077-1.1561.0027-2.3092.0058-3.4586.0092Z"/>
  <path class="st9" d="M1940.0611,217.9624c1.1494-.0034,2.3025-.0064,3.4586-.0092,1.1256-.0291,2.2598-.0547,3.4012-.0778-.4679-.0043-.9358-.0084-1.4031-.0131-1.8207.0282-3.6396.0615-5.4567.1Z"/>
  <path class="st9" d="M1945.5178,217.8624c.4673.0047.9352.0088,1.4031.0131.8999-.0181,1.8029-.0351,2.7128-.0494-.2217-.0047-.4433-.0092-.6651-.0141-1.1514.0137-2.3009.0326-3.4507.0505Z"/>
  <path class="st8" d="M1678.3144,152.0496c-15.4039-1.3741-30.3096-1.7854-44.8069-1.2374,2.6651.7664,5.3452,1.5389,8.0487,2.3185,69.1702,19.9443,154.2019,44.4616,290.3551,47.4395,4.938.0392,9.9114.0688,14.9263.0871-53.3353-1.7415-102.5502-13.9142-150.2599-25.7166-40.1267-9.9263-78.0278-19.3022-118.2634-22.8911Z"/>
  <path class="st8" d="M1090.9423,211.1045c-16.0995-2.4503-31.108-4.5536-45.2656-6.2996-4.9439,2.1057-9.9495,4.2952-15.0207,6.571,1.3.5361,2.6044,1.0739,3.9156,1.6141,1.7965.7402,3.6113,1.4638,5.4351,2.1792,18.0269-.4205,36.2533-1.3864,54.6753-2.968-1.2529-.3592-2.4985-.7257-3.7396-1.0968Z"/>
  <path class="st8" d="M1353.4404,232.4121c3.521.336,6.9754.6493,10.3704.9423,22.8205-3.6983,46.0953-8.2286,69.666-13.5634-10.8033-2.5302-20.6638-4.4357-29.6743-5.8393-16.8983,4.5853-33.7785,11.3581-50.3621,18.4604Z"/>
  <path class="st8" d="M370.2292,214.9223c-50.5283-2.2166-91.4457-15.8751-134.7654-30.3355-18.106-6.0439-36.4612-12.1701-55.7272-17.4226-17.4073,2.308-34.1951,4.9032-50.4701,7.4849,28.3015,5.3302,55.083,14.2688,82.881,23.548,45.6775,15.2475,92.9101,31.0141,154.2595,33.7052,20.3298.8916,40.7407.2854,61.6598-1.8463-6.6896-5.1836-13.3119-10.429-19.8758-15.7141-13.002.9281-25.6445,1.1205-37.9619.5804Z"/>
  <path class="st8" d="M1583.2016,156.9158c-11.9123,2.5049-23.5885,5.7527-35.0827,9.7552-4.5851,1.5966-9.3678,3.2313-14.3348,4.893-12.0508,4.0315-25.194,8.2231-39.2593,12.4219-3.6681,1.095-7.3997,2.1904-11.1906,3.2837-5.5902,1.6122-11.3082,3.2195-17.1495,4.8134-8.3702,2.2839-16.9881,4.5399-25.8273,6.7428-2.4868.6198-4.9919,1.235-7.5131,1.8457,12.1692,2.3696,24.8088,5.3379,38.0495,8.9288.7028.1906,1.3997.378,2.0996.567,5.4143-1.4111,10.8253-2.8614,16.2309-4.3457,6.1379-1.6854,12.2676-3.4207,18.3871-5.1985,8.4621-2.4583,16.9032-5.0011,25.3125-7.6308,2.7462-.8588,5.4895-1.7251,8.2284-2.6017,10.362-3.3162,20.6716-6.7576,30.9085-10.3223,2.5297-.881,5.0597-1.709,7.5919-2.4948,14.7386-4.5735,29.5612-7.5395,44.9423-8.9521-1.3993-.4031-2.7935-.8051-4.1791-1.2046-12.8531-3.7061-25.2005-7.265-37.2143-10.501Z"/>
  <path class="st8" d="M567.0452,174.2044c-8.6811,3.4584-17.217,6.6921-25.6174,9.708-10.9813,3.9426-21.729,7.5103-32.2532,10.7014-21.8194,6.6161-42.6833,11.6222-62.7057,15.0429,6.3442,5.0699,12.7339,10.0891,19.1792,15.0362,1.2948-.2357,2.5915-.4752,3.8919-.722,23.177-4.3977,46.8718-10.4828,71.5711-18.3998,10.2015-3.27,20.5745-6.8527,31.1532-10.7584,6.8055-2.5126,13.6957-5.158,20.6806-7.9408,13.9905-5.5736,27.3582-10.6159,40.1859-15.1506-11.9607-3.192-23.6282-6.3499-34.9574-9.4232-10.1029,3.695-20.4667,7.6587-31.1283,11.9062Z"/>
  <path class="st8" d="M125.4913,155.8699c-2.2821.7906-4.578,1.5733-6.9002,2.3409,3.6534-.5779,7.3617-1.1593,11.1111-1.7406-1.3971-.2075-2.8009-.4075-4.2109-.6002Z"/>
  <path class="st8" d="M1290.841,225.0461c6.4272.8765,12.6682,1.6965,18.7357,2.4626,1.2275-.5324,2.4614-1.0685,3.7089-1.6118,3.5376-1.5407,7.0914-3.0881,10.6665-4.6286-7.3145.9722-14.684,1.8646-22.1003,2.6651-3.6942.3987-7.3625.7674-11.0108,1.1127Z"/>
  <path class="st8" d="M943.3937,153.7188c-41.6169-14.8391-79.7582-25.0836-120.4864-28.9778-35.8995-3.4328-72.2825-1.7682-112.096,5.5598-11.3187,2.0833-22.9165,4.6266-34.8577,7.6388-14.5512,3.6705-29.6154,8.0404-45.3141,13.1334,11.8057,3.1934,23.7795,6.4116,35.9169,9.6165,10.3959-3.1644,20.4247-5.9457,30.1411-8.3604,12.1845-3.0281,23.8732-5.4742,35.1631-7.3589,29.8054-4.976,56.8338-6.0406,82.8636-3.5522,33.0829,3.1633,65.9576,11.9778,102.4873,24.9038,9.6082,3.3998,19.4707,7.0851,29.6549,11.0259,3.4829,1.3477,7.0046,2.726,10.5658,4.1325,20.5494.0323,41.9922,1.0999,65.1848,3.2251-17.2847-7.1046-33.6483-13.746-49.373-19.8423-10.1918-3.9513-20.1166-7.6734-29.8503-11.1442Z"/>
  <path class="st8" d="M1959.7399,217.7472c-1.2345,0-2.4673.006-3.7004.0111-2.1627.0122-4.2987.0345-6.4058.0677,3.381.0712,6.7496.1089,10.1061.1089,1.3846,0,2.7339-.0656,4.0358-.1877h-4.0358Z"/>
  <path class="st8" d="M1218.1473,232.2015c-9.3387-1.4947-18.9417-3.0733-28.8209-4.7367-13.3301-.7638-26.2348-1.9929-38.7018-3.6898-.374-.0509-.7469-.1029-1.1201-.1547-3.6102.497-7.2215.9783-10.8336,1.4313-17.0459,2.1376-34.3576,3.8148-51.813,5.0235,4.7044,1.185,9.4726,2.306,14.3099,3.3556,8.0169.4434,16.0074,1.1866,23.9857,2.2386,12.3036,1.6222,24.5789,3.9724,36.8791,7.0511,1.8404.1735,3.6856.3413,5.5401.4983,7.6731.6494,15.4749,1.1574,23.3981,1.5251,10.3567.4807,20.921.7213,31.6796.7212,6.8988,0,13.8783-.1004,20.9317-.2979,8.1932-.2294,16.4899-.5952,24.8791-1.0908,2.7841-.9718,5.6093-2.004,8.4813-3.0916-6.1072-.8381-12.3373-1.7187-18.703-2.6449-12.8117-1.8641-26.16-3.9085-40.0921-6.1384Z"/>
  <path class="st9" d="M1949.6337,217.8261c2.1072-.0332,4.2432-.0555,6.4058-.0677-2.3595.0098-4.7172.0256-7.071.0536.2218.005.4434.0095.6651.0141Z"/>
  <path class="st3" d="M369.7566,146.0994c7.9109,6.5699,15.7568,13.1494,23.5295,19.668.5971.5008,1.1944,1.0017,1.7918,1.5026,35.5535,5.5393,73.4563,14.2897,114.0968,27.3439,10.5242-3.1912,21.2719-6.7588,32.2532-10.7014-57.9736-19.3526-114.9082-31.8714-171.6713-37.8131Z"/>
  <path class="st3" d="M661.4451,232.9681c-12.6661-6.0946-25.2589-11.8745-37.7868-17.3423-17.2472-7.5276-34.3711-14.4621-51.3939-20.813-10.5787,3.9057-20.9517,7.4884-31.1532,10.7584,12.8236,4.6756,25.9112,9.778,39.2722,15.3354,9.947,4.1374,20.0456,8.5272,30.301,13.1832,9.7846,4.4422,19.7128,9.1282,29.7861,14.065.8369-.2648,1.6687-.525,2.5069-.791,10.031-3.1824,19.7423-6.2396,29.1725-9.1782-3.5741-1.7639-7.1424-3.5034-10.7048-5.2175Z"/>
  <path class="st3" d="M1348.7234,211.041c-8.2147,3.1873-16.2557,6.5621-24.1879,9.9763-.1945.0837-.3893.1672-.5835.251-3.575,1.5406-7.1289,3.0879-10.6665,4.6286-1.2475.5433-2.4814,1.0794-3.7089,1.6118-4.3587,1.8906-8.5953,3.7117-12.7209,5.4514-6.9194,2.9176-13.533,5.6085-19.9133,8.0247-2.8719,1.0875-5.6971,2.1198-8.4813,3.0916-15.4835,5.4043-29.7139,8.947-43.8367,9.8775-11.1353,5.0686-22.9904,10.2349-35.8276,15.2368,9.325,1.4266,18.783,2.1411,28.3541,2.1408,14.5381-.0005,29.3392-1.6477,44.3181-4.9448,20.8002-4.5781,40.3868-11.948,59.3135-19.8899.8454-.3548,1.6897-.7105,2.5325-1.0674,5.7606-2.4389,11.4625-4.9214,17.1202-7.3855,1.321-.5753,2.6445-1.1517,3.9702-1.728,2.1705-.9438,4.3471-1.8874,6.5291-2.8274.8345-.3595,1.6697-.7183,2.5059-1.0764,16.5836-7.1024,33.4638-13.8752,50.3621-18.4604-7.2964-1.1366-14.0344-1.9438-20.2655-2.4879-13.9739-1.2202-25.3927-1.1154-34.8136-.4228Z"/>
  <path class="st3" d="M698.1406,250.9729c-10.2203,3.1772-20.8052,6.5062-31.7902,9.9899,16.0288,7.6163,31.679,13.9931,47.1865,19.2245.35-.0393.7041-.0739,1.0528-.1149,13.9205-1.6364,26.6347-4.5816,38.4728-8.5358-17.7869-4.9646-36.0477-11.8063-54.922-20.5637Z"/>
  <path class="st3" d="M1513.6821,202.6074c-2.0169-.6925-4.041-1.3528-6.0707-1.9843-6.1195,1.7778-12.2492,3.5131-18.3871,5.1985-5.4057,1.4843-10.8166,2.9347-16.2309,4.3457,25.9903,7.0194,49.9545,12.9387,72.1255,17.7957,6.1406-.8222,12.4098-1.6797,18.864-2.5628,12.2042-1.6698,24.9148-3.4085,38.5036-5.1578-19.7049-1.5257-38.9973-4.3088-57.9774-8.7683-10.3627-2.4348-20.633-5.3666-30.8269-8.8668Z"/>
  <path class="st3" d="M1411.2084,193.5313c-3.6697.5578-7.3427,1.2024-11.015,1.9417-.1504.0303-.2993.0628-.4496.0934,10.6914,1.1885,21.6886,2.8831,33.1005,5.1052,2.5211-.6107,5.0263-1.226,7.5131-1.8457,8.8392-2.2029,17.4571-4.4589,25.8273-6.7428-3.7251-.3867-7.4561-.6733-11.189-.8583-14.3628-.7127-29.0474.0659-43.7872,2.3066Z"/>
  <path class="st3" d="M1125.1536,235.6693c-7.9783-1.0519-15.9688-1.7951-23.9857-2.2386-7.6182-.4214-15.2609-.5678-22.9396-.4423-9.4359.1541-18.9261.7147-28.4955,1.6901-38.8721,3.9624-73.5016,14.0764-106.9905,23.8574-6.7483,1.9709-13.4307,3.9213-20.0788,5.8057-11.7019,3.3169-23.2959,6.4227-34.9421,9.056-19.837,4.4854-39.8286,7.5981-60.7776,8.0222-11.6267.2345-23.3865-.4165-35.3255-1.9607-12.0554,4.9548-24.462,8.9173-37.3363,11.9277,22.5906,4.7945,44.863,7.1478,67.6613,7.1476,2.2499,0,4.5097-.0231,6.7707-.0687,33.0775-.6694,62.7931-6.2015,90.9447-13.3217,12.275-3.1046,24.2529-6.5107,36.0818-9.948,2.7851-.8093,5.5622-1.6202,8.3327-2.4294,23.0836-6.7418,45.031-13.1513,67.3052-17.429,20.4404-3.9255,41.1564-6.0547,63.2779-4.9977,18.2702.8731,37.4996,3.9204,58.3248,9.925,10.3749-3.7724,20.1196-7.7302,29.4667-11.7712-6.8186-2.1477-13.6208-4.0729-20.4151-5.7734-12.3002-3.0787-24.5755-5.4289-36.8791-7.0511Z"/>
  <path class="st3" d="M1888.1433,218.3095c-29.5975.4841-56.5675,1.2637-81.2992,2.2724-91.0564,3.714-151.7916,10.5304-201.7598,17.1122,11.3356.6806,23.0671,1.0428,35.3238,1.0912,3.7414.0153,7.4829-.0019,11.2253-.0429,38.9102-.4261,77.9504-3.7821,118.5024-7.7548,7.703-.7547,15.4592-1.5309,23.2807-2.314,47.3001-4.7353,96.0208-9.6105,146.0736-10.6997-8.5063.0309-17.0871.0786-25.7679.1377-8.4234.0573-16.942.125-25.5788.1979Z"/>
  <path class="st9" d="M1939.4899,217.9739c.1904-.0041.3809-.0075.5712-.0115-8.9708.0265-17.739.074-26.339.1492,8.6808-.059,17.2616-.1067,25.7679-.1377Z"/>
  <path class="st9" d="M1948.9685,217.8119c2.3537-.028,4.7114-.0438,7.071-.0536,1.2252-.0069,2.4573-.0111,3.7005-.0111-4.2854,0-8.519.0061-12.7112.0171.6471.0171,1.2937.0331,1.9398.0476Z"/>
  <path class="st10" d="M270.9953,103.0358c-12.4109.1611-24.7839.4329-37.1096.7808-17.4595.4928-34.8226,1.1378-52.0593,1.8414-11.4149.4659-22.7756.9564-34.0706,1.4446-44.8585,1.9387-137.8992,4.2854-137.8992,4.2854-10.5152.2993-10.3562,16.6702,0,17.0671,0,0,92.0582-2.2283,136.2441-4.1357,1.8092-.0781,3.6169-.1562,5.4224-.2343,16.837-.7278,33.5571-1.4505,50.2038-2.0839,30.7066-1.1684,61.163-2.0322,91.6409-2.0641-7.4236-5.7755-14.8724-11.4191-22.3724-16.9014Z"/>
  <path class="st10" d="M881.1286,222.7769c-.2519.196-.5044.3923-.7565.5884,15.4291,1.9488,30.621,3.5723,45.6376,4.8835,13.748-3.5706,28.1059-8.2126,43.2108-14.1318-23.4197-1.2167-46.4665-3.2497-69.1296-5.929-6.4143,4.8271-12.7034,9.7192-18.9623,14.5888Z"/>
  <path class="st10" d="M730.9978,176.9928c-21.9619-5.2584-43.4474-10.7596-64.4414-16.3033-12.1374-3.205-24.1111-6.4231-35.9169-9.6165-6.1613-1.6666-12.2795-3.3267-18.3494-4.9739-12.8938-3.4992-25.0727-6.8043-37.2424-10.055-36.7697-9.8214-73.4023-17.2138-111.9916-22.5988-34.5041-4.8149-69.8026-7.9033-107.9116-9.4415-13.1253-.5298-26.2362-.8548-39.3201-1.0143,7.5805,5.731,15.119,11.6056,22.6094,17.569,70.2792,2.1068,141.3789,9.9921,216.6014,30.0848,12.0529,3.2195,24.1749,6.5092,37.0095,9.9922,2.0301.5509,4.076,1.106,6.1287,1.6629,11.3292,3.0733,22.9967,6.2312,34.9574,9.4232,37.0709,9.8934,76.9367,20.1071,118.1391,29.0942,6.1506,1.3416,12.2499,2.6381,18.3009,3.8902-12.6461-8.8985-25.1186-17.9484-37.4521-26.8994-.3734-.2711-.7473-.5424-1.121-.8136Z"/>
  <path class="st10" d="M1308.9171,165.1515c-18.9862,6.8446-37.8097,12.8858-56.4664,18.1857-11.3186,3.2153-22.5762,6.1593-33.771,8.8422-19.8492,4.757-39.5024,8.6987-58.9541,11.9007,7.2742,1.2379,14.7133,2.5186,22.3417,3.8431,1.3625.2366,2.7135.47,4.0637.7031,8.6822,1.4995,17.1098,2.9283,25.2951,4.2889,10.9807-2.2906,21.8918-4.7801,32.7067-7.4617.7518-.1864,1.5057-.3683,2.2564-.5565,10.387-2.6044,20.7727-5.4097,31.1349-8.4084,15.0838-4.3651,30.1171-9.1402,45.0301-14.3029,11.3704-3.9362,22.671-8.0975,33.8705-12.4745,1.9293-.7539,3.8454-1.4906,5.7515-2.2136,1.3232-.5019,2.6416-.9972,3.9538-1.4843-15.9332-1.9572-31.2886-3.6227-46.2437-4.8978-3.6626,1.3758-7.3188,2.7199-10.9693,4.0359Z"/>
  <path class="st10" d="M832.8191,216.4574c3.3268.5441,6.6402,1.0732,9.9417,1.5885,1.5794-1.2263,3.1608-2.4564,4.746-3.6897,2.3224-1.8069,4.6526-3.6196,6.9954-5.4343-8.1333,1.5839-16.4678,3.3544-25.0557,5.3145,1.1236.7435,2.2476,1.4842,3.3726,2.221Z"/>
  <path class="st10" d="M808.3331,199.8698c4.9912-1.1586,9.9086-2.2587,14.7655-3.3044-8.9752-1.6313-17.8819-3.3404-26.7202-5.1151,3.9911,2.8369,7.9742,5.6452,11.9547,8.4195Z"/>
  <path class="st10" d="M1115.9883,215.047c-6.5498-1.0612-12.9243-2.0728-19.1378-3.0349-.7232.0639-1.4462.1272-2.1686.1892-18.4219,1.5816-36.6484,2.5475-54.6753,2.968-6.0973.1422-12.1718.2222-18.223.2422-13.466,6.196-26.6708,11.6124-39.7744,16.3043,12.5689.4525,25.0502.6808,37.3936.6808,4.9767,0,9.9325-.037,14.8609-.1108,16.587-.2489,33.1532-.926,49.5998-2.0134.998-.066,1.9972-.1282,2.9944-.1973,17.4554-1.2087,34.7671-2.886,51.813-5.0235,3.6121-.453,7.2234-.9343,10.8336-1.4313.6957-.0958,1.3917-.1884,2.0872-.2859,2.4781-.347,4.9555-.7021,7.4316-1.0696-1.2256-.2112-2.4455-.4209-3.6599-.6294-13.8176-2.3719-26.9135-4.5695-39.3751-6.5885Z"/>
  <path class="st10" d="M1949.6338,217.826c-.9101.0143-1.813.0313-2.7129.0494,4.2508.0385,8.5221.0594,12.819.0594-3.3565,0-6.7252-.0377-10.1061-.1089Z"/>
  <path class="st10" d="M1633.5075,150.8122c-45.57-13.1054-85.8455-24.0991-132.0676-26.2137-26.6647-1.2209-52.9199.6473-80.2665,5.7083-20.5273,3.7993-41.6479,9.3986-63.9973,16.9832,15.5431,1.7288,31.4724,3.756,47.962,5.9957,33.4203-9.2682,63.4917-13.0344,92.3159-11.7143,28.2278,1.2915,55.957,7.3203,85.7476,15.3445,12.0138,3.236,24.3612,6.7949,37.2143,10.501,1.3856.3995,2.7798.8015,4.1791,1.2046,25.1656,7.2512,52.5681,15.0574,83.7514,22.2755,31.2032,2.5324,64.3583,4.704,99.7661,6.3541,38.4719,1.7929,79.6071,2.9684,123.7988,3.3191-136.1532-2.9778-221.1849-27.4952-290.3551-47.4395-2.7035-.7796-5.3837-1.5521-8.0487-2.3185Z"/>
  <path class="st0" d="M1150.6247,223.775c.322-.1464.6452-.2946.9671-.4405-.6955.0974-1.3915.1901-2.0872.2859.3733.0517.7461.1038,1.1201.1547Z"/>
  <path class="st0" d="M1946.9209,217.8755c-1.1414.023-2.2756.0487-3.4012.0778-.104.0027-.2093.005-.3133.0077,5.5388-.0168,11.0475-.0261,16.5335-.0261-4.2969,0-8.5682-.0209-12.819-.0594Z"/>
  <path class="st0" d="M1083.8636,230.2725c-1.8697.9001-3.7486,1.806-5.6352,2.716,7.6787-.1255,15.3214.021,22.9396.4423-4.8373-1.0496-9.6055-2.1706-14.3099-3.3556-.9971.0691-1.9963.1313-2.9944.1973Z"/>
  <path class="st0" d="M1362.1762,167.4976c-1.9061.723-3.8223,1.4597-5.7515,2.2136-11.1995,4.377-22.5001,8.5383-33.8705,12.4745,25.2011.4846,51.7474,3.7425,80.945,9.7893,2.5487.5278,5.123,1.0446,7.7092,1.5562,14.7398-2.2407,29.4244-3.0193,43.7872-2.3066,3.7329.1851,7.4639.4716,11.189.8583,5.8413-1.5938,11.5593-3.2012,17.1495-4.8134-21.7981-2.9711-43.0026-6.5151-63.4164-10.7428-20.0332-4.149-39.1805-7.1465-57.7415-9.0292Z"/>
  <path class="st0" d="M1252.4507,183.3372c18.6567-5.2999,37.4801-11.3411,56.4664-18.1857-25.9765.4142-50.9043,3.1997-75.7956,8.4751,6.5021,3.1746,12.9423,6.4235,19.3292,9.7106Z"/>
  <path class="st0" d="M1145.9702,201.7587c4.5168.7551,9.1033,1.5297,13.7555,2.3214,19.4517-3.202,39.1049-7.1437,58.9541-11.9007-6.5433-3.3329-13.1166-6.5993-19.7234-9.7576-18.1284,5.4759-35.5657,12.0095-52.9862,19.3369Z"/>
  <path class="st0" d="M494.8904,246.268c-9.8958-6.982-19.6312-14.1979-29.2422-21.575-6.4454-4.9472-12.835-9.9663-19.1792-15.0362-17.3954-13.9015-34.4515-28.1816-51.3911-42.3869-.5973-.5009-1.1946-1.0019-1.7918-1.5026-7.7727-6.5185-15.6186-13.098-23.5295-19.668-10.3348-8.5829-20.7812-17.1487-31.3226-25.541-7.4905-5.9634-15.0289-11.838-22.6094-17.569-3.278-2.4781-6.5632-4.9309-9.8564-7.3505-8.3041-6.1012-16.3767-11.8022-24.2844-17.1482-9.1548,4.1526-17.8614,8.6166-26.4801,13.3103,5.2949,3.6599,10.556,7.4078,15.7916,11.2348,7.5,5.4823,14.9488,11.1259,22.3724,16.9014,9.4731,7.3698,18.9062,14.9536,28.3539,22.6919,7.4914,6.136,14.9926,12.3687,22.5306,18.6675,4.9239,4.1144,9.8633,8.2563,14.8266,12.4187,16.1187,13.5176,32.4307,27.1953,49.1122,40.6267,6.5639,5.285,13.1862,10.5305,19.8758,15.7141,5.6139,4.3501,11.2759,8.6554,16.9925,12.9019,5.8283,4.3295,11.7117,8.5994,17.6602,12.7903,8.9053-2.5055,18.0869-5.196,27.5493-8.0692,1.5331-.4656,3.0733-.9358,4.6215-1.411Z"/>
  <path class="st0" d="M1031.3783,255.3376c-17.4704,8.1281-35.9315,16.3751-55.6271,24.4461-10.1157,4.1453-20.5586,8.2431-31.3618,12.2545-8.332,3.0938-16.8711,6.1376-25.6478,9.1094-79.1329,26.7928-148.817,36.7939-213.0431,30.5737-51.0422-4.9435-96.414-20.0599-138.1648-41.1789-8.3144-4.2057-16.4853-8.6494-24.5287-13.2984-1.2817-.7409-2.5608-1.4859-3.8361-2.2371-7.8557-4.6268-15.5914-9.4459-23.2218-14.4269-6.7917,2.078-13.452,4.0687-19.9807,5.9692-4.1204,1.1995-8.1851,2.3609-12.2048,3.4908,7.369,4.8162,14.8385,9.4987,22.4277,14.0102,1.2406.7375,2.4792,1.4654,3.717,2.1889,8.1439,4.7603,16.2313,9.2206,24.2969,13.3967,19.6584,10.1786,39.1887,18.6735,59.1005,25.7223,33.4093,11.827,68.4366,19.5755,104.1098,23.0305,14.8477,1.438,30.006,2.1563,45.4071,2.1563,22.8426,0,46.2184-1.5803,69.895-4.7351,41.1772-5.487,84.7653-15.9581,129.5531-31.1228,14.8138-5.0157,28.9381-10.1988,42.4719-15.472,12.4101-4.8353,24.3196-9.7463,35.7872-14.6773,26.8435-11.5427,51.2815-23.1879,74.1282-34.1977-22.1216-1.057-42.8375,1.0721-63.2779,4.9977Z"/>
  <path class="st0" d="M1827.6889,201.7497c-21.3501.1541-42.9973.2582-64.7919.2294-52.347-.0692-105.5353-.9089-157.4661-3.6694-24.5235-1.3036-48.7671-3.0343-72.507-5.3174-8.4094,2.6298-16.8504,5.1725-25.3125,7.6308,2.0297.6315,4.0539,1.2917,6.0707,1.9843,10.1939,3.5002,20.4642,6.432,30.8269,8.8668,27.231,2.281,56.1115,4.0181,86.7948,5.2327,23.2363-2.7001,49.2043-5.3306,79.3331-7.6716,1.3855-.1077,2.7806-.2122,4.1727-.3177,20.7288-1.5713,42.2086-2.9082,64.5482-4.0138,16.8829-.8355,34.2585-1.5388,52.1696-2.1119,18.2657-.5845,37.0908-1.0335,56.5239-1.3485-6.5393.0551-13.14.1129-19.8229.1716-13.3643.1175-26.8918.2361-40.5394.3347Z"/>
  <path class="st1" d="M623.6583,215.6258c12.5279,5.4679,25.1208,11.2478,37.7868,17.3423,6.8727.498,13.7715,1.2173,20.7505,2.0993,13.8891-4.293,27.1494-8.3134,39.8664-12.0656-22.8446-3.7554-46.3886-6.9471-71.0206-7.6657-9.2863-.2701-18.4033-.1724-27.3832.2897Z"/>
  <path class="st1" d="M1946.8377,200.6572c-5.0149-.0183-9.9883-.0479-14.9263-.0871-44.1917-.3507-85.3269-1.5262-123.7988-3.3191-35.4078-1.6501-68.5629-3.8217-99.7661-6.3541-46.9615-3.8113-89.5145-8.4364-128.6937-13.3235-2.5322.7858-5.0622,1.6139-7.5919,2.4948-10.2369,3.5647-20.5465,7.0062-30.9085,10.3223,20.4063,2.6979,41.7743,5.366,64.2786,7.9191,51.9308,2.7606,105.1191,3.6002,157.4661,3.6694,21.7946.0288,43.4418-.0753,64.7919-.2294,13.6476-.0985,27.1751-.2172,40.5394-.3347,6.6828-.0587,13.2836-.1165,19.8229-.1716,16.9678-.275,34.3972-.4485,52.3257-.5204,2.5881-.0104,5.1893-.0182,7.7981-.0244,3.835-.0091,7.6845-.0153,11.5649-.0153-4.3323,0-8.6266-.0105-12.9022-.0261Z"/>
  <path class="st1" d="M842.6595,251.414c-8.0563-4.4651-16.0249-9.1549-23.9137-14.0154-.5157-.04-1.0311-.081-1.546-.1229-17.2818-1.4054-34.0945-3.8757-50.9243-6.6827-12.4849,3.5381-25.5517,7.3806-39.3092,11.5368,1.4737.2572,2.9531.5157,4.4423.7761,20.2625,3.5426,40.8768,7.1461,62.6077,9.6101,13.6644,1.5494,27.7733,2.6446,42.512,2.9936,3.2864.0778,6.6004.1227,9.9518.1226,1.2957,0,2.5985-.008,3.9049-.0204-.1878-.0999-.3751-.1985-.5631-.2988-2.3955-1.2784-4.7823-2.58-7.1623-3.8991Z"/>
  <path class="st1" d="M1405.138,153.2856c-16.4896-2.2397-32.4189-4.2669-47.962-5.9957-43.7829-4.8698-84.4987-7.3675-126.0155-5.5389-20.2367.8915-40.0926,2.8104-59.8677,5.8288-13.8586,2.1153-27.6775,4.7698-41.5594,7.9948-30.9387,7.1875-62.193,17.2004-94.9012,30.3302-1.5598.6262-3.1224,1.2581-4.6889,1.8985-9.1207,3.7283-18.3572,7.6969-27.735,11.9147-.4335.195-.8687.3926-1.3028.5887-2.2835,1.0312-4.5735,2.0741-6.8741,3.1347-8.5675,3.9497-16.8962,7.4959-25.0107,10.6758-15.1049,5.9192-29.4628,10.5612-43.2108,14.1318-20.6963,5.3752-40.0125,8.3255-58.4195,9.5574,3.9792,2.2633,7.9827,4.477,12.019,6.6311,5.4006,2.8821,10.7613,5.6018,16.0879,8.1655,13.9954-1.7577,27.8789-4.2904,41.8831-7.6336,14.8361-3.5415,29.5676-7.9323,44.4289-13.2536,13.1035-4.6919,26.3084-10.1083,39.7744-16.3043.1231-.0567.2459-.1122.3692-.169,2.8559-1.3167,5.6886-2.6035,8.5032-3.8665,5.0712-2.2758,10.0768-4.4654,15.0207-6.571,4.3077-1.8346,8.5684-3.6051,12.7858-5.314,7.0809-2.8691,14.0387-5.5627,20.8877-8.0893,30.0048-11.0685,57.9206-18.923,84.9285-24.1917,14.0345-2.7378,27.8247-4.7773,41.5359-6.208,37.4794-3.9108,74.3723-3.2716,114.0719.1135,14.9551,1.2752,30.3104,2.9407,46.2437,4.8978,27.0074,3.3174,55.6787,7.4746,86.9014,12.0024,13.4072,1.9443,27.2167,3.9466,41.4933,5.9702,14.0653-4.1989,27.2086-8.3904,39.2593-12.4219-24.0666-3.2898-46.8674-6.5953-68.6875-9.7597-20.9214-3.0339-40.8168-5.9189-59.9584-8.5188Z"/>
  <path class="st1" d="M580.3835,220.9066c-12.9272,2.5303-25.6499,5.9034-38.2641,10.1427-16.4821,5.5392-32.2072,10.6069-47.229,15.2186-1.5482.4753-3.0885.9455-4.6215,1.411-9.4623,2.8732-18.644,5.5637-27.5493,8.0692-5.7336,1.6132-11.3526,3.1495-16.8632,4.612-54.5316,14.4725-98.2983,21.6028-134.3019,22.0574-34.6903.4351-60.3995-5.3629-87.0515-13.9472-5.9594.6176-11.9734,1.2462-18.0497,1.8813-9.9804,1.0432-20.0909,2.0996-30.3521,3.1488,18.7564,6.6347,36.803,12.8426,57.2015,17.6042,24.1767,5.6437,48.6434,8.3999,74.6521,8.3996,1.5615,0,3.1319-.01,4.7049-.03,31.4402-.3969,66.0755-4.7074,105.885-13.1778,20.2743-4.3141,41.915-9.7064,65.217-16.2565,4.0196-1.1299,8.0844-2.2913,12.2048-3.4908,6.5286-1.9005,13.189-3.8912,19.9807-5.9692,5.9079-1.8076,11.9158-3.6818,18.0315-5.6263,10.2178-3.2487,20.7291-6.6884,31.5576-10.3276,15.8249-5.3184,30.7165-8.67,45.1481-10.5363-10.2554-4.656-20.354-9.0458-30.301-13.1832Z"/>
  <path class="st7" d="M1947.0288,217.7643c-2.5218.0067-5.0283.0151-7.517.0256-17.9645.0759-35.0648.253-51.3684.5196,8.6367-.0729,17.1554-.1406,25.5788-.1979,8.6001-.0752,17.3682-.1227,26.339-.1492,1.8171-.0385,3.6359-.0717,5.4567-.1,1.1499-.0179,2.2994-.0368,3.4508-.0505-.6461-.0145-1.2927-.0305-1.9398-.0476Z"/>
  <path class="st7" d="M1247.7566,218.7536c10.4152,1.6113,20.3984,3.0972,29.9827,4.4641-5.9456-3.0949-11.9157-6.2496-17.9321-9.4419-4.0528,1.6031-8.0638,3.2666-12.0505,4.9778Z"/>
  <path class="st7" d="M1190.9708,244.7437c-2.8078,1.256-5.6471,2.5068-8.5231,3.7501-9.3471,4.041-19.0918,7.9987-29.4667,11.7712-7.1989,2.6176-14.6979,5.1468-22.5839,7.5506-39.3537,11.996-75.4976,17.5111-109.8691,16.722-11.4675,4.9309-23.377,9.842-35.7872,14.6773,2.7709.326,5.5527.6223,8.3486.8854,11.1138,1.0457,22.4076,1.5682,33.8181,1.5682,14.1397,0,28.4576-.8024,42.833-2.4057,26.7054-2.9782,54.5038-8.8344,82.6228-17.4059,13.0332-3.9729,25.114-8.2557,36.4335-12.6663,12.8372-5.002,24.6923-10.1683,35.8276-15.2368,6.5494-2.9811,12.8503-5.9275,18.9576-8.7867-7.0534.1975-14.0329.2979-20.9317.2979-10.7586.0001-21.3229-.2405-31.6796-.7212Z"/>
  <path class="st7" d="M919.6587,285.1441c8.2465,2.6178,16.4738,4.9133,24.7308,6.8942,10.8032-4.0114,21.2461-8.1092,31.3618-12.2545-6.6495-1.2718-13.3163-2.7999-20.0108-4.5877-11.8289,3.4374-23.8068,6.8434-36.0818,9.948Z"/>
  <path class="st7" d="M895.6972,252.603c-5.3266-2.5637-10.6873-5.2834-16.0879-8.1655-4.0363-2.1541-8.0398-4.3678-12.019-6.6311-1.1404-.6486-2.2791-1.3011-3.4154-1.9583-8.365-4.8378-16.6232-9.9032-24.8245-15.1594-2.1807-1.3976-4.3576-2.8076-6.5313-4.2313-1.125-.7368-2.249-1.4774-3.3726-2.221-7.0529-4.6673-14.0797-9.4646-21.1134-14.3667-3.9805-2.7742-7.9636-5.5826-11.9547-8.4195-10.3209-7.3362-20.6966-14.8652-31.2324-22.5114-10.9895-7.9756-22.0591-16.0085-33.2854-23.9687-11.2899,1.8848-22.9786,4.3308-35.1631,7.3589,11.5656,8.1718,22.9772,16.4462,34.3003,24.6636.3737.2712.7476.5425,1.121.8136,12.3336,8.951,24.8061,18.001,37.4521,26.8994,1.6819,1.1836,3.3662,2.365,5.0544,3.5424,6.9431,4.8429,13.9408,9.6285,20.9976,14.3187,7.3339,4.8745,14.7326,9.6432,22.2026,14.2618.3068.1898.6132.3806.9203.5699,7.8888,4.8605,15.8574,9.5502,23.9137,14.0154,2.38,1.3191,4.7668,2.6206,7.1623,3.8991.188.1003.3753.1989.5631.2988,12.6787,6.7459,25.0522,12.6436,37.3365,17.7857,11.6462-2.6333,23.2402-5.7391,34.9421-9.056-8.9039-3.4572-17.8849-7.3677-26.9662-11.7386Z"/>
  <path class="st7" d="M596.4675,66.0825c-35.3816-14.7635-70.582-24.4148-107.6131-29.5053-41.772-5.7426-85.9437-5.4311-131.2915.9236-41.2447,5.7802-71.891,15.2596-98.1027,26.6393-9.3721,4.0688-18.1768,8.3811-26.6966,12.8537-11.3339,5.95-22.164,12.1838-33.151,18.5095-5.8717,3.3806-11.7661,6.7732-17.7862,10.1548,17.2366-.7035,34.5997-1.3486,52.0593-1.8414,7.1821-4.1306,14.221-8.1506,21.3179-12.0157,8.6187-4.6938,17.3253-9.1577,26.4801-13.3103,23.9509-10.8641,50.9765-19.5967,87.5773-24.7259,72.221-10.1218,135.9795-2.2671,200.6515,24.7182,37.8769,15.8046,72.7301,36.8369,106.0411,59.4566,11.9412-3.0122,23.539-5.5555,34.8577-7.6388-35.3857-24.1637-72.7343-46.8562-114.3438-64.2183Z"/>
  <path class="st7" d="M1793.4164,228.6736c-7.8215.7831-15.5777,1.5593-23.2807,2.314-28.3547,7.9334-55.3079,14.1395-92.6855,14.1759-14.5922.016-30.3488-.8896-47.4885-2.7518-9.581-1.041-19.5962-2.3819-30.0815-4.0281-3.9954-.6273-8.0586-1.2986-12.193-2.0151-4.148-.7189-8.3661-1.4823-12.6585-2.2916-9.5958-1.8094-19.5574-3.8459-29.9098-6.1138-22.1709-4.8571-46.1352-10.7763-72.1255-17.7957-.6999-.189-1.3967-.3764-2.0996-.567-13.2407-3.5909-25.8803-6.5592-38.0495-8.9288-11.4119-2.2222-22.4092-3.9167-33.1005-5.1052-3.925-.4364-7.8095-.8056-11.6573-1.1063-24.4189-1.9082-46.9885-1.0883-68.9972,2.5057-10.0577,1.6425-19.5544,3.8079-28.6672,6.3725,8.4945,4.5052,16.8868,8.9267,25.2117,13.1834,5.5076-1.4158,11.1113-2.6119,16.8674-3.5519,4.641-.7578,9.9968-1.4711,16.2222-1.9288,9.4209-.6926,20.8397-.7974,34.8136.4228,6.2311.5441,12.9691,1.3513,20.2655,2.4879,9.0106,1.4036,18.871,3.3091,29.6743,5.8393,5.4805,1.2836,11.2023,2.7269,17.1804,4.3483,13.4966,3.6605,26.5199,7.0454,39.1002,10.1601,13.504,3.3433,26.4941,6.3731,39.0126,9.0993,4.4421.9674,8.8261,1.8973,13.1504,2.788,11.6984,2.4096,22.9696,4.5384,33.8495,6.3943,38.1511,6.5078,71.4727,9.6473,101.3492,9.6468.1363,0,.2804,0,.4169-.0002,55.1332-.0539,92.3084-10.749,128.2598-21.0919,36.8325-10.5963,74.8212-21.5249,137.4106-23.1745-1.2365.0038-2.4768.0085-3.7164.013-50.0528,1.0892-98.7735,5.9644-146.0736,10.6997Z"/>
  <path class="st4" d="M722.062,223.0018c-12.717,3.7523-25.9773,7.7727-39.8664,12.0656-3.3117,1.0236-6.6612,2.0634-10.0458,3.1182-9.4302,2.9387-19.1415,5.9958-29.1725,9.1782-.8382.266-1.67.5262-2.5069.791-19.8246,6.2726-39.2834,12.2303-58.4117,17.8744-12.2781,3.6227-24.4217,7.1175-36.4407,10.485-.8721.2444-1.7423.4867-2.613.7298,8.0434,4.649,16.2143,9.0927,24.5287,13.2984,5.411-1.5148,10.8491-3.0563,16.3128-4.6225,12.3921-3.5522,24.9226-7.2379,37.599-11.0579,14.5019-4.3701,29.1937-8.9151,44.0927-13.6419.2723-.0864.5402-.1711.8121-.2573,10.985-3.4837,21.5699-6.8127,31.7902-9.9899,9.9423-3.0907,19.5421-6.0385,28.8256-8.843,13.7576-4.1561,26.8243-7.9987,39.3092-11.5368,10.1495-2.8762,19.9143-5.5508,29.3475-8.0261-7.0567-4.6902-14.0544-9.4759-20.9976-14.3187-16.5475,4.3575-33.9762,9.2692-52.5634,14.7535Z"/>
  <path class="st4" d="M1489.7574,234.2993c-36.0877,3.0642-73.7998,3.5545-125.9465-.945-3.3951-.293-6.8494-.6063-10.3704-.9423-.8361.3581-1.6713.7169-2.5059,1.0764-2.182.94-4.3586,1.8835-6.5291,2.8274-1.3257.5764-2.6492,1.1527-3.9702,1.728-5.6577,2.4641-11.3596,4.9466-17.1202,7.3855-.8428.3568-1.687.7126-2.5325,1.0674,2.2398.253,4.463.4998,6.6666.739,30.1505,3.2733,56.945,5.2591,81.4258,6.0817,3.4387.1155,6.8343.2095,10.1844.2795,5.5645.1161,10.9692.1721,16.253.1721,19.8023-.0002,37.7928-.7883,55.1821-2.1313,17.3409-1.3393,34.0873-3.2319,51.4259-5.4512-4.3243-.8907-8.7083-1.8206-13.1504-2.788-12.5185-2.7262-25.5087-5.756-39.0126-9.0993Z"/>
  <path class="st4" d="M1022.617,184.7053c-23.1926-2.1252-44.6354-3.1929-65.1848-3.2251-6.1795-.0097-12.2781.0753-18.3194.2524-7.9095.2318-15.7217.6211-23.4865,1.1707-9.9304.7029-19.861,1.671-29.894,2.9051-20.1758,2.4817-40.7719,6.0501-62.6337,10.7571-4.8569,1.0457-9.7743,2.1458-14.7655,3.3044,7.0336,4.9021,14.0605,9.6994,21.1134,14.3667,8.5879-1.9602,16.9224-3.7307,25.0557-5.3145,7.3297-1.4274,14.4989-2.7054,21.5423-3.8321,11.677-1.8679,23.0143-3.3237,34.1924-4.3825,3.8528-.3649,7.6875-.6851,11.5096-.9556,25.3428-1.7935,50.8559-1.5683,79.3588.555.4342-.1961.8693-.3937,1.3028-.5887,9.3778-4.2178,18.6143-8.1864,27.735-11.9147,1.5665-.6404,3.1291-1.2723,4.6889-1.8985-.0337-.0035-.0678-.0073-.1015-.0108-4.0927-.4277-8.1285-.8235-12.1137-1.1887Z"/>
  <path class="st4" d="M1289.673,224.8863c-3.9085-.5353-7.8857-1.0914-11.9337-1.6687-9.5843-1.3669-19.5674-2.8527-29.9827-4.4641-11.5618-1.7886-23.6552-3.7315-36.3305-5.8384-8.1854-1.3606-16.6129-2.7894-25.2951-4.2889-1.3501-.2332-2.7012-.4666-4.0637-.7031-7.6283-1.3246-15.0675-2.6053-22.3417-3.8431-4.6522-.7917-9.2387-1.5663-13.7555-2.3214-23.8627-3.9892-45.8862-7.4612-66.62-10.357-6.849,2.5266-13.8068,5.2202-20.8877,8.0893-4.2174,1.7089-8.4781,3.4794-12.7858,5.314,14.1576,1.7461,29.1661,3.8493,45.2656,6.2996,1.9522.2971,3.9233.6002,5.9083.9075,6.2134.9621,12.5879,1.9737,19.1378,3.0349,12.4616,2.019,25.5575,4.2166,39.3751,6.5885,1.2144.2085,2.4343.4182,3.6599.6294,2.9342.5055,5.8929,1.0169,8.8927,1.5378,7.2808,1.2643,14.4134,2.484,21.4104,3.6621,9.8792,1.6634,19.4821,3.242,28.8209,4.7367,13.9321,2.2298,27.2805,4.2743,40.0921,6.1384,6.3657.9262,12.5957,1.8069,18.703,2.6449,6.3803-2.4162,12.994-5.1071,19.9133-8.0247,4.1257-1.7397,8.3622-3.5609,12.7209-5.4514-6.0675-.7661-12.3086-1.5861-18.7357-2.4626-.3884-.0529-.7783-.1064-1.168-.1597Z"/>
  <polygon class="st4" points="2172.5085 218.1919 2166.1861 236.7331 2212.2646 209.7865 2166.1861 182.8399 2172.4222 201.128 2172.5085 218.1919"/>
  <path class="st0" d="M210.4175,37.6591C172.6256,20.0891,134.857,9.1451,94.9538,4.2017,72.8664,1.4655,49.976.6222,26.9152,1.6946c-5.6391.2623-17.0586,1.1443-17.0586,1.1443-14.1708,1.8817-10.833,17.6168,0,17.4854,0,0,95.4979-8.4513,172.5273,29.084,17.2338,8.3978,34.0941,17.3698,50.3798,27.5855,8.5197-4.4727,17.3244-8.7849,26.6965-12.8537-16.6307-10.2151-32.7612-18.9114-49.0427-26.481Z"/>
  <path class="st7" d="M151.523,124.0852c-1.8055.0781-3.6132.1562-5.4224.2343-21.5781,10.2422-46.3782,19.9432-77.6887,28.3814-17.3327,4.6711-58.5554,12.7272-58.5554,12.7272-10.833,1.7691-11.5483,20.1267,0,18.1744,0,0,47.7765-8.5153,69.2363-13.9424,13.7891-3.4872,26.9413-7.2989,39.4982-11.4493,2.3223-.7675,4.6181-1.5502,6.9002-2.3408.8171-.2831,1.6387-.5635,2.4507-.8495,29.6971-10.4616,52.9324-21.7027,73.7849-33.0191-16.6467.6334-33.3668,1.3561-50.2038,2.0839Z"/>
  <path class="st4" d="M509.9066,286.239c-180.1836,47.6403-360.4462,70.6134-500.05,60.1738-10.5946-.7657-11.8913,14.5867-.343,15.4462,0,0,38.9059,2.5233,58.0288,2.5233.7326,0,1.4729-.0005,2.2055-.0016,95.8662-.1199,189.3417-8.3329,285.7678-25.1082,56.9866-9.9139,116.1376-23.0233,178.6877-39.6369-8.0656-4.176-16.153-8.6364-24.2969-13.3967Z"/>
  <path class="st2" d="M445.0594,242.958c-20.006-1.483-40.3763-2.2135-61.3712-2.2135h-.4408c-61.5879.0298-121.8747,6.331-185.7014,13.0025-3.9615.4141-7.9467.8304-11.9514,1.2474-15.9821,1.6643-32.3208,3.3408-49.1088,4.9429-39.3344,3.7537-126.6292,8.8927-126.6292,8.8927-11.5483,1.718-10.3562,17.4531,0,17.1671,0,0,115.5259-7.3108,166.2448-12.4966,10.2611-1.0492,20.3716-2.1057,30.3521-3.1489,6.0762-.6351,12.0903-1.2636,18.0496-1.8813,78.6964-8.1561,147.7463-14.3884,221.3535-8.1101,5.5106-1.4625,11.1295-2.9988,16.8632-4.612-5.9485-4.1909-11.8319-8.4608-17.6602-12.7903Z"/>
  <path class="st1" d="M9.8566,220.5608c-11.0714-.3174-11.0714,16.8481,0,17.1906,69.988.6112,94.0572,11.9056,126.6292,22.1859,16.788-1.6021,33.1267-3.2786,49.1088-4.9429-41.8979-14.7087-99.3129-34.2742-175.738-34.4336Z"/>
  <path class="st5" d="M1884.5191,201.7942c-123.6639,3.4092-249.4628-5.9395-363.7775-27.0391-30.9724-5.7158-62.1771-12.4756-92.3531-19.0127-73.6678-15.958-149.8423-32.46-233.8892-36.6084-76.2065-3.7627-155.4903,2.4844-242.3801,19.0947-75.9288,14.5156-148.2461,35.1533-215.0856,55.292-112.1212,33.7842-222.1031,63.3535-334.8139,54.2344-42.5439-3.4424-81.588-12.1719-122.924-21.415-10.7729-2.4092-21.913-4.9004-33.0132-7.2627-75.0977-15.9858-236.4258-33.9367-236.4258-33.9367-10.3562-1.4535-12.1046,16.3478,0,18.3176,0,0,149.1642,17.0276,218.7129,31.832,10.7419,2.2871,21.7006,4.7373,32.2987,7.1074,42.107,9.415,85.6476,19.1504,133.9999,23.0625,16.515,1.3359,32.9203,1.9521,49.1732,1.9521,120.0922,0,231.7466-33.6436,315.9827-59.0244,133.5961-40.2559,276.8336-78.9219,429.9434-71.3652,76.9886,3.7998,146.6765,18.8965,220.4572,34.8789,30.718,6.6543,62.4824,13.5352,94.5875,19.4609,120.0579,22.1582,252.1707,31.9736,382.0491,28.3965l-2.542-17.9648Z"/>
  <path class="st8" d="M9.8566,165.428s41.2227-8.056,58.5554-12.7272c-19.2631.4845-58.5554,6.1819-58.5554,6.1819-7.9315,1.076-9.9422,8.1882-7.2101,12.1212,1.3254-2.7491,3.7484-5.0107,7.2101-5.576Z"/>
  <path class="st3" d="M321.7217,142.6291c-34.5099-1.381-69.6029-.4129-106.5458,2.9231-30.3813,2.7438-59.0883,6.8268-85.4737,10.918-3.7494.5813-7.4576,1.1628-11.1111,1.7406-12.5569,4.1504-25.7091,7.9621-39.4982,11.4493-21.4598,5.4271-69.2363,13.9424-69.2363,13.9424-3.864.6533-6.348-.9722-7.5464-3.4843-2.2772,3.9628,1.0048,9.7307,7.5464,9.3275,65.2993-2.8976,71.0848-7.0917,109.1574-13.1644,3.3948-.5415,6.8129-1.0865,10.2526-1.6321,16.275-2.5817,33.0628-5.1769,50.4701-7.4849,49.1079-6.5112,103.1477-10.7277,164.5156-5.8676-7.538-6.2988-15.0392-12.5316-22.5306-18.6675Z"/>
  <path class="st4" d="M2173.9819,200.6834h-214.242c-3.8804,0-7.7298.0062-11.5649.0153-2.6089.0062-5.21.014-7.7981.0244-17.9285.0719-35.3579.2454-52.3257.5204-19.4331.315-38.2582.764-56.5239,1.3485-17.911.5732-35.2867,1.2764-52.1696,2.1119-22.3395,1.1056-43.8193,2.4425-64.5482,4.0138-1.3921.1055-2.7872.2101-4.1727.3177-30.1288,2.341-56.0968,4.9715-79.3331,7.6716-10.0811,1.1714-19.6525,2.3558-28.8173,3.5356-13.5888,1.7493-26.2994,3.488-38.5036,5.1578-6.4542.883-12.7234,1.7406-18.864,2.5628,10.3524,2.2679,20.314,4.3043,29.9098,6.1138,4.2924.8093,8.5106,1.5727,12.6585,2.2916,4.1345.7165,8.1977,1.3878,12.193,2.0151,1.7217-.2294,3.4569-.4593,5.2041-.6895,49.9682-6.5817,110.7035-13.3982,201.7598-17.1122,24.7317-1.0087,51.7018-1.7884,81.2992-2.2724,16.3037-.2666,33.4039-.4437,51.3684-.5196,2.4887-.0105,4.9953-.0189,7.517-.0256,4.1921-.011,8.4259-.0171,12.7111-.0171h214.4376"/>
</svg>