<?xml version="1.0" encoding="UTF-8"?>
<svg id="Layer_1" xmlns="http://www.w3.org/2000/svg" xmlns:xlink="http://www.w3.org/1999/xlink" version="1.1" viewBox="0 0 1085.2449 405.06">
  <!-- Generator: Adobe Illustrator 29.7.1, SVG Export Plug-In . SVG Version: 2.1.1 Build 8)  -->
  <defs>
    <style>
      .st0 {
        fill: none;
      }

      .st1 {
        fill: #74afd2;
      }

      .st2 {
        fill: #56174d;
      }

      .st3 {
        fill: #8cd1d0;
      }

      .st4 {
        fill: #3d51a2;
      }

      .st5 {
        fill: #8c50a0;
      }

      .st6 {
        fill: #f5c01a;
      }

      .st7 {
        fill: #e866a3;
      }

      .st8 {
        fill: #29abe2;
      }

      .st9 {
        fill: #cfc22b;
      }

      .st10 {
        fill: #eaaa70;
      }

      .st11 {
        clip-path: url(#clippath);
      }

      .st12 {
        fill: #f06028;
      }
    </style>
    <clipPath id="clippath">
      <rect class="st0" x="-42.5053" y="-52.1583" width="1127.9792" height="521.4243"/>
    </clipPath>
  </defs>
  <g class="st11">
    <g>
      <path class="st5" d="M1125.2722,339.9513c16.2155,0,30.9943-4.3625,43.3589-12.8952,12.5396-8.6523,21.534-20.9546,28.9795-31.8073,36.7202-53.5163,64.393-112.2877,82.2505-174.6831l-21.8446-6.2522c-17.182,60.0373-43.8088,116.5873-79.1404,168.0808-6.5857,9.5978-13.7976,19.5087-23.1488,25.9618-18.3438,12.6561-52.5388,13.9652-87.5844-11.6391-14.4768-10.5778-27.0096-23.3744-40.2784-36.9242-12.1495-12.4059-24.7125-25.2333-38.9526-36.2536-47.8558-37.0352-114.0745-53.8146-196.8137-49.8934-23.4582,1.1144-53.9946,3.9113-82.1408,15.7588-30.7096,12.9261-55.5213,34.9901-79.517,56.3269-6.5746,5.8455-13.3729,11.8906-20.1108,17.5733-37.5406,31.6581-70.3994,45.7331-100.434,43.0162-23.1612-2.0907-44.2723-13.8888-66.6236-26.3797-3.0004-1.6765-5.9934-3.3492-8.9839-4.9937-55.2853-30.3835-114.5891-52.5018-176.2659-65.741l-4.7681,22.2157c59.5146,12.7744,116.7414,34.1174,170.0901,63.4383,2.9437,1.6173,5.8898,3.2642,8.8446,4.9148,23.4422,13.1011,47.6844,26.6485,75.663,29.1755,36.3868,3.279,74.7064-12.5045,117.126-48.2774,6.9654-5.8738,13.8771-12.02,20.5608-17.9629,23.653-21.0323,45.9944-40.8984,73.2339-52.365,24.8549-10.4619,52.818-12.9791,74.4032-14.0034,77.1897-3.6623,138.3691,11.5331,181.8303,45.1648,13.0056,10.065,24.4789,21.7805,36.6253,34.1839,13.331,13.6114,27.115,27.6876,43.1074,39.3711,16.7382,12.2296,36.2931,20.6193,55.064,23.6246,5.2753.8456,10.4416,1.2647,15.4697,1.2647Z"/>
      <path class="st6" d="M1015.9744,297.4343c9.056,0,18.1971-.7778,27.3992-2.4642,26.9418-4.9382,51.2026-17.2269,74.6645-29.1114,5.9052-2.9918,12.0114-6.0846,17.9968-8.9716,75.3357-36.3288,159.291-52.9801,242.7853-48.1467l1.3116-22.6841c-87.3477-5.0442-175.1626,12.364-253.9665,50.3656-6.1851,2.9819-12.3923,6.1265-18.3949,9.1676-23.0323,11.6675-44.7876,22.6866-68.493,27.0318-62.8023,11.5109-124.084-25.8139-186.5577-68.4591-37.2429-25.4207-77.5379-51.4713-119.8453-69.7941-48.4148-20.967-92.5916-28.8525-135.0537-24.1029-46.8308,5.2365-89.275,26.0666-130.3226,46.2101-16.814,8.2517-34.2012,16.7844-51.459,23.9994-63.696,26.6337-133.7908,38.4343-202.6962,34.1309l-1.4164,22.6767c72.368,4.5154,145.981-7.8745,212.877-35.8444,17.8889-7.48,35.588-16.1656,52.704-24.5652,41.1105-20.1743,79.9404-39.2306,122.8383-44.027,85.3125-9.5386,165.1242,39.2688,239.5637,90.0831,46.9362,32.0378,109.1498,74.5055,176.065,74.5055Z"/>
      <path class="st0" d="M686.8433,194.5351c-.0188.0044-.0378.0092-.0566.0136-18.225-16.5735-35.6398-29.2126-52.8788-38.2853,12.976-8.1009,26.2508-12.4617,39.9088-10.9308,18.6422,2.0922,33.988,10.5073,47.2868,22.6553-8.7617,7.6953-17.8795,16.0787-27.5105,25.0467-2.2205.4609-4.4693.9606-6.7497,1.5005Z"/>
      <path class="st0" d="M729.9139,188.9636c1.9843-1.7754,3.9466-3.5152,5.8872-5.2164,1.4631,1.805,2.9022,3.6521,4.3203,5.5349-3.3662-.2235-6.7643-.3308-10.2076-.3186Z"/>
      <path class="st0" d="M819.6528,201.5487c-4.9247,2.2401-9.8874,4.3975-14.8884,6.4566-12.1814-5.9416-23.6575-10.4459-34.8994-13.5785-5.4994-8.592-11.2907-16.8896-17.5401-24.5974,20.3543-16.3163,38.672-27.4427,57.1057-31.4357,14.5038-3.1411,29.564-1.7972,46.1715,4.4839-6.2553,10.0479-12.4233,20.1878-18.5466,30.2552-5.8705,9.6517-11.6519,19.1555-17.4026,28.4158Z"/>
      <path class="st0" d="M856.0828,183.2992c6.3092-10.3727,12.6678-20.8174,19.1121-31.1325,5.4139,3.048,11.002,6.5588,16.7945,10.5532-11.6979,6.9977-23.6695,13.9417-35.9066,20.5793Z"/>
      <path class="st0" d="M1087.4165,89.886c-7.2903.2014-14.5957.6116-21.9091,1.2803-21.2342,1.9417-40.9025,5.8402-60.1281,11.9179-21.5019,6.7974-41.9135,16.1286-62.4015,28.5261-6.7809,4.1034-13.567,8.2753-20.7514,12.6923-3.3821,2.0793-6.7911,4.1748-10.2242,6.2785-8.7473-6.4288-17.141-11.9448-25.2489-16.5781,18.5608-28.5524,37.9809-55.1011,59.0859-75.051,36.0351-34.063,71.5612-43.9779,111.8026-31.2014,20.3939,6.4745,35.4526,17.4975,48.7979,31.2111-4.4062,6.7482-8.9042,13.9444-13.5312,21.6459-1.835,3.0542-3.6655,6.1503-5.492,9.2784Z"/>
      <path class="st0" d="M1121.1944,75.7631c3.9544,4.8788,7.8765,9.9532,11.8783,15.1672-6.8678-.4391-13.762-.7822-20.6774-.9856,2.9173-4.8309,5.8487-9.5618,8.799-14.1815Z"/>
      <path class="st0" d="M472.2179,182.7111c-11.3745,5.3366-23.1897,9.8101-35.3355,13.5604-2.1123-1.38-4.1915-2.7627-6.2354-4.1449,7.9549-2.5543,15.6495-5.0818,23.12-7.536,17.3972-5.7154,33.3728-10.963,48.4213-15.1505.7312.6148,1.4658,1.24,2.2031,1.8736-10.3421,2.3765-21.011,6.1602-32.1734,11.3974Z"/>
      <path class="st0" d="M408.7717,176.4466c-2.7676-2.0976-5.4325-4.1609-7.9873-6.1764-6.4046-5.0523-12.9105-9.152-19.5481-12.3138,16.5993-10.1289,32.0499-17.7389,47.7784-19.3691,16.0608-1.6663,32.8165,3.0877,51.4383,14.7868-10.6657,3.2818-21.7514,6.9234-33.4087,10.7531-12.1581,3.9943-24.8627,8.1668-38.2726,12.3194Z"/>
      <path class="st0" d="M624.8609,214.5608c-9.7067-9.2493-19.4227-17.4966-29.5238-24.4087,6.3807-6.9102,12.8176-13.4073,19.3223-19.2015,15.0487,6.6505,30.6034,16.5651,47.322,30.5367-11.5528,3.6553-23.8242,8.0379-37.1205,13.0735Z"/>
      <path class="st0" d="M576.3003,179.0501c-13.8694-6.6589-27.7591-10.1751-42.2331-10.6979-2.034-1.6612-4.0713-3.3578-6.1121-5.0945,22.1205-4.273,42.6772-5.0798,63.5606-.1433-5.1453,5.0512-10.2132,10.4029-15.2154,15.9357Z"/>
      <path class="st0" d="M1043.2567,171.0262c-9.4387,17.9311-18.9423,35.9567-28.635,53.5042-11.1565-4.3179-22.7818-10.6371-34.9395-18.9884,22.6448-16.4781,43.7642-27.5236,63.5745-34.5158Z"/>
      <path class="st0" d="M694.757,319.0512c-19.1517.996-39.2911-5.9656-61.2189-21.1079-4.394-3.0343-8.5725-6.2269-12.5837-9.531,11.6037-7.5796,22.3183-11.4261,32.4985-12.5282,12.7302,13.8974,26.347,28.597,41.3041,43.1671Z"/>
      <path class="st0" d="M599.7866,268.8201c4.4148-.4641,8.762-1.1054,13.0374-1.9251,1.0334-.1981,2.0615-.41,3.087-.629-3.7858,2.1466-7.5759,4.5768-11.3753,7.2877-1.6025-1.5694-3.1845-3.1483-4.749-4.7337Z"/>
      <path class="st0" d="M581.0349,280.4458c-7.8692-1.1746-15.7983-5.6465-24.4257-12.4682,4.6744.6256,9.2974,1.0873,13.8626,1.3769,3.403,3.6092,6.9139,7.3283,10.5632,11.0913Z"/>
      <path class="st0" d="M688.7113,282.1925c12.4111,5.3997,24.6402,13.4903,37.5023,22.0003,1.5437,1.0214,3.0911,2.0451,4.6429,3.0666-3.7301,2.2567-7.4449,4.1856-11.15,5.791-10.9743-10.1879-21.2608-20.5979-30.9953-30.8578Z"/>
      <path class="st0" d="M472.6962,279.9953c1.8666-.0883,3.7587-.207,5.6747-.3528-14.2262,7.1229-26.9291,7.2416-39.9676.6499-1.8508-.9357-3.6874-1.8589-5.5107-2.7702,9.6893,1.6952,19.7136,2.69,30.7474,2.6902,2.9442,0,5.9557-.0705,9.0562-.2172Z"/>
      <path class="st0" d="M801.6355,336.6324c1.2598.0576,2.519.0868,3.7726.0868,12.7032.0003,25.1133-2.9703,37.7008-9.0223,5.3693,2.8442,10.8842,5.0171,16.5736,6.5321,6.6618,1.774,13.5589,2.6643,20.7162,2.6643,17.5205.0003,36.6102-5.3382,57.6764-16.0973,3.0444,1.977,6.0745,3.9229,9.0895,5.835-23.2635,26.6581-48.5445,45.7393-76.9852,51.9794-35.7866,7.8517-74.6145-4.7726-118.7072-38.5926-4.8904-3.7512-9.6484-7.5933-14.291-11.4986,4.6008-2.5004,9.1851-5.398,13.78-8.7024,15.6861,8.9877,32.2435,15.9707,50.6742,16.8157Z"/>
      <path class="st0" d="M1084.1307,139.9225c5.2643-9.768,10.5203-19.3407,15.7987-28.6436,16.9822.0402,33.9525,1.1306,51.0622,2.6055,11.6189,14.2845,24.5656,28.4739,41.1128,41.6794.4524.3611.9103.715,1.3655,1.0724-.7857.2433-1.5678.4958-2.3463.7577-14.7019-5.1642-30.6974-10.3181-47.6257-13.7815-20.5845-4.211-40.1383-5.433-59.3671-3.6898Z"/>
      <path class="st0" d="M1071.5766,163.4862c34.1941-6.1348,64.305-.8123,91.6678,7.4066-10.735,6.6301-20.9625,14.3631-31.0511,21.9923-24.1377,18.2532-46.9367,35.4941-75.091,38.292-6.8632.6818-13.9076.4389-21.1523-.7326,9.2949-16.9543,18.3839-34.2194,27.3653-51.2824,2.7656-5.2541,5.5177-10.4824,8.2613-15.6759Z"/>
      <path class="st0" d="M311.5059,200.8502c17.3752-9.1114,32.6439-18.965,46.6661-28.118,8.5703,1.7831,16.8294,5.5269,25.0417,11.3-21.8306,6.1689-45.541,12.007-71.7079,16.818Z"/>
      <path class="st0" d="M962.9694,307.0207c-.7106.9482-1.4233,1.8886-2.1374,2.8238-.4852-.3068-.97-.6127-1.4559-.9212,1.2022-.6502,2.3997-1.2835,3.5934-1.9027Z"/>
      <path class="st0" d="M940.0048,238.7309c7.4448-7.0151,14.7371-13.4557,21.8824-19.3576,13.7624,9.9936,26.9652,17.6746,39.8793,23.2258.7245.3115,1.4471.6139,2.1686.9113-5.3552,9.3119-10.7798,18.4205-16.2937,27.2337-8.3701-5.8213-17.1321-12.2181-26.3159-19.2102-7.0286-5.3512-14.1177-9.609-21.3207-12.803Z"/>
      <path class="st0" d="M923.1211,255.3718c8.0412,2.3558,16.3388,6.5864,25.1564,13.2998,6.0336,4.5937,11.8905,8.9356,17.5838,13.0363-8.5774,3.8324-17.1611,8.2929-25.8216,13.4161-.3247.1921-.6451.375-.9684.5643-10.6583-7.1243-21.5007-14.6446-32.5469-22.5625,5.6128-6.2317,11.1448-12.1467,16.5967-17.7541Z"/>
      <path class="st0" d="M808.0511,259.3933c-.1162-.188-.2325-.3758-.3486-.5642,4.1622-5.83,8.2848-11.8494,12.3712-18.0024,5.2561,3.1244,10.6971,6.5006,16.3523,10.1312-9.3775,3.5432-18.7455,6.6615-28.3749,8.4355Z"/>
      <path class="st0" d="M793.8086,235.1198c1.8396-.6505,3.6859-1.3183,5.5395-2.0051-1.2112,1.797-2.4241,3.5769-3.6392,5.341-.633-1.1089-1.2664-2.2209-1.9003-3.336Z"/>
      <path class="st0" d="M565.1224,225.2886c1.6779-2.0199,3.3587-4.0429,5.0425-6.0639,6.026,3.3849,12.1057,6.5273,18.2241,9.4187-7.0627,2.6595-13.8011,5.112-20.2433,7.3697-2.2214-2.1601-4.4563-4.2599-6.7146-6.2834,1.2269-1.4747,2.4569-2.9552,3.6913-4.4411Z"/>
      <path class="st0" d="M530.3247,233.1959c-1.6579,1.9203-3.3107,3.8121-4.9601,5.6747-4.4198-4.3096-8.9002-8.5697-13.4774-12.5929,3.4688.5778,6.453,1.4782,9.039,2.4347,3.2073,1.1865,6.3297,2.6963,9.3985,4.4835Z"/>
      <path class="st0" d="M779.9737,260.0631c-10.2564-1.555-21.0193-5.2792-32.5512-12.0642,8.3672-1.6552,16.8321-3.7045,25.4292-6.1644,2.9721,5.238,5.9721,10.5184,9.0251,15.7567-.6331.8296-1.2676,1.6531-1.903,2.4719Z"/>
      <path class="st0" d="M404.6661,200.2111c1.5261,1.1066,3.0547,2.2001,4.5849,3.2841-13.2278,2.8818-26.7363,5.0664-40.4008,6.712,12.5393-3.2228,24.4456-6.5906,35.8159-9.9961Z"/>
      <path class="st0" d="M1138.3007,298.7698c-14.8505,10.8358-29.1756,18.1545-48.5049,17.6053-20.0611-.5738-44.4478-9.5743-74.8327-27.8426,41.0138-7.925,79.4883-.0581,123.3377,10.2373Z"/>
      <path class="st0" d="M548.5539,211.5249c-1.3993,1.6844-2.7925,3.3612-4.1813,5.0298-5.0776-3.2373-10.3692-5.9706-15.9733-8.0439-12.2632-4.5367-24.8389-5.5716-38.4451-3.1629-2.144.3795-4.3084.8456-6.4955,1.3964-.0837-.0385-.1666-.0796-.2505-.1178-2.0462-.9332-4.0928-1.7468-6.1376-2.451,1.4411-.6458,2.8754-1.2981,4.2956-1.9644,16.2688-7.6327,31.0604-11.7451,45.1024-12.3568,8.3095,6.5167,16.6861,12.5443,25.0907,18.0542-1.0036,1.2069-2.0057,2.4128-3.0054,3.6164Z"/>
      <path class="st0" d="M686.932,228.7379c.7306-.6819,1.4574-1.3607,2.1817-2.0374,1.5683,1.5943,3.1467,3.2187,4.738,4.8807.0687.0717.1371.1418.2057.2133-3.3717-.0253-6.7564-.1263-10.1539-.3058,1.0162-.903,2.0274-1.8164,3.0284-2.7508Z"/>
      <path class="st0" d="M370.4909,237.8926c-5.1066-1.4892-10.4398-2.9842-16.057-4.4629,17.0967-1.5332,33.1888-3.7259,48.3619-6.6052-10.5757,5.6292-21.3253,9.1423-32.3049,11.0681Z"/>
      <path class="st0" d="M789.5605,282.5387c.728.0156,1.4538.0256,2.1758.0257,1.8674,0,3.714-.0566,5.5451-.1548,3.6699,5.4335,7.4556,10.6429,11.3938,15.5055,4.4649,5.5129,9.0011,10.4157,13.6299,14.7256-6.6524,1.9492-13.205,2.771-19.6833,2.4749-11.6728-.5353-22.812-4.4644-33.8652-10.1263,6.8448-6.4909,13.7393-13.9353,20.8038-22.4506Z"/>
      <path class="st0" d="M892.1041,289.2931c.1515.1088.3008.2157.4525.3248,8.3017,5.9665,16.4879,11.7036,24.5683,17.2199-19.6068,8.2868-36.5357,10.4857-51.3131,6.722,8.6408-6.6035,17.361-14.6528,26.2922-24.2667Z"/>
      <path class="st0" d="M464.6627,237.3226c13.1336,6.7339,26.1022,12.4525,38.8178,17.1208-29.0561,5.6796-50.0692,5.0607-70.1772,1.1928,7.0097-3.9316,14.2663-8.2043,21.7865-12.8249,3.331-2.0466,6.5191-3.8685,9.5728-5.4888Z"/>
      <path class="st0" d="M820.969,278.6309c12.1084-3.1104,23.5946-7.6589,34.8849-12.1307.8298-.3287,1.6541-.655,2.4752-.9796,5.1727,3.5401,10.5218,7.2611,16.0616,11.1624-10.5167,11.0543-20.6916,19.6905-30.6024,25.9571-8.2545-6.2462-15.7434-14.4901-22.8193-24.0092Z"/>
      <path class="st0" d="M617.5877,240.4454c1.3797.4639,2.7601.9122,4.1409,1.3502.1793.1841.3594.3713.5388.556-6.9466,2.1419-14.1371,3.6933-21.5646,4.6575,3.8987-1.4871,7.873-3.0268,11.9298-4.6227,1.6715-.6575,3.3201-1.303,4.955-1.9411Z"/>
      <path class="st0" d="M687.1035,253.0947c2.7461.0932,5.5075.1398,8.2805.1398,6.8777,0,13.8323-.2882,20.8356-.8594,8.2807,6.7169,16.489,12.2594,24.7557,16.7298,7.8032,4.22,15.539,7.417,23.3372,9.6357-5.0601,5.5173-10.0643,10.4535-15.0256,14.8175-3.7043-2.3786-7.4277-4.8405-11.1879-7.3284-18.66-12.3463-37.9554-25.113-59.6149-30.1147-5.332-1.2312-10.62-1.9388-15.8777-2.1334-1.0512-1.1486-2.0982-2.2921-3.1399-3.4283,9.164,1.3726,18.3947,2.2273,27.6369,2.5415Z"/>
      <path class="st0" d="M723.3454,230.1606c-4.5214-4.0138-9.1621-8.4901-13.9359-13.4758-1.2819-1.3388-2.5579-2.6552-3.8302-3.9569,15.8818-2.6802,30.0976-2.9645,44.2186-.7005,2.1297.3415,4.2664.7456,6.4131,1.2062,1.9084,3.115,3.7907,6.2672,5.6534,9.4428-12.6279,3.3821-25.4695,5.9483-38.5189,7.4841Z"/>
      <path class="st0" d="M894.8374,253.9559c-1.9849,2.1637-3.9732,4.3594-5.9647,6.586-1.8859-1.3314-3.7522-2.6439-5.5975-3.9361,3.8887-1.1134,7.7327-2.0213,11.5622-2.6499Z"/>
      <path class="st0" d="M930.0922,164.7506c1.1438-.7029,2.2837-1.4036,3.4149-2.099,7.1514-4.3966,13.9058-8.5491,20.6216-12.613,41.9138-25.3627,81.5304-35.3162,120.6899-37.9755-5.8737,10.5935-11.6944,21.4059-17.4529,32.24-31.6283,7.5001-63.3521,23.3023-95.6549,47.7308-4.6806-3.807-9.4369-7.8888-14.2739-12.2543-5.9406-5.3615-11.7153-10.3648-17.3446-15.0289Z"/>
      <path class="st0" d="M652.2303,227.5035c1.106-.3879,2.2043-.7705,3.2921-1.1456-.6915.4684-1.3856.931-2.0837,1.3844-.4026-.0783-.8054-.1582-1.2084-.2389Z"/>
      <path class="st0" d="M900.6342,231.6993c-13.7248.907-26.8436,4.9359-39.5725,9.6763-10.3567-6.9228-20.068-13.1227-29.2882-18.6231.9407-1.4864,1.8792-2.9776,2.8164-4.4716,3.3716-1.5805,6.7701-3.217,10.1972-4.9105,22.9579-11.3442,45.1711-24.2369,65.8269-36.7251,7.1476,5.724,14.596,12.0889,22.3915,19.1243,3.892,3.5126,7.7312,6.8519,11.5232,10.0235-9.485,8.0166-19.0265,16.7698-28.6366,26.2718-5.0036-.5834-10.0836-.7066-15.2579-.3657Z"/>
      <path class="st0" d="M355.1817,265.8764c-9.5502,2.3505-18.3298,3.4937-26.4605,3.4735-20.8267-.046-35.845-7.8797-51.6442-17.894,22.5954,5.0147,44.3486,9.2509,66.0292,9.7888,3.9509,1.4625,7.9729,3.0049,12.0754,4.6317Z"/>
      <g>
        <path class="st1" d="M1049.603,263.7718h.2456c34.3166.0376,67.9083,7.9915,103.4725,16.4128,2.2074.5227,4.4278,1.0482,6.6593,1.5746,8.9052,2.1008,18.0091,4.2171,27.3633,6.2393,47.648,10.301,101.7986,18.1461,169.3691,8.8898,5.8923-.81,11.3245,3.3154,12.1316,9.2083.8072,5.8929-3.3154,11.3247-9.2083,12.1318-79.6461,10.9105-140.7408-.688-194.3661-13.1092-5.7175-1.3244-11.351-2.658-16.9121-3.9747-3.3857-.8017-6.7367-1.5951-10.0572-2.3747-43.8494-10.2953-82.3239-18.1623-123.3377-10.2373-3.0705-1.8461-6.2014-3.7853-9.3961-5.8216,3.3145-5.2902,6.5927-10.6799,9.8402-16.145,11.1473-1.8719,22.4976-2.794,34.1959-2.794Z"/>
        <path class="st1" d="M349.3611,261.2988c6.8294-.0611,13.3662-.5183,19.6824-1.3774.9735.2905,1.9403.5807,2.8997.8703-5.8424,2.0781-11.4229,3.7707-16.7614,5.0846-4.1025-1.6267-8.1245-3.1692-12.0754-4.6317,2.0853.0517,4.17.0735,6.2547.0541Z"/>
        <path class="st1" d="M432.8926,277.5222c1.8233.9113,3.6599,1.8345,5.5107,2.7701,13.0385,6.5917,25.7413,6.473,39.9676-.6499,13.6406-1.0384,28.5705-3.545,45.3703-7.6769-6.6379,6.4905-13.358,12.3662-20.2588,17.3924-12.2133,8.895-23.7875,14.23-35.3847,16.3096-13.3424,2.3928-26.6032.3226-39.4123-6.1528-15.506-7.839-29.8587-14.7351-43.3081-20.8021,6.0623-2.3426,12.3426-5.0298,18.8609-8.0714,9.6611,2.8013,18.9921,5.1904,28.6544,6.8809Z"/>
        <path class="st1" d="M843.7883,302.6401c6.5962,4.9913,13.6805,8.7091,21.437,10.7746.1943.0518.3916.0954.5866.145,14.7774,3.7637,31.7063,1.5648,51.3131-6.722,7.0633,4.822,14.0453,9.4742,20.9501,13.9582-21.0663,10.7591-40.1559,16.0975-57.6764,16.0973-7.1573,0-14.0544-.8902-20.7162-2.6643-5.6894-1.515-11.2043-3.6878-16.5736-6.5321-7.1735-3.8-14.0865-8.8017-20.8037-15.0561-4.6288-4.3099-9.165-9.2126-13.6299-14.7256-3.9383-4.8626-7.724-10.072-11.3938-15.5055,8.2123-.4405,16.0738-1.8229,23.6876-3.7788,7.0759,9.5191,14.5647,17.763,22.8193,24.0092Z"/>
        <path class="st1" d="M807.7025,258.8291c.1162.1884.2324.3763.3487.5642-.2869.0528-.5741.1046-.8614.1551.1711-.2389.3418-.4798.5128-.7193Z"/>
        <path class="st1" d="M676.2193,123.9278c22.8097,2.5597,43.032,12.4055,61.5169,29.993-5.4236,4.3811-10.9537,9.0795-16.6326,14.0671-13.2988-12.148-28.6446-20.5631-47.2868-22.6554-13.658-1.5309-26.9328,2.83-39.9088,10.9308-7.735-4.0708-15.4349-7.4215-23.1568-10.0917,22.5308-17.3697,43.9974-24.6548,65.4681-22.2439Z"/>
        <path class="st1" d="M965.8614,281.7079c3.4076,2.4544,6.7552,4.8202,10.0471,7.1019-4.2516,6.2875-8.5619,12.3705-12.9391,18.2108-1.1937.6192-2.3912,1.2525-3.5934,1.9027-6.6969-4.2507-13.4634-8.6622-20.3047-13.235.3234-.1893.6438-.3722.9684-.5643,8.6605-5.1232,17.2443-9.5838,25.8217-13.4161Z"/>
        <path class="st1" d="M769.865,194.4269c-5.5904-1.5578-11.1237-2.7798-16.6569-3.667-4.3265-.6937-8.6795-1.1852-13.0866-1.4777-1.4181-1.8828-2.8572-3.73-4.3203-5.5349,5.6746-4.9744,11.17-9.6263,16.5237-13.9178,6.2494,7.7078,12.0408,16.0054,17.5401,24.5974Z"/>
        <path class="st1" d="M576.3003,179.0501c5.0022-5.5328,10.0702-10.8845,15.2154-15.9357,7.6398,1.806,15.3237,4.3804,23.1437,7.8363-6.5047,5.7942-12.9416,12.2913-19.3223,19.2015-3.6813,3.9867-7.3439,8.1098-10.9898,12.3169-6.2377-3.3866-12.5104-7.1027-18.8171-11.1613,3.5588-4.1493,7.1473-8.2504,10.7702-12.2576Z"/>
        <path class="st1" d="M787.2663,223.6028c1.3054,2.2907,2.6038,4.5789,3.8978,6.8597.8832,1.5567,1.7644,3.1094,2.6444,4.6574.634,1.115,1.2673,2.2271,1.9003,3.3359-4.5698,6.6348-9.1712,13.0288-13.8322,19.1354-3.053-5.2383-6.053-10.5187-9.0251-15.7567-.1405-.2475-.2811-.4954-.4215-.7428-3.4875-6.1468-6.9917-12.3221-10.5658-18.4152-1.8626-3.1756-3.745-6.3279-5.6533-9.4428,6.2284,1.3366,12.5455,3.1742,19.052,5.532,3.9246,1.4222,7.9193,3.0354,12.0034,4.8371Z"/>
        <path class="st1" d="M544.3726,216.5547c1.3888-1.6687,2.782-3.3454,4.1813-5.0298.9998-1.2035,2.0019-2.4095,3.0054-3.6164,5.7738,3.7852,11.5607,7.3263,17.3483,10.6138.4183.2376.8383.4672,1.2572.7025-1.6837,2.0209-3.3646,4.044-5.0425,6.0639-1.2344,1.4859-2.4644,2.9664-3.6912,4.4411-3.3524,4.0295-6.6789,8.0117-9.9917,11.9183-2.2555.7287-4.4716,1.4306-6.6494,2.1063-.2171.0673-.4344.1348-.6508.2016-2.0328-.4359-4.0768-.9012-6.1352-1.4045-4.1323-1.0105-8.2386-2.137-12.3142-3.3641-.1082-.1057-.2167-.2112-.3251-.3168,1.6493-1.8626,3.3022-3.7545,4.9601-5.6747,4.6386-5.3732,9.3148-10.9543,14.0479-16.6411Z"/>
      </g>
      <path class="st10" d="M182.3949,235.0145c.106.0051.2122.0093.3183.0145-.6908-.0057-1.3818-.0116-2.0709-.0164-.0579-.0034-.1166-.0063-.1745-.0097.6442.0034,1.2867.0073,1.9271.0116Z"/>
      <path class="st10" d="M182.3949,235.0145c-.6404-.0043-1.283-.0081-1.9271-.0116-.6272-.0367-1.2592-.0691-1.8951-.0982.2607-.0054.5214-.0106.7818-.0165,1.0145.0357,2.028.0776,3.0405.1262Z"/>
      <path class="st10" d="M179.3544,234.8882c-.2604.0059-.5211.0111-.7818.0165-.5014-.0229-1.0046-.0443-1.5116-.0624.1235-.0059.247-.0116.3706-.0178.6416.0172,1.2821.0412,1.9227.0637Z"/>
      <g>
        <path class="st8" d="M328.2397,151.8139c8.583-1.7346,16.8885-2.2536,24.9663-1.5619-1.485.9674-2.9784,1.9425-4.4847,2.9266-38.5415,25.1753-85.921,56.1231-161.7853,59.882-2.7515.0495-5.5226.0868-8.3169.1099,29.7183-2.1982,57.1408-17.5636,83.7245-32.4616,22.3585-12.5298,43.4769-24.3648,65.8962-28.895Z"/>
        <path class="st8" d="M655.5224,226.3579c8.9706-3.093,17.3333-5.7479,25.2219-7.9519,2.7547,2.6579,5.5438,5.4218,8.3695,8.2945-.7244.6767-1.4512,1.3555-2.1818,2.0374-1.001.9343-2.0122,1.8478-3.0284,2.7508-10.0446-.5308-20.2003-1.75-30.465-3.7464.6981-.4534,1.3922-.916,2.0837-1.3844Z"/>
        <path class="st8" d="M509.2589,253.254c-1.9619.4241-3.8867.8196-5.7784,1.1894-12.7155-4.6683-25.6842-10.3869-38.8178-17.1208,6.0196-3.1938,11.5138-5.5991,16.5345-7.3709,9.4157,5.7879,18.8213,14.3371,28.0617,23.3023Z"/>
        <path class="st8" d="M1057.1023,231.177c28.1543-2.7979,50.9534-20.0388,75.091-38.292,10.0886-7.6291,20.3161-15.3621,31.0511-21.9923,9.6993,2.9133,19.0535,6.1892,28.1218,9.4481-15.7696,6.7282-30.6921,18.0113-46.1812,29.7242-25.4514,19.2466-51.7693,39.1486-85.9531,42.5455-11.3277,1.1254-22.7007.3602-34.3567-2.3306,3.7274-6.5432,7.4174-13.1644,11.0747-19.8356,7.2447,1.1715,14.289,1.4144,21.1523.7326Z"/>
        <path class="st8" d="M1284.4871,174.9583c-1.3933.4777-2.8066.8927-4.2406,1.2506-21.8781-6.2494-39.7972-14.3082-54.9722-23.573,14.386.8197,28.8927,5.1783,44.0615,13.2112,4.9966,2.6459,10.0409,5.6785,15.1512,9.1111Z"/>
        <path class="st8" d="M381.2364,157.9564c6.6375,3.1619,13.1434,7.2616,19.548,12.3138,2.5548,2.0154,5.2197,4.0788,7.9873,6.1764,6.7147,5.0889,14.0381,10.3799,21.8752,15.68,2.0439,1.3822,4.1231,2.7649,6.2354,4.1449,3.1148,2.035,6.3009,4.064,9.5557,6.0759,4.6638,2.8829,9.4657,5.7307,14.3909,8.5113,1.3856.7823,2.7815,1.5589,4.1863,2.3298-6.7806,2.9911-13.8234,6.7379-21.2011,11.2707-.3916.2406-.7799.4772-1.1699.7157-3.0168-1.7812-6.0318-3.6119-9.0438-5.4855-3.42-2.1275-6.8355-4.3179-10.2453-6.562-4.7151-3.103-9.4184-6.3128-14.1041-9.6323-1.5302-1.084-3.0587-2.1775-4.5849-3.2841-5.7737-4.1859-11.5182-8.53-17.2222-13.0297-1.4096-1.112-2.8193-2.1573-4.2302-3.1492-8.2123-5.7731-16.4715-9.517-25.0418-11.3.7797-.5089,1.5566-1.0162,2.3286-1.5206,7.1617-4.6781,14.0417-9.1705,20.7357-13.2552Z"/>
        <path class="st8" d="M1306.7449,193.6089c.0985-.4517.1636-.9027.2036-1.3515,8.2444,7.125,16.7097,15.2527,25.467,24.4484,4.1019,4.3072,3.9354,11.1244-.3718,15.2261-4.3071,4.1021-11.1242,3.9354-15.2262-.3719-12.6915-13.327-24.774-24.2978-36.3165-32.9568,4.3867,1.1567,8.8581,2.2371,13.4267,3.2334,5.8114,1.2685,11.5496-2.4161,12.8172-8.2278Z"/>
        <path class="st8" d="M947.4368,179.7795c4.8371,4.3655,9.5933,8.4473,14.2739,12.2543,6.1188,4.9767,12.1074,9.4801,17.9714,13.5082,12.1577,8.3513,23.7831,14.6705,34.9395,18.9884-3.535,6.3997-7.0953,12.7352-10.6866,18.98-.7214-.2975-1.444-.5999-2.1685-.9113-12.9142-5.5512-26.1169-13.2322-39.8793-23.2258-5.6843-4.1276-11.4641-8.65-17.3585-13.5801-3.792-3.1717-7.6312-6.5109-11.5232-10.0235-7.7955-7.0354-15.2439-13.4003-22.3915-19.1243,6.6645-4.0293,13.1656-8.0154,19.4782-11.8948,5.6293,4.6641,11.404,9.6674,17.3446,15.0289Z"/>
        <path class="st8" d="M1193.4699,156.6362c1.2716.998,2.5508,1.986,3.8448,2.9548-2.0357-.7294-4.1019-1.4634-6.1911-2.1972.7785-.2619,1.5606-.5143,2.3463-.7576Z"/>
        <path class="st8" d="M544.1392,243.956c-3.5812,1.1064-7.0587,2.1415-10.4395,3.1085-.684-.672-1.3715-1.3487-2.0666-2.0345-1.9711-1.9448-3.9513-3.898-5.9433-5.8426,4.0756,1.2272,8.1819,2.3537,12.3142,3.3641,2.0584.5033,4.1024.9686,6.1352,1.4045Z"/>
        <path class="st8" d="M737.7362,153.9208c23.1889-18.7312,44.4411-31.6626,67.1348-36.5781,20.0031-4.3331,40.2757-2.2319,62.4597,7.018,6.3068,2.6297,12.7691,5.84,19.4227,9.6423,8.1079,4.6332,16.5016,10.1493,25.2489,16.5781-6.5781,4.031-13.2499,8.0932-20.0128,12.1388-5.7926-3.9944-11.3806-7.5052-16.7945-10.5532-6.7892-3.8223-13.3021-6.9099-19.5928-9.2891-16.6075-6.2811-31.6677-7.625-46.1715-4.4839-18.4337,3.993-36.7515,15.1194-57.1058,31.4357-5.3536,4.2915-10.849,8.9434-16.5237,13.9178-1.9407,1.7011-3.903,3.4409-5.8872,5.2164-11.4501.0407-23.398,1.3884-36.3209,4.071,9.631-8.968,18.7488-17.3514,27.5105-25.0466,5.6788-4.9876,11.209-9.686,16.6326-14.0671Z"/>
        <path class="st8" d="M171.4299,234.7428c.6878,0,1.3748.0076,2.0618.0141,1.205.0154,2.3952.0436,3.5693.0854-1.8839.0898-3.7609.1374-5.6311.1374-.7715,0-1.5233-.0827-2.2487-.2369h2.2487Z"/>
        <path class="st8" d="M584.6439,252.9882c5.2035-1.8867,10.5543-3.8794,16.0589-5.979,7.4275-.9642,14.618-2.5156,21.5646-4.6575.2084-.0642.4162-.1299.6241-.1952,2.0116.6273,4.0238,1.2349,6.0364,1.8067,9.4979,2.6982,19.144,4.8154,28.8701,6.3411-2.6213,1.4958-5.2781,2.9108-7.9735,4.2357-4.467.5597-8.9193,1.4978-13.3648,2.8257-6.8555,2.0476-13.6953,5.0142-20.549,8.9004-1.0255.219-2.0536.4308-3.0869.629-4.2754.8197-8.6226,1.4609-13.0374,1.925-5.7707.6068-11.6572.9105-17.6518.9104-3.844,0-7.7329-.1267-11.6631-.376-4.5652-.2896-9.1881-.7513-13.8626-1.3769-1.5513-1.2267-3.1255-2.5296-4.7257-3.9024,3.4029-1.0579,6.8743-2.1695,10.4213-3.3386,7.1386-2.353,14.5763-4.9337,22.3393-7.7484Z"/>
      </g>
      <path class="st10" d="M177.0611,234.8423c-1.1741-.0419-2.3643-.0701-3.5693-.0855,1.3147.0123,2.6284.0323,3.9399.0676-.1236.0063-.2471.0119-.3706.0178Z"/>
      <g>
        <path class="st4" d="M1057.3657,144.303c-4.4079,8.2931-8.7797,16.5983-13.1106,24.8265-.3327.6321-.6655,1.2644-.9984,1.8967-19.8103,6.9922-40.9297,18.0377-63.5745,34.5158-5.8641-4.0281-11.8527-8.5315-17.9714-13.5082,32.3028-24.4284,64.0267-40.2307,95.6549-47.7308Z"/>
        <path class="st4" d="M894.8374,253.9559c7.0575-7.6931,14.0742-14.9889,21.0547-21.8909,9.6101-9.502,19.1515-18.2553,28.6366-26.2718,5.8944,4.9301,11.6742,9.4525,17.3585,13.5801-7.1453,5.9019-14.4377,12.3425-21.8824,19.3576-5.5424,5.2226-11.1694,10.7638-16.8836,16.6409-5.452,5.6073-10.9839,11.5224-16.5967,17.754-.4663-.3343-.9298-.6627-1.3968-.9984-5.5892-4.0171-11.0004-7.8761-16.2549-11.5855,1.9915-2.2266,3.9797-4.4223,5.9647-6.586Z"/>
        <path class="st4" d="M1143.4978,143.6123c16.9284,3.4635,32.9239,8.6174,47.6258,13.7816,2.0892.7338,4.1554,1.4678,6.1911,2.1972,6.9967,5.2389,14.3251,10.0504,22.0084,14.4522,17.9849,10.3037,37.9265,18.3501,60.1838,24.2992-5.2947.8745-10.7972,1.2068-16.5814,1.0008-21.0399-.7518-42.804-8.6161-65.8463-16.9422-1.8916-.6835-3.7962-1.3715-5.7127-2.0602-9.0684-3.2589-18.4226-6.5348-28.1218-9.4481-27.3628-8.2189-57.4737-13.5414-91.6678-7.4066,4.2001-7.9508,8.3798-15.8183,12.554-23.5636,19.2289-1.7432,38.7826-.5212,59.3671,3.6898Z"/>
        <path class="st4" d="M1310.5442,157.0165c4.0656-4.3416,10.8813-4.5652,15.2225-.4997,4.3416,4.0658,4.5651,10.881.4996,15.2225-6.3427,6.773-12.8706,12.2053-19.744,16.4312-1.1028-3.6014-4.0634-6.5192-8.0053-7.3789-2.8981-.632-5.7279-1.2954-8.5041-1.9834-3.34-.8278-6.5964-1.6938-9.7665-2.5994,1.4339-.3579,2.8472-.7729,4.2406-1.2506,9.2938-3.1864,17.7392-9.0594,26.0571-17.9418Z"/>
        <path class="st4" d="M511.8872,226.2777c4.5772,4.0233,9.0577,8.2833,13.4774,12.5929.1084.1056.2169.2111.3251.3168,1.992,1.9446,3.9722,3.8978,5.9433,5.8426.6951.6858,1.3826,1.3625,2.0666,2.0345,2.4287,2.3864,4.7893,4.6853,7.0881,6.8812,3.8555,3.6828,7.5406,7.0795,11.0957,10.1294,1.6002,1.3728,3.1744,2.6757,4.7257,3.9024,8.6274,6.8217,16.5566,11.2936,24.4257,12.4682,6.2046,6.398,12.8102,12.9193,19.9631,19.2332-5.1959,1.8007-10.4659,2.7027-15.7988,2.7023-8.1006-.0007-16.3478-2.0798-24.6939-6.2418-11.5898-5.7788-22.5035-15.0817-33.0494-25.1067-.4711-.4478-.9415-.8969-1.4111-1.3473-3.2098-3.0785-6.3869-6.2123-9.5393-9.3226-.736-.7262-1.4735-1.4537-2.2122-2.1813-1.2094-1.1914-2.4222-2.3825-3.638-3.569-.465-.4538-.9304-.9066-1.3963-1.3587-9.2403-8.9652-18.646-17.5144-28.0617-23.3023,4.0656-1.4347,7.82-2.4536,11.2919-3.1404,7.7863-1.5402,14.1487-1.4079,19.3981-.5336Z"/>
        <path class="st4" d="M874.3907,276.683c5.6948,4.0105,11.5926,8.2127,17.7134,12.6101-8.9312,9.6139-17.6515,17.6632-26.2922,24.2667-.195-.0497-.3923-.0933-.5866-.145-7.7565-2.0655-14.8408-5.7833-21.437-10.7746,9.9109-6.2667,20.0857-14.9029,30.6024-25.9571Z"/>
        <path class="st4" d="M419.9725,215.6321c1.1238-.8742,2.2516-1.7076,3.3826-2.5047,3.4098,2.244,6.8252,4.4345,10.2453,6.562,3.012,1.8737,6.027,3.7044,9.0438,5.4855-14.4817,8.8604-27.8346,16.3322-40.1882,22.4632-3.4215-1.0378-6.9147-2.1203-10.511-3.2349-6.8001-2.1077-13.8825-4.3025-21.4541-6.5106,10.9796-1.9259,21.7292-5.4389,32.3049-11.0681,5.7741-3.0734,11.4967-6.7742,17.1767-11.1924Z"/>
        <path class="st4" d="M477.0707,204.1755c2.0447.7041,4.0913,1.5178,6.1376,2.4509.0838.0382.1668.0793.2505.1178-5.9572,1.5003-12.0849,3.6392-18.4435,6.4442-1.4048-.7709-2.8007-1.5475-4.1863-2.3298-4.9252-2.7807-9.7271-5.6284-14.3909-8.5113,2.0756-.4881,4.1545-.8499,6.2345-1.0835,8.0029-.8996,16.1852.0832,24.3982,2.9116Z"/>
        <path class="st4" d="M636.4599,257.3656c4.4455-1.3278,8.8978-2.266,13.3648-2.8257,4.2448-.5319,8.5033-.7167,12.7819-.5583,5.2576.1945,10.5456.9022,15.8776,2.1333,21.6595,5.0017,40.955,17.7684,59.6149,30.1148,3.7601,2.4879,7.4836,4.9497,11.1879,7.3284,6.5203,4.1869,12.9805,8.1073,19.4697,11.4313,11.0531,5.6619,22.1924,9.591,33.8652,10.1263,6.4784.296,13.0309-.5257,19.6833-2.4749,6.7172,6.2544,13.6302,11.2561,20.8037,15.0561-12.5875,6.052-24.9976,9.0226-37.7007,9.0223-1.2537,0-2.5128-.0291-3.7726-.0868-18.4307-.845-34.9882-7.828-50.6742-16.8157-6.8396-3.9189-13.5137-8.2183-20.1047-12.5572-1.5519-1.0216-3.0992-2.0452-4.643-3.0666-12.8621-8.51-25.0912-16.6006-37.5023-22.0003-11.3894-4.9551-22.9323-7.6427-35.2583-6.3084-10.1801,1.1021-20.8947,4.9486-32.4985,12.5282-5.7809-4.7619-11.2106-9.7577-16.4188-14.8586,3.7993-2.711,7.5895-5.1411,11.3753-7.2877,6.8536-3.8862,13.6934-6.8528,20.549-8.9004Z"/>
        <path class="st4" d="M211.3234,235.4526c16.4916.611,31.5193,1.5951,45.2998,2.8684,50.7364,4.6881,84.578,13.2924,112.4202,21.6004-6.3162.8591-12.853,1.3163-19.6824,1.3774-2.0847.0193-4.1694-.0024-6.2547-.0541-21.6807-.5379-43.4338-4.774-66.0293-9.7888-4.2921-.9526-8.6139-1.9324-12.972-2.9209-26.3555-5.9773-53.5026-12.1312-81.3919-13.5061,4.7397.039,9.5209.0992,14.3578.1738,4.6935.0724,9.4401.1578,14.2524.2499Z"/>
      </g>
      <path class="st10" d="M182.7132,235.029c-.1061-.0052-.2122-.0094-.3183-.0145,4.9985.0335,9.8841.0934,14.6761.1883-4.8369-.0745-9.6181-.1347-14.3578-.1738Z"/>
      <path class="st10" d="M177.4317,234.8245c-1.3115-.0353-2.6252-.0553-3.9399-.0676-.6827-.0087-1.3692-.0141-2.0619-.0141,2.3878,0,4.7468.0077,7.0827.0216-.3606.0216-.7208.0418-1.0808.0601Z"/>
      <g>
        <path class="st2" d="M1133.0727,90.9303c9.7284.6221,19.4031,1.4363,29.0073,2.3243,6.3604.5881,12.6905,1.2072,18.9841,1.8235,33.2767,3.2581,67.6855,6.6278,103.0746,5.1053,5.9409-.255,10.9669,4.3542,11.2226,10.2969.2557,5.9421-4.3543,10.9668-10.2967,11.2224-35.8138,1.5422-69.9986-1.6572-103.0782-4.8921-1.0081-.0986-2.0153-.1972-3.0213-.2957-9.3815-.9186-18.6979-1.8309-27.9735-2.6305-17.1097-1.4749-34.0799-2.5653-51.0621-2.6055,4.1364-7.2903,8.2869-14.414,12.4659-21.3343,6.9154.2034,13.8096.5465,20.6774.9856Z"/>
        <path class="st2" d="M772.4301,241.0917c.1404.2474.2811.4952.4215.7428-8.5971,2.4599-17.062,4.5092-25.4292,6.1644-7.6604-4.5071-15.6606-10.3666-24.077-17.8383,13.0494-1.5358,25.891-4.102,38.5189-7.4841,3.5741,6.0931,7.0783,12.2684,10.5658,18.4152Z"/>
        <path class="st2" d="M856.0828,183.2992c12.2371-6.6376,24.2088-13.5816,35.9066-20.5793,6.7629-4.0456,13.4347-8.1078,20.0128-12.1388,3.4331-2.1038,6.8421-4.1992,10.2242-6.2785,7.1844-4.4169,13.9705-8.5889,20.7514-12.6923,20.488-12.3974,40.8996-21.7287,62.4015-28.5261,19.2256-6.0777,38.8939-9.9762,60.1281-11.9179,7.3134-.6687,14.6188-1.079,21.9091-1.2803-4.2238,7.2341-8.4243,14.6496-12.5979,22.177-39.1595,2.6593-78.7761,12.6128-120.6899,37.9755-6.7159,4.0639-13.4702,8.2164-20.6216,12.613-1.1312.6954-2.2711,1.3961-3.4149,2.099-6.3126,3.8794-12.8137,7.8655-19.4782,11.8948-20.6558,12.4882-42.869,25.3809-65.8269,36.7251-3.4271,1.6935-6.8256,3.33-10.1972,4.9105,7.0464-11.2324,13.996-22.656,20.8683-33.9547.2081-.3422.4164-.6847.6246-1.027Z"/>
        <path class="st2" d="M534.0672,168.3522c10.5791,8.6398,21.0675,16.2655,31.463,22.9555,6.3067,4.0587,12.5794,7.7747,18.8171,11.1613,11.06,6.0047,22.0107,10.9802,32.8491,15.022-4.0532,1.5625-8.1982,3.1791-12.4487,4.8511-.7592.2986-1.512.5932-2.2643.8875-4.8377,1.8927-9.5335,3.6963-14.0944,5.4138-6.1184-2.8914-12.1981-6.0339-18.2241-9.4187-.4189-.2353-.839-.4648-1.2572-.7025-5.7876-3.2875-11.5745-6.8286-17.3483-10.6138-8.4046-5.5099-16.7812-11.5375-25.0907-18.0542-6.3356-4.9686-12.6323-10.2214-18.8726-15.7464-1.075-.9517-2.1427-1.8816-3.2047-2.7942-.7373-.6335-1.4719-1.2588-2.2031-1.8735,8.878-2.4705,17.4339-4.5728,25.7669-6.1824,2.0408,1.7367,4.078,3.4333,6.1121,5.0945Z"/>
        <path class="st2" d="M799.3481,233.1147c-1.8537.6868-3.6999,1.3546-5.5395,2.0051-.88-1.548-1.7612-3.1007-2.6444-4.6574-1.294-2.2808-2.5924-4.569-3.8978-6.8597,4.5319,1.9993,9.1758,4.2342,13.961,6.7085-.6261.9385-1.2523,1.8735-1.8792,2.8035Z"/>
        <path class="st2" d="M812.9917,212.1764c-2.7811-1.4625-5.5211-2.8512-8.2273-4.1711,5.001-2.0591,9.9637-4.2165,14.8884-6.4566-2.2238,3.5809-4.4432,7.1259-6.6612,10.6277Z"/>
        <path class="st2" d="M641.5668,231.3343c3.6496-1.3396,7.2014-2.6164,10.6635-3.8309.403.0807.8058.1606,1.2084.2389,10.2647,1.9964,20.4204,3.2156,30.465,3.7464,3.3974.1795,6.7821.2805,10.1538.3058,7.5032,7.8211,14.8609,14.6581,22.1622,20.5806-7.0033.5712-13.958.8594-20.8356.8594-2.773,0-5.5344-.0466-8.2805-.1398-9.2423-.3141-18.4729-1.1689-27.6369-2.5414-.5561-.0834-1.1129-.1618-1.6685-.249-9.7261-1.5257-19.3722-3.6429-28.8701-6.3411-2.0126-.5718-4.0249-1.1794-6.0364-1.8067-.3876-.1209-.7754-.2379-1.163-.3608-1.3808-.438-2.7612-.8862-4.1409-1.3502.6829-.2666,1.3626-.5313,2.0393-.7945,7.6992-2.994,14.9962-5.768,21.9397-8.3166Z"/>
        <path class="st2" d="M177.0611,234.8423c.5071.0181,1.0102.0395,1.5116.0624-2.3686.0486-4.7485.075-7.1427.075,1.8702,0,3.7472-.0476,5.6311-.1374Z"/>
        <path class="st2" d="M353.206,150.2519c25.3915-16.5427,47.8329-30.4199,73.5878-33.0891,14.8575-1.5411,29.4869.8171,44.7244,7.2055,11.4378,4.7957,23.2061,11.8637,35.6592,21.4375-8.6606,2.1823-17.5364,4.7412-26.7243,7.5683-18.6217-11.6991-35.3775-16.4531-51.4383-14.7867-15.7285,1.6302-31.1792,9.2403-47.7784,19.3691-6.694,4.0847-13.574,8.5771-20.7357,13.2552-.7721.5043-1.5489,1.0117-2.3286,1.5206-14.0222,9.153-29.2909,19.0067-46.6661,28.118-17.3864,3.1967-35.8603,5.9378-55.5895,8.0207-21.4365,2.2632-44.3569,3.747-68.9804,4.1896,75.8643-3.7589,123.2438-34.7067,161.7853-59.882,1.5064-.984,2.9998-1.9591,4.4847-2.9266Z"/>
      </g>
      <g>
        <path class="st12" d="M622.2674,242.3516c-.1794-.1848-.3595-.3719-.5388-.5561.3875.123.7753.2399,1.163.3608-.208.0653-.4157.131-.6241.1952Z"/>
        <path class="st12" d="M178.5726,234.9047c.636.0291,1.268.0615,1.8951.0982.0579.0034.1166.0063.1746.0097-3.0862-.0213-6.1556-.0329-9.2124-.0329,2.3942,0,4.7742-.0264,7.1427-.075Z"/>
        <path class="st12" d="M659.4666,250.5532c1.0418,1.1362,2.0887,2.2796,3.14,3.4283-4.2785-.1584-8.537.0265-12.7819.5583,2.6953-1.3249,5.3522-2.7399,7.9735-4.2357.5556.0872,1.1124.1657,1.6685.249Z"/>
        <path class="st12" d="M504.3913,171.3137c1.0621.9127,2.1298,1.8425,3.2047,2.7942,6.2403,5.525,12.537,10.7777,18.8726,15.7464-14.042.6118-28.8336,4.7241-45.1024,12.3568-1.4201.6663-2.8545,1.3186-4.2956,1.9644-8.213-2.8283-16.3952-3.8112-24.3982-2.9116-2.08.2336-4.1589.5953-6.2345,1.0835-3.2548-2.0119-6.4408-4.0408-9.5557-6.0759,12.1458-3.7503,23.961-8.2239,35.3355-13.5604,11.1625-5.2372,21.8313-9.0209,32.1734-11.3974Z"/>
        <path class="st12" d="M565.5301,191.3077c-10.3955-6.69-20.8839-14.3157-31.463-22.9555,14.4741.5228,28.3638,4.039,42.2331,10.6979-3.6229,4.0072-7.2114,8.1083-10.7702,12.2576Z"/>
        <path class="st12" d="M624.8609,214.5608c-2.5167.9531-5.0723,1.9309-7.6645,2.9302-10.8385-4.0418-21.7892-9.0173-32.8491-15.022,3.6459-4.2071,7.3085-8.3301,10.9898-12.3169,10.1011,6.9121,19.8171,15.1594,29.5238,24.4087Z"/>
        <path class="st12" d="M987.6414,270.7441c5.5139-8.8132,10.9385-17.9218,16.2937-27.2337,3.5913-6.2447,7.1516-12.5803,10.6866-18.98,9.6927-17.5476,19.1963-35.5731,28.635-53.5042.3328-.6323.6657-1.2646.9984-1.8967,4.3309-8.2282,8.7027-16.5334,13.1106-24.8265,5.7585-10.8341,11.5793-21.6465,17.4529-32.24,4.1737-7.5275,8.3741-14.9429,12.5979-22.177,1.8265-3.1281,3.657-6.2242,5.492-9.2784,4.627-7.7014,9.125-14.8977,13.5312-21.6459,5.101,5.2418,9.9523,10.8766,14.7547,16.8014-2.9503,4.6198-5.8818,9.3507-8.7991,14.1815-4.179,6.9202-8.3295,14.044-12.4659,21.3343-5.2784,9.3028-10.5345,18.8756-15.7988,28.6436-4.1742,7.7453-8.3539,15.6128-12.554,23.5636-2.7436,5.1935-5.4958,10.4218-8.2613,15.6759-8.9813,17.063-18.0703,34.3281-27.3652,51.2824-3.6574,6.6712-7.3473,13.2924-11.0747,19.8356-3.128,5.4911-6.2829,10.9256-9.4682,16.2859-3.2475,5.4651-6.5257,10.8548-9.8402,16.145-4.962-3.1627-10.078-6.5588-15.3504-10.1856-.8542-.5877-1.7124-1.1812-2.5751-1.7811Z"/>
        <path class="st12" d="M688.7113,282.1925c9.7345,10.2599,20.021,20.67,30.9953,30.8579,5.6364,5.2325,11.4552,10.4051,17.4747,15.4687,4.6426,3.9053,9.4006,7.7474,14.2909,11.4986,44.0927,33.82,82.9206,46.4443,118.7072,38.5926,28.4406-6.2401,53.7217-25.3213,76.9852-51.9794,4.6328-5.3088,9.1856-10.918,13.6673-16.7863.7142-.9352,1.4269-1.8757,2.1375-2.8238,4.3772-5.8403,8.6875-11.9234,12.9391-18.2108,3.7843,2.623,7.4955,5.1358,11.1332,7.5348,2.2959,1.5141,4.5608,2.9801,6.8005,4.4064-4.106,6.0794-8.268,11.99-12.4967,17.6848-.6913.9309-1.3814,1.8497-2.0711,2.763-4.5378,6.0088-9.0441,11.639-13.5382,16.9104-10.9536,12.8483-21.8359,23.5712-32.9307,32.4688-18.6156,14.929-38.1328,24.7098-58.0098,29.0711-8.2731,1.8151-16.7193,2.7219-25.3007,2.7219-12.7279,0-25.7528-1.9947-38.9454-5.9771-22.9439-6.9262-47.231-20.1437-72.1867-39.2858-8.2542-6.3313-16.1243-12.8738-23.6653-19.53-6.9149-6.1035-13.5509-12.3026-19.9405-18.5269-14.9571-14.5701-28.5739-29.2697-41.3041-43.1671,12.3261-1.3343,23.869,1.3533,35.2583,6.3084Z"/>
        <path class="st12" d="M1146.1491,7.4207c21.0576-22.1782,42.1022-35.9926,64.3362-42.2326,12.307-3.4539,25.0616-4.5184,37.911-3.1647,13.239,1.3949,26.9637,5.4038,40.7928,11.9149,5.3815,2.5335,7.6899,8.95,5.1562,14.3313-2.5335,5.3813-8.95,7.6898-14.3313,5.1561-42.8463-20.1728-80.4189-11.0131-118.2446,28.8258-9.6864,10.202-18.9971,21.9256-28.0715,34.8207-4.7472-5.6458-9.6531-11.089-14.8753-16.225,9.2666-12.8944,18.2545-23.8715,27.3265-33.4265Z"/>
        <path class="st12" d="M245.0085,214.5494c11.8962.1946,23.958.3259,36.1019.2896,29.1676-.0874,58.8041-1.1473,87.7398-4.6319,13.6645-1.6456,27.1729-3.8302,40.4008-6.712,4.6857,3.3195,9.389,6.5292,14.1041,9.6323-1.131.7971-2.2588,1.6305-3.3826,2.5047-5.68,4.4182-11.4026,8.119-17.1767,11.1924-15.1731,2.8793-31.2652,5.072-48.3619,6.6052-12.9472-3.4083-27.4165-6.7287-44.2043-9.6838-.772-.1359-1.5493-.2679-2.325-.4011-11.5501-1.9834-23.5186-3.671-35.9661-5.0665-9.4071-1.0546-19.0888-1.9423-29.0688-2.6659-10.1776-.7378-20.6669-1.3046-31.495-1.7022,3.6437.0695,7.3216.1425,11.0453.2166,7.4466.1483,14.9841.298,22.5885.4224Z"/>
      </g>
      <g>
        <path class="st9" d="M915.8921,232.065c-6.9805,6.902-13.9972,14.1979-21.0547,21.8909-3.8295.6286-7.6735,1.5366-11.5622,2.6499-7.739-5.4189-15.1276-10.4938-22.2135-15.2302,12.729-4.7403,25.8477-8.7693,39.5725-9.6763,5.1743-.3409,10.2543-.2176,15.2579.3657Z"/>
        <path class="st9" d="M1312.8232,239.8131c5.8928.8071,10.0157,6.2389,9.2084,12.1318-.8075,5.8926-6.2372,10.0163-12.1319,9.2083-61.1914-8.3815-95.623,7.5882-122.556,26.8454-9.3542-2.0222-18.4581-4.1385-27.3633-6.2393,31.4065-24.9775,71.7467-53.0541,152.8428-41.9461Z"/>
        <path class="st9" d="M178.619,213.1705c2.7943-.0231,5.5655-.0604,8.3169-.1099,24.6235-.4427,47.544-1.9265,68.9804-4.1896,19.7292-2.0829,38.2031-4.824,55.5895-8.0207,26.1669-4.811,49.8773-10.6491,71.7079-16.818,1.4109.9919,2.8206,2.0371,4.2302,3.1492,5.704,4.4997,11.4485,8.8438,17.2222,13.0297-11.3703,3.4055-23.2766,6.7734-35.8159,9.9961-28.9357,3.4846-58.5722,4.5445-87.7398,4.6319-12.1439.0363-24.2057-.095-36.1019-.2896-7.6044-.1244-15.1419-.2741-22.5885-.4224-3.7237-.0741-7.4016-.1471-11.0453-.2166-9.4544-.3472-19.1661-.5661-29.1558-.6569-1.4421-.0131-2.8914-.023-4.3451-.0307-2.1369-.0114-4.2818-.0193-6.4439-.0193,2.4139,0,4.8068-.0133,7.1891-.033Z"/>
        <path class="st9" d="M793.8651,277.2398c4.4889-5.6363,8.929-11.556,13.3247-17.6914.2874-.0505.5745-.1023.8614-.1551,9.6294-1.774,18.9974-4.8923,28.3749-8.4355,6.9566,4.4661,14.2373,9.3165,21.903,14.5627-.8212.3247-1.6455.651-2.4752.9796-11.2902,4.4718-22.7765,9.0203-34.8849,12.1307-7.6138,1.9558-15.4752,3.3382-23.6876,3.7788-1.8312.0982-3.6778.1549-5.5451.1548-.722,0-1.4479-.0101-2.1758-.0257.1046-.1261.209-.2506.3138-.3772,1.3348-1.6138,2.6647-3.2566,3.9908-4.9217Z"/>
        <path class="st9" d="M480.4531,153.3741c9.188-2.8271,18.0638-5.386,26.7243-7.5683,24.3957-6.1471,47.0825-9.2998,70.2156-6.9916,11.2758,1.1253,22.3395,3.5475,33.3581,7.3576,7.722,2.6701,15.4219,6.0208,23.1568,10.0917,17.239,9.0727,34.6538,21.7117,52.8788,38.2853.8691.7904,1.7398,1.5881,2.6127,2.3964,5.082,4.7062,10.2286,9.7156,15.4539,15.0397.2416.2462.484.4956.7259.7431,1.2723,1.3016,2.5484,2.6181,3.8302,3.9568,4.7738,4.9857,9.4145,9.462,13.9359,13.4758,8.4164,7.4717,16.4166,13.3312,24.077,17.8383,11.5319,6.785,22.2949,10.5091,32.5512,12.0642-2.2172,2.8569-4.448,5.6513-6.697,8.3704-3.0092,3.6381-5.9961,7.071-8.9641,10.3072-7.7982-2.2187-15.5341-5.4157-23.3372-9.6357-8.2667-4.4704-16.475-10.0128-24.7557-16.7298-7.3013-5.9225-14.659-12.7595-22.1622-20.5806-.0686-.0715-.137-.1416-.2057-.2133-1.5913-1.662-3.1697-3.2863-4.738-4.8807-2.8257-2.8727-5.6148-5.6366-8.3695-8.2945-2.4002-2.3158-4.7743-4.5507-7.1242-6.7077-3.9455-3.6216-7.8224-7.0217-11.6386-10.2109-16.7186-13.9715-32.2733-23.8862-47.322-30.5367-7.82-3.4559-15.5039-6.0303-23.1437-7.8363-20.8834-4.9365-41.4401-4.1297-63.5606.1433-8.333,1.6096-16.8889,3.712-25.7669,6.1824-15.0485,4.1875-31.0241,9.435-48.4213,15.1504-7.4705,2.4543-15.1651,4.9817-23.12,7.5361-7.8371-5.3001-15.1606-10.5911-21.8752-15.68,13.4099-4.1526,26.1144-8.3252,38.2726-12.3195,11.6574-3.8296,22.743-7.4713,33.4087-10.7531Z"/>
        <path class="st9" d="M940.0048,238.7309c7.203,3.194,14.2921,7.4518,21.3207,12.803,9.1838,6.9921,17.9458,13.3889,26.3159,19.2102.8627.5999,1.7209,1.1934,2.5751,1.7811,5.2724,3.6268,10.3884,7.0229,15.3504,10.1856,3.1948,2.0363,6.3256,3.9755,9.3961,5.8216,30.3849,18.2683,54.7716,27.2689,74.8328,27.8426,19.3294.5492,33.6545-6.7695,48.505-17.6053,3.3205.7796,6.6716,1.573,10.0572,2.3747,5.5611,1.3168,11.1946,2.6503,16.9121,3.9747-10.451,8.3749-20.5065,16.211-31.8726,22.2214-13.4712,7.1239-27.104,10.603-41.596,10.6027-.8701,0-1.7451-.0126-2.6216-.0379-17.5184-.5009-36.8171-5.9421-58.9989-16.6341-11.2968-5.4456-23.355-12.2522-36.3388-20.5203-2.2397-1.4262-4.5046-2.8923-6.8005-4.4064-3.6377-2.399-7.3489-4.9118-11.1332-7.5348-3.2919-2.2817-6.6395-4.6475-10.0471-7.1019-5.6933-4.1008-11.5502-8.4426-17.5839-13.0364-8.8176-6.7133-17.1152-10.944-25.1564-13.2998,5.7143-5.8772,11.3412-11.4184,16.8836-16.6409Z"/>
      </g>
      <g>
        <path class="st7" d="M178.5126,234.7644c1.4051.0084,2.8018.019,4.1885.0323,10.0098.0958,19.538.3193,28.6224.6559-4.8124-.0921-9.559-.1775-14.2524-.2499-4.792-.0949-9.6775-.1549-14.676-.1883-1.0125-.0486-2.0259-.0906-3.0404-.1262-.6407-.0225-1.2812-.0465-1.9228-.0638.36-.0183.7203-.0384,1.0808-.0601Z"/>
        <path class="st7" d="M568.1457,236.0132c-5.8033,2.034-11.3659,3.9095-16.7063,5.6349,3.3129-3.9066,6.6394-7.8888,9.9917-11.9183,2.2582,2.0236,4.4931,4.1233,6.7145,6.2834Z"/>
        <path class="st7" d="M599.7866,268.82c1.5645,1.5854,3.1466,3.1643,4.749,4.7337,5.2082,5.1008,10.6379,10.0967,16.4188,14.8586,4.0112,3.3042,8.1897,6.4967,12.5837,9.531,21.9278,15.1423,42.0671,22.1039,61.2189,21.1079,6.3897,6.2242,13.0256,12.4234,19.9405,18.5269-1.544.4116-3.094.7855-4.6518,1.1176-6.1926,1.32-12.4855,1.9795-18.8434,1.9795-7.8786,0-15.8565-1.0129-23.8665-3.0367-14.8802-3.7594-30.3694-11.1516-46.0373-21.9711-7.2621-5.0149-13.9935-10.421-20.3007-15.9884-7.1529-6.3139-13.7585-12.8352-19.9631-19.2332-3.6493-3.763-7.1602-7.4821-10.5631-11.0913,3.9301.2493,7.8191.376,11.6631.376,5.9946.0002,11.8811-.3036,17.6518-.9104Z"/>
        <path class="st7" d="M750.9613,319.8167c-4.5949,3.3044-9.1792,6.202-13.78,8.7024-6.0195-5.0636-11.8383-10.2361-17.4747-15.4687,3.7051-1.6054,7.4198-3.5343,11.15-5.7909,6.591,4.3389,13.2651,8.6384,20.1047,12.5572Z"/>
        <path class="st7" d="M764.3125,278.7406c2.968-3.2361,5.9549-6.6691,8.9641-10.3072,2.249-2.7191,4.4798-5.5134,6.697-8.3704.6355-.8187,1.2699-1.6423,1.9031-2.4719,4.661-6.1067,9.2624-12.5006,13.8322-19.1354,1.2151-1.7641,2.4281-3.544,3.6392-5.341.6269-.93,1.2532-1.865,1.8792-2.8035,3.9298-5.8914,7.8452-11.947,11.7643-18.1348,2.2179-3.5019,4.4373-7.0468,6.6612-10.6277,5.7508-9.2603,11.5321-18.7641,17.4026-28.4158,6.1233-10.0674,12.2913-20.2073,18.5466-30.2553,6.2907,2.3791,12.8036,5.4667,19.5928,9.2891-6.4443,10.3151-12.8029,20.7598-19.1121,31.1325-.2082.3423-.4166.6848-.6246,1.027-6.8723,11.2987-13.8219,22.7223-20.8683,33.9547-.9372,1.494-1.8757,2.9852-2.8163,4.4716-3.8687,6.1131-7.7678,12.1539-11.6998,18.0743-4.0864,6.153-8.209,12.1724-12.3712,18.0024-.171.2395-.3416.4804-.5128.7193-4.3956,6.1353-8.8357,12.0551-13.3247,17.6914-1.3261,1.6651-2.656,3.308-3.9908,4.9217-.1047.1266-.2091.2511-.3138.3772-7.0646,8.5153-13.959,15.9597-20.8038,22.4506-6.4892-3.324-12.9494-7.2444-19.4697-11.4313,4.9612-4.364,9.9654-9.3002,15.0255-14.8174Z"/>
        <path class="st7" d="M931.0428,43.2991c19.7146-18.6357,39.3282-30.8184,59.9618-37.244,23.2753-7.2488,47.8876-6.8556,73.1554,1.1658,22.9815,7.2963,40.0575,19.262,54.6627,33.6263,5.2221,5.136,10.1281,10.5793,14.8753,16.225,6.3152,7.5106,12.3497,15.3794,18.4717,23.3642,3.2717,4.2673,6.556,8.5497,9.9105,12.8182-9.6042-.888-19.2789-1.7023-29.0073-2.3243-4.0019-5.2139-7.9239-10.2883-11.8783-15.1672-4.8023-5.9248-9.6536-11.5596-14.7547-16.8014-13.3454-13.7136-28.404-24.7365-48.7979-31.2111-40.2414-12.7765-75.7675-2.8617-111.8026,31.2014-21.1049,19.9499-40.5251,46.4986-59.0859,75.051-6.6536-3.8023-13.1159-7.0126-19.4227-9.6423,19.7168-30.5014,40.5274-59.1457,63.7122-81.0617Z"/>
        <path class="st7" d="M264.1051,248.535c4.3581.9884,8.6799,1.9683,12.972,2.9209,15.7992,10.0142,30.8174,17.848,51.6442,17.894,8.1307.0201,16.9103-1.1229,26.4605-3.4735,5.3385-1.314,10.919-3.0066,16.7614-5.0846,2.2262-.7918,4.4902-1.6392,6.7939-2.5436,2.3112-.9074,4.6616-1.871,7.0533-2.8926,5.3467-2.284,10.8974-4.8546,16.6657-7.7173,12.3536-6.131,25.7064-13.6028,40.1882-22.4632.39-.2386.7783-.4751,1.1699-.7157,7.3777-4.5328,14.4205-8.2796,21.2011-11.2707,6.3587-2.805,12.4863-4.944,18.4435-6.4442,2.187-.5508,4.3515-1.0169,6.4954-1.3964,13.6062-2.4087,26.1819-1.3737,38.4451,3.1629,5.6042,2.0734,10.8957,4.8066,15.9733,8.0439-4.7331,5.6869-9.4093,11.268-14.0479,16.6411-3.0688-1.7871-6.1912-3.297-9.3985-4.4835-2.586-.9565-5.5702-1.8569-9.039-2.4347-5.2493-.8743-11.6118-1.0066-19.3981.5336-3.4719.6868-7.2263,1.7057-11.2919,3.1404-5.0207,1.7718-10.5149,4.177-16.5345,7.3709-3.0537,1.6203-6.2419,3.4422-9.5729,5.4887-7.5203,4.6206-14.7768,8.8933-21.7865,12.8249-7.5244,4.2202-14.7625,8.0447-21.7378,11.4859-2.4751,1.2211-4.9179,2.3949-7.3274,3.5192-6.5183,3.0416-12.7986,5.7287-18.8609,8.0714-21.2577,8.2147-39.8245,12.1776-56.4716,12.1769-.076,0-.1562,0-.2323-.0003-30.7201-.068-51.4341-13.5683-71.4661-26.624-20.523-13.3756-41.6902-27.1705-76.5649-29.2527.689.0048,1.3801.0107,2.0708.0164,27.8893,1.3748,55.0364,7.5287,81.3919,13.5061Z"/>
        <path class="st7" d="M1181.9864,116.8106c12.0233,12.9285,25.8418,25.1739,43.288,35.8253,15.175,9.2647,33.094,17.3236,54.9722,23.573,3.1701.9056,6.4266,1.7716,9.7665,2.5994,2.7762.688,5.6059,1.3515,8.5041,1.9834,3.9419.8596,6.9025,3.7774,8.0053,7.3789.3967,1.2953.5517,2.6785.4261,4.0869-.04.4488-.1052.8998-.2036,1.3515-1.2676,5.8117-7.0058,9.4963-12.8172,8.2278-4.5686-.9963-9.0399-2.0767-13.4267-3.2334-.331-.0873-.6643-.1726-.9942-.2608-22.2572-5.9492-42.1989-13.9955-60.1838-24.2992-7.6833-4.4018-15.0116-9.2133-22.0084-14.4522-1.2939-.9689-2.5732-1.9568-3.8448-2.9548-.4553-.3573-.9131-.7113-1.3655-1.0724-16.5472-13.2055-29.4938-27.3949-41.1128-41.6794,9.2755.7996,18.5919,1.7118,27.9735,2.6305,1.006.0985,2.0133.1972,3.0213.2957Z"/>
      </g>
      <g>
        <path class="st3" d="M861.0617,241.3756c7.0859,4.7364,14.4745,9.8113,22.2135,15.2302,1.8453,1.2921,3.7116,2.6047,5.5975,3.9361,5.2545,3.7094,10.6656,7.5684,16.2549,11.5855.467.3357.9305.6642,1.3968.9984,11.0462,7.9178,21.8887,15.4382,32.5469,22.5625,6.8413,4.5728,13.6077,8.9843,20.3047,13.235.4859.3084.9708.6144,1.4559.9212-4.4817,5.8684-9.0346,11.4775-13.6673,16.7863-3.015-1.9121-6.0451-3.8579-9.0895-5.8349-6.9048-4.4839-13.8868-9.1362-20.9501-13.9582-8.0804-5.5164-16.2667-11.2534-24.5684-17.2199-.1517-.1091-.301-.216-.4525-.3248-6.1208-4.3974-12.0187-8.5996-17.7134-12.6101-5.5398-3.9014-10.8888-7.6223-16.0616-11.1624-7.6657-5.2462-14.9465-10.0966-21.903-14.5627-5.6553-3.6305-11.0962-7.0067-16.3524-10.1312,3.932-5.9204,7.8311-11.9612,11.6998-18.0743,9.2202,5.5004,18.9315,11.7003,29.2882,18.6231Z"/>
        <path class="st3" d="M433.3033,255.6362c20.108,3.8679,41.1211,4.4868,70.1772-1.1928,1.8917-.3698,3.8165-.7653,5.7784-1.1894.4659.4521.9313.9049,1.3963,1.3587,1.2158,1.1865,2.4286,2.3776,3.638,3.569.7387.7275,1.4762,1.4551,2.2122,2.1813,3.1525,3.1103,6.3296,6.244,9.5393,9.3226.4696.4504.94.8995,1.4111,1.3473-1.248.3194-2.4868.6308-3.7146.9328-16.7998,4.1319-31.7297,6.6384-45.3703,7.6769-1.916.1458-3.8081.2645-5.6747.3528-3.1005.1466-6.112.2172-9.0562.2172-11.0338-.0003-21.0581-.9951-30.7474-2.6902-9.6623-1.6906-18.9934-4.0796-28.6544-6.8809,2.4095-1.1243,4.8522-2.2981,7.3274-3.5192,6.9753-3.4412,14.2134-7.2657,21.7378-11.4859Z"/>
        <path class="st3" d="M1571.2788,294.0995c5.3698-2.5575,11.7965-.2777,14.3542,5.092,2.5578,5.3696.2781,11.7965-5.0919,14.3543-77.4888,36.9089-138.1933,61.8151-191.0404,78.3813-29.99,9.4012-57.5956,16.2189-84.3947,20.8427-27.5556,4.7538-53.5228,7.0679-79.3471,7.0679-.4082,0-.8207-.0007-1.2289-.002-53.4165-.1514-105.5009-10.5186-159.2293-31.6936-31.7528-12.5142-64.7117-29.0619-99.5644-50.0329,4.4941-5.2714,9.0004-10.9016,13.5382-16.9104,198.9958,119.1929,340.0336,92.9177,592.0044-27.0994Z"/>
        <path class="st3" d="M693.5931,193.0346c12.9229-2.6826,24.8708-4.0303,36.3209-4.071,3.4432-.0122,6.8413.0951,10.2075.3186,4.4072.2925,8.7601.784,13.0866,1.4777,5.5332.8872,11.0665,2.1092,16.6569,3.667,11.2419,3.1326,22.718,7.6369,34.8994,13.5785,2.7062,1.3199,5.4462,2.7086,8.2273,4.1711-3.9191,6.1878-7.8345,12.2433-11.7643,18.1348-4.7852-2.4743-9.4291-4.7091-13.961-6.7085-4.0841-1.8017-8.0788-3.4149-12.0034-4.8371-6.5064-2.3578-12.8235-4.1954-19.052-5.532-2.1468-.4606-4.2835-.8648-6.4131-1.2062-14.1209-2.2639-28.3368-1.9797-44.2186.7005-.2419-.2475-.4844-.4969-.7259-.7431-5.2253-5.3241-10.3719-10.3336-15.4539-15.0397-.8729-.8083-1.7435-1.6061-2.6127-2.3964.0188-.0045.0378-.0092.0566-.0136,2.2805-.5399,4.5292-1.0395,6.7497-1.5005Z"/>
        <path class="st3" d="M544.79,243.7544c2.1778-.6757,4.3939-1.3777,6.6494-2.1063,5.3404-1.7254,10.9029-3.6009,16.7063-5.6349,6.4422-2.2578,13.1806-4.7103,20.2433-7.3697,4.5609-1.7175,9.2567-3.521,14.0944-5.4138.7523-.2943,1.5051-.5889,2.2643-.8875,4.2505-1.672,8.3956-3.2886,12.4487-4.8511,2.5922-.9993,5.1478-1.9771,7.6645-2.9302,13.2963-5.0355,25.5677-9.4182,37.1205-13.0735,3.8162,3.1892,7.6931,6.5893,11.6386,10.2109,2.3499,2.1571,4.724,4.3919,7.1242,6.7077-7.8886,2.204-16.2513,4.8589-25.2219,7.9519-1.0878.375-2.186.7576-3.2921,1.1456-3.4621,1.2144-7.014,2.4913-10.6635,3.8309-6.9436,2.5486-14.2406,5.3226-21.9397,8.3166-.6767.2632-1.3564.5279-2.0393.7945-1.6349.6381-3.2835,1.2836-4.955,1.9411-4.0568,1.5959-8.0311,3.1355-11.9299,4.6227-5.5046,2.0997-10.8554,4.0923-16.0589,5.979-7.763,2.8147-15.2006,5.3953-22.3393,7.7484-3.5469,1.1691-7.0183,2.2808-10.4213,3.3386-3.5551-3.0499-7.2402-6.4465-11.0957-10.1294-2.2988-2.196-4.6594-4.4948-7.0881-6.8812,3.3808-.967,6.8583-2.0021,10.4395-3.1085.2164-.0668.4336-.1343.6508-.2016Z"/>
        <path class="st3" d="M1.7623,224.1329l58.1641-34.0142-7.8717,23.0848h119.3752c2.1622,0,4.307.0079,6.4439.0193,1.4537.0078,2.903.0176,4.3451.0307,9.9897.0908,19.7014.3097,29.1558.6569,10.8281.3976,21.3174.9644,31.495,1.7022,9.98.7235,19.6617,1.6112,29.0688,2.6659,12.4475,1.3955,24.416,3.0831,35.9661,5.0665.7757.1332,1.553.2651,2.325.4011,16.7877,2.955,31.2571,6.2755,44.2043,9.6838,5.6172,1.4787,10.9503,2.9737,16.057,4.4629,7.5717,2.2081,14.654,4.4028,21.4541,6.5106,3.5962,1.1146,7.0894,2.1971,10.511,3.2349-5.7683,2.8627-11.3189,5.4333-16.6657,7.7173-2.3917,1.0216-4.7421,1.9852-7.0533,2.8926-2.3037.9044-4.5677,1.7519-6.7939,2.5436-.9593-.2896-1.9262-.5798-2.8997-.8703-27.8422-8.308-61.6838-16.9123-112.4202-21.6004-13.7805-1.2733-28.8081-2.2574-45.2998-2.8684-9.0844-.3366-18.6126-.5601-28.6224-.6559-1.3867-.0133-2.7834-.0239-4.1885-.0323-2.3358-.0139-4.6949-.0216-7.0826-.0216h-2.2487s-117.2355,0-117.2355,0l7.9807,23.4043L1.7623,224.1329Z"/>
      </g>
    </g>
  </g>
</svg>