<?xml version="1.0" encoding="UTF-8"?>
<svg id="Layer_1" xmlns="http://www.w3.org/2000/svg" version="1.1" viewBox="0 0 32 32">
  <!-- Generator: Adobe Illustrator 29.7.1, SVG Export Plug-In . SVG Version: 2.1.1 Build 8)  -->
  <defs>
    <style>
      .st0 {
        fill: #fff;
      }
    </style>
  </defs>
  <g id="Layer_11" data-name="Layer_1">
    <g>
      <path class="st0" d="M14.5,12.1c-1-1.4-2-2.9-2.9-4.3,0,0,0-.1-.2-.1h-2.3c1.3,1.9,2.5,3.7,3.8,5.5,1,1.5,2.1,3,3.1,4.5,1.5,2.1,2.9,4.3,4.4,6.4h2.6v-.1c-.2-.3-.4-.6-.6-.9-1.5-2.2-3-4.4-4.6-6.6-1-1.5-2.1-3-3.1-4.5l-.2.1Z"/>
      <path class="st0" d="M16,0C7.2,0,0,7.2,0,16s7.2,16,16,16,16-7.2,16-16S24.8,0,16,0ZM25.1,25.5h-5.5c-1.6-2.3-3.2-4.6-4.8-6.9-.1-.2-.2-.3-.3-.5h0c-2.1,2.5-4.2,4.9-6.3,7.4h-1.6c2.4-2.8,4.9-5.7,7.3-8.5-2.4-3.5-4.8-7-7.3-10.6h5.5c1.1,1.6,2.2,3.2,3.3,4.8.5.7,1,1.4,1.5,2.2h0c.3-.3.5-.6.8-.9,1.7-2,3.5-4.1,5.2-6.1h1.6c-2.3,2.7-4.6,5.4-6.9,8.1,2.5,3.7,5.1,7.3,7.6,11,0,0-.1,0-.1,0Z"/>
    </g>
  </g>
</svg>